<svg id="MJMDFikID" viewBox="0 0 350 226.24910619329265" height="226.24910619329265" width="350"><defs id="SvgjsDefs1630"></defs><g id="SvgjsG1631" featurekey="symbolFeature-0" transform="matrix(1.4283744927833153,0,0,1.4283744927833153,103.58061358507047,-24.996553623708017)" fill="#88304e"><g xmlns="http://www.w3.org/2000/svg"><path d="M98.928,52.26c-0.444-2.146-2.909-2.909-4.748-3.416c-0.563-0.155-1.163-0.286-1.772-0.418   C91.146,29.006,75.502,17.5,50,17.5c-25.501,0-41.145,11.505-42.407,30.924c-0.608,0.132-1.208,0.262-1.77,0.417   c-1.839,0.507-4.306,1.271-4.75,3.418c-0.468,2.261,1.208,3.661,3.125,4.382c1.005,0.378,2.041,0.656,3.082,0.915   C5.294,59.012,4,61.354,4,64c0,2.977,1.637,5.573,4.055,6.951c1.647,8.072,7.341,13.381,14.984,13.381h54.016   c7.597,0,13.257-5.31,14.894-13.383C94.364,69.57,96,66.975,96,64c0-2.645-1.294-4.987-3.278-6.442   c1.04-0.259,2.074-0.537,3.078-0.915C97.718,55.922,99.396,54.521,98.928,52.26z M50,21.5c11.279,0,37.13,2.73,38.447,27.5H11.552   C12.87,24.23,38.721,21.5,50,21.5z M52.02,53.001c-2.641,1.025-7.006,2-13.017,2s-10.375-0.975-13.015-2H52.02z M77.055,80.332   H23.039c-5.103,0-8.958-3.183-10.604-8.332H51.66c3.886,1.6,7.639,4.116,10.937,7.414C62.972,79.789,63.48,80,64.011,80   c0.001,0,0.002,0,0.003,0c0.531-0.001,1.04-0.213,1.415-0.589c3.802-3.822,9.195-6.398,15.299-7.411h6.845   C85.939,77.149,82.116,80.332,77.055,80.332z M59.934,72h8.735c-1.676,0.948-3.232,2.035-4.642,3.253   C62.717,74.061,61.346,72.978,59.934,72z M87.992,54.664c-2.166,0.685-3.588,1.792-5.098,3.464   c-1.089,1.207-2.715,3.47-4.572,3.358c-1.921-0.114-3.782-1.364-5.58-1.963c-2.189-0.73-4.369-0.831-6.45,0.265   c-1.959,1.032-3.513,2.754-5.538,3.655c-1.835,0.815-3.562-0.512-5.107-1.415C53.92,61.02,52.056,60,50,60   c-2.168,0-4.111,1.128-5.925,2.191c-1.826,1.069-3.409,2.094-5.424,0.947c-1.923-1.095-3.491-2.74-5.535-3.637   c-2.034-0.891-4.171-0.583-6.206,0.14c-1.109,0.395-2.173,0.898-3.273,1.316c-0.7,0.267-1.605,0.663-2.374,0.508   c-1.851-0.376-3.196-2.279-4.39-3.589c-1.539-1.688-3.037-2.662-5.228-3.326C9.74,53.973,7.766,53.625,5.875,53   c0.713-0.237,1.451-0.427,2.196-0.604c0.363,0.372,0.869,0.604,1.429,0.604h10.013c2.189,4.106,11.115,6,19.49,6   s17.304-1.894,19.493-6H90.5c0.56,0,1.064-0.231,1.428-0.602c0.745,0.176,1.483,0.365,2.197,0.601   C92.114,53.668,90.013,54.025,87.992,54.664z"></path><path d="M74.034,35.929c-0.055,0.008-0.097,0.051-0.105,0.105c-0.229,1.538,0.286,3.108,1.379,4.202   c0.911,0.911,2.179,1.433,3.479,1.433c0.241,0,0.484-0.018,0.724-0.053c0.055-0.008,0.097-0.051,0.105-0.105   c0.227-1.539-0.289-3.11-1.381-4.201C77.155,36.229,75.561,35.7,74.034,35.929z"></path><path d="M61.661,35.929c-1.527-0.229-3.12,0.301-4.201,1.38c-1.091,1.091-1.606,2.662-1.38,4.201   c0.009,0.055,0.051,0.098,0.105,0.105c0.239,0.036,0.482,0.053,0.724,0.053c0,0,0,0,0.001,0c1.299,0,2.566-0.522,3.478-1.433   c1.093-1.093,1.608-2.664,1.379-4.202C61.758,35.979,61.716,35.937,61.661,35.929z"></path><path d="M38.338,35.929c-0.054,0.008-0.097,0.051-0.105,0.105c-0.229,1.538,0.287,3.108,1.379,4.202   c0.911,0.911,2.178,1.433,3.478,1.433c0.242,0,0.485-0.018,0.724-0.053c0.054-0.008,0.097-0.051,0.105-0.105   c0.228-1.539-0.289-3.109-1.38-4.201C41.458,36.229,39.862,35.703,38.338,35.929z"></path><path d="M25.966,35.929c-1.521-0.226-3.12,0.3-4.201,1.38c-1.092,1.092-1.608,2.662-1.38,4.201   c0.008,0.055,0.051,0.098,0.105,0.105c0.239,0.036,0.482,0.053,0.724,0.053c1.3,0,2.567-0.522,3.478-1.433   c1.092-1.093,1.608-2.664,1.379-4.202C26.063,35.979,26.021,35.937,25.966,35.929z"></path><path d="M65.11,24.386c-0.055,0.008-0.097,0.051-0.105,0.105c-0.229,1.538,0.286,3.108,1.379,4.202   c0.911,0.911,2.179,1.433,3.479,1.433c0.241,0,0.484-0.018,0.724-0.053c0.055-0.008,0.097-0.051,0.105-0.105   c0.227-1.539-0.289-3.11-1.381-4.201C68.231,24.687,66.639,24.157,65.11,24.386z"></path><path d="M52.737,24.386c-1.528-0.229-3.12,0.301-4.2,1.38c-1.092,1.092-1.608,2.662-1.38,4.201   c0.008,0.055,0.051,0.098,0.105,0.105c0.239,0.036,0.482,0.053,0.724,0.053c1.3,0,2.567-0.522,3.478-1.433   c1.093-1.093,1.608-2.664,1.379-4.202C52.834,24.437,52.792,24.394,52.737,24.386z"></path><path d="M34.89,24.386c-1.522-0.227-3.12,0.3-4.201,1.38c-1.092,1.092-1.608,2.662-1.38,4.201c0.008,0.055,0.051,0.098,0.105,0.105   c0.239,0.036,0.482,0.053,0.724,0.053c1.3,0,2.567-0.522,3.478-1.433c1.092-1.093,1.608-2.664,1.379-4.202   C34.987,24.437,34.944,24.394,34.89,24.386z"></path></g></g><g id="SvgjsG1632" featurekey="nameFeature-0" transform="matrix(1.7513134316278764,0,0,1.7513134316278764,-2.1015762014625836,93.98424049064812)" fill="#88304e"><path d="M4.92 40 l-3.72 -3.72 l0 -20.56 l3.72 -3.72 l8.8 0 l3.72 3.72 l0 5.24 l-5.04 0 l0 -3.16 l-0.76 -0.76 l-4.64 0 l-0.76 0.76 l0 16.4 l0.76 0.76 l4.64 0 l0.76 -0.76 l0 -3.16 l5.04 0 l0 5.24 l-3.72 3.72 l-8.8 0 z M22.73 40 l0 -4.48 l0.84 -0.56 l0 -17.92 l-0.84 -0.56 l0 -4.48 l6.72 0 l0 4.48 l-0.84 0.56 l0 6.44 l6.16 0 l0 -6.44 l-0.84 -0.56 l0 -4.48 l6.72 0 l0 4.48 l-0.84 0.56 l0 17.92 l0.84 0.56 l0 4.48 l-6.72 0 l0 -4.48 l0.84 -0.56 l0 -6.44 l-6.16 0 l0 6.44 l0.84 0.56 l0 4.48 l-6.72 0 z M45.14 40 l0 -4.48 l0.84 -0.56 l3.64 -17.92 l-0.84 -0.56 l0 -4.48 l10.64 0 l0 4.48 l-0.84 0.56 l3.64 17.92 l0.84 0.56 l0 4.48 l-4.96 0 l-1.24 -6.16 l-5.52 0 l-1.24 6.16 l-4.96 0 z M52.38 28.8 l3.44 0 l-1.72 -8.56 z M67.55 40 l0 -3.92 l8.76 -19.04 l-3.16 0 l-0.56 0.84 l-4.48 0 l0 -5.88 l14.28 0 l0 3.92 l-8.76 19.04 l3.72 0 l0.56 -0.84 l4.48 0 l0 5.88 l-14.84 0 z M86.88 40 l0 -4.48 l0.84 -0.56 l3.64 -17.92 l-0.84 -0.56 l0 -4.48 l10.64 0 l0 4.48 l-0.84 0.56 l3.64 17.92 l0.84 0.56 l0 4.48 l-4.96 0 l-1.24 -6.16 l-5.52 0 l-1.24 6.16 l-4.96 0 z M94.11999999999999 28.8 l3.44 0 l-1.72 -8.56 z M109.28999999999999 40 l0 -4.48 l0.84 -0.56 l0 -17.92 l-0.84 -0.56 l0 -4.48 l12.52 0 l3.72 3.72 l0 8.24 l-2.04 2.04 l2.04 2.04 l0 8.24 l-3.72 3.72 l-12.52 0 z M115.16999999999999 34.96 l4.56 0 l0.76 -0.76 l0 -4.08 l-1.6 -1.6 l-3.72 0 l0 6.44 z M115.16999999999999 23.48 l3.72 0 l1.6 -1.6 l0 -4.08 l-0.76 -0.76 l-4.56 0 l0 6.44 z M130.82 40 l0 -4.48 l0.84 -0.56 l0 -17.92 l-0.84 -0.56 l0 -4.48 l6.72 0 l0 4.48 l-0.84 0.56 l0 17.92 l2.8 0 l0.56 -0.84 l4.48 0 l0 5.88 l-13.72 0 z M149.82999999999998 40 l0 -4.48 l0.84 -0.56 l0 -17.92 l-0.84 -0.56 l0 -4.48 l6.72 0 l0 4.48 l-0.84 0.56 l0 17.92 l0.84 0.56 l0 4.48 l-6.72 0 z M166.88 40 l0 -4.48 l0.84 -0.56 l0 -17.92 l-0.84 0 l-0.56 0.84 l-4.48 0 l0 -5.88 l16.8 0 l0 5.88 l-4.48 0 l-0.56 -0.84 l-0.84 0 l0 17.92 l0.84 0.56 l0 4.48 l-6.72 0 z M183.13 40 l0 -4.48 l0.84 -0.56 l3.64 -17.92 l-0.84 -0.56 l0 -4.48 l10.64 0 l0 4.48 l-0.84 0.56 l3.64 17.92 l0.84 0.56 l0 4.48 l-4.96 0 l-1.24 -6.16 l-5.52 0 l-1.24 6.16 l-4.96 0 z M190.36999999999998 28.8 l3.44 0 l-1.72 -8.56 z"></path></g><g id="SvgjsG1633" featurekey="sloganFeature-0" transform="matrix(2.7577668854034663,0,0,2.7577668854034663,53,170.59736960424704)" fill="#88304e"><path d="M6.84 20 l-3 -5.9 l-2.18 0 l0 5.9 l-1.66 0 l0 -15 l3.48 0 c0.78666 0 1.46 0.12334 2.02 0.37 s1.02 0.58 1.38 1 s0.62666 0.9 0.8 1.44 s0.26 1.1033 0.26 1.69 c0 0.46666 -0.05666 0.92 -0.17 1.36 s-0.27668 0.84666 -0.49002 1.22 s-0.46334 0.71 -0.75 1.01 s-0.59666 0.53666 -0.93 0.71 l3.34 6.2 l-2.1 0 z M3.36 6.66 l-1.7 0.000019531 l0 5.7 l1.82 0 c0.54666 0 0.99666 -0.08334 1.35 -0.25 s0.63 -0.38666 0.83 -0.66 s0.34 -0.58668 0.42 -0.94002 s0.12 -0.72334 0.12 -1.11 s-0.06334 -0.74666 -0.19 -1.08 s-0.31 -0.62334 -0.55 -0.87 s-0.53666 -0.44 -0.89 -0.58 s-0.75668 -0.21 -1.21 -0.21 z M9.88 20 l0 -15 l7.36 0 l0 1.88 l-5.68 0 l0 4.62 l5.64 0 l0 1.66 l-5.64 0 l0 4.96 l5.82 0 l0 1.88 l-7.5 0 z M21.880000000000003 20.18 c-0.66666 0 -1.2599 -0.1 -1.7799 -0.3 s-0.95 -0.51334 -1.29 -0.94 s-0.59 -0.98 -0.75 -1.66 s-0.22 -1.4933 -0.18 -2.44 l1.84 0 c0 0.48 0.01334 0.94334 0.04 1.39 s0.10332 0.84 0.22998 1.18 s0.32332 0.61 0.58998 0.81 s0.64666 0.3 1.14 0.3 c0.42666 0 0.78332 -0.06334 1.07 -0.19 s0.51666 -0.29666 0.69 -0.51 s0.29668 -0.46668 0.37002 -0.76002 s0.11 -0.60668 0.11 -0.94002 c-0.01334 -0.72 -0.25 -1.2933 -0.71 -1.72 s-1.05 -0.79332 -1.77 -1.1 c-0.58666 -0.24 -1.11 -0.48334 -1.57 -0.73 s-0.84334 -0.53 -1.15 -0.85 s-0.54 -0.69334 -0.7 -1.12 s-0.24 -0.95332 -0.24 -1.58 c0 -1.3867 0.35334 -2.4266 1.06 -3.12 s1.7067 -1.04 3 -1.04 c1.1333 0 2.03 0.35334 2.69 1.06 s0.99 1.74 0.99 3.1 l0 1.42 l-1.76 0 l0 -1.52 c0 -0.72 -0.15666 -1.3 -0.47 -1.74 s-0.81 -0.66 -1.49 -0.66 c-0.84 0 -1.4333 0.22 -1.78 0.66 s-0.50666 1.06 -0.48 1.86 c0.01334 0.33334 0.07 0.62 0.17 0.86 s0.24334 0.45 0.43 0.63 s0.41332 0.34666 0.67998 0.5 s0.58 0.31 0.94 0.47 c0.44 0.2 0.87666 0.41334 1.31 0.64 s0.83668 0.5 1.21 0.82 c0.38666 0.34666 0.71332 0.76666 0.97998 1.26 s0.4 1.0933 0.4 1.8 c0 1.36 -0.34 2.3934 -1.02 3.1 s-1.6133 1.06 -2.8 1.06 z M30.72 6.82 l0 13.18 l-1.8 0 l0 -13.18 l-2.94 0 l0 -1.82 l7.68 0 l0 1.82 l-2.94 0 z M39.940000000000005 20 l-1.02 -4.18 l-3.88 0 l-1.02 4.18 l-1.7 0 l4 -15 l1.38 0 l3.98 15 l-1.74 0 z M37.040000000000006 7.9 l-1.58 6.22 l3.04 0 z M46.06 20.18 c-1.2133 0 -2.16 -0.35664 -2.84 -1.07 s-1.02 -1.7433 -1.02 -3.09 l0 -11.02 l1.74 0 l0 10.98 c0 0.28 0.03666 0.56666 0.11 0.86 s0.19 0.55334 0.35 0.78 s0.37334 0.41332 0.64 0.55998 s0.59332 0.22 0.97998 0.22 c0.44 0 0.80666 -0.06334 1.1 -0.19 s0.52668 -0.31 0.70002 -0.55 s0.29668 -0.52666 0.37002 -0.86 s0.11 -0.7 0.11 -1.1 l0 -10.7 l1.72 0 l0 11.02 c0 1.3733 -0.32666 2.41 -0.98 3.11 s-1.6467 1.05 -2.98 1.05 z M58.72 20 l-3 -5.9 l-2.18 0 l0 5.9 l-1.66 0 l0 -15 l3.48 0 c0.78666 0 1.46 0.12334 2.02 0.37 s1.02 0.58 1.38 1 s0.62666 0.9 0.8 1.44 s0.26 1.1033 0.26 1.69 c0 0.46666 -0.05666 0.92 -0.17 1.36 s-0.27668 0.84666 -0.49002 1.22 s-0.46334 0.71 -0.75 1.01 s-0.59666 0.53666 -0.93 0.71 l3.34 6.2 l-2.1 0 z M55.24 6.66 l-1.7 0.000019531 l0 5.7 l1.82 0 c0.54666 0 0.99666 -0.08334 1.35 -0.25 s0.63 -0.38666 0.83 -0.66 s0.34 -0.58668 0.42 -0.94002 s0.12 -0.72334 0.12 -1.11 s-0.06334 -0.74666 -0.19 -1.08 s-0.31 -0.62334 -0.55 -0.87 s-0.53666 -0.44 -0.89 -0.58 s-0.75668 -0.21 -1.21 -0.21 z M68.9 20 l-1.02 -4.18 l-3.88 0 l-1.02 4.18 l-1.7 0 l4 -15 l1.38 0 l3.98 15 l-1.74 0 z M66 7.9 l-1.58 6.22 l3.04 0 z M78.10000000000001 20 l-4.64 -10.76 l0 10.76 l-1.76 0 l0 -15 l1.68 0 l4.68 10.34 l0.1 -10.34 l1.74 0 l0 15 l-1.8 0 z M85.9 6.82 l0 13.18 l-1.8 0 l0 -13.18 l-2.94 0 l0 -1.82 l7.68 0 l0 1.82 l-2.94 0 z"></path></g></svg>