<svg id="Vtwg9q8ih" viewBox="0 0 369.5454545454545 89.82981356820734" height="89.82981356820734" width="369.5454545454545" style="width: 369.545px; height: 89.8298px; position: absolute; top: 50%; left: 50%; transform: translate(-50%, -50%) scale(0.511845); z-index: 0; cursor: pointer; overflow: visible;"><defs id="SvgjsDefs1536"></defs><g id="SvgjsG1537" featurekey="symbolFeature-0" transform="matrix(1.0626723138326484,0,0,1.0626723138326484,-1.0657357888244539,-8.54494441091738)" fill="#ffd6b6"><g xmlns="http://www.w3.org/2000/svg"><g><path fill="#ffd6b6" d="M61.796,31.233c0.24-1.163-3.086-4.209-6.512-4.913c-3.425-0.705-6.395-0.332-6.634,0.83    c-0.239,1.162,2.344,2.676,5.769,3.38C57.846,31.235,61.559,32.396,61.796,31.233z M69.664,46.394    c-0.936,0.926,0.518,3.908,3.24,6.66c2.725,2.754,4.967,5.631,5.9,4.707c0.937-0.924,0.209-5.303-2.519-8.055    C73.564,46.952,70.598,45.468,69.664,46.394z M58.688,38.791c-2.976-2.481-6.067-3.674-6.912-2.665    c-0.84,1.01,0.889,3.84,3.861,6.32c2.975,2.48,7.342,2.554,8.187,1.545C64.664,42.98,61.661,41.271,58.688,38.791z M38.457,30.02    c-3.865-0.255-7.069,0.602-7.155,1.914c-0.086,1.312,2.976,2.583,6.841,2.838c3.865,0.256,7.068-0.602,7.155-1.913    C45.385,31.546,42.322,30.275,38.457,30.02z M95.51,83.817l-1.517,0.062l1.515-0.094c-0.146-2.334-0.203-5.152-1.226-9.117    c-1.021-3.969-2.988-9.088-6.901-16.281c-0.009-0.016-0.02-0.031-0.027-0.049c-5.725-12.242-15.646-29.457-30.223-39.748    c0.11-0.737,0.186-1.562,0.186-2.443c-0.002-1.361-0.166-2.835-0.684-4.231c-0.511-1.385-1.435-2.738-2.929-3.546    c-0.138-0.074-0.282-0.126-0.437-0.157c-0.078-0.015-0.927-0.172-2.331-0.172C49.01,8.04,46.019,8.34,42.543,9.725    c-0.239-0.01-0.583-0.021-1.01-0.021c-2.319,0.026-7.078,0.236-10.745,2.775c-1.496,0.163-6.361,0.841-10.332,3.709    c-0.163-0.011-0.351-0.017-0.564-0.017c-1.883-0.002-5.73,0.499-11.7,3.485c-0.146,0.074-0.271,0.171-0.382,0.281    c-0.424,0.241-0.811,0.574-1.11,0.997c-0.673,0.93-0.99,2.153-0.992,3.674c0.005,2.137,0.625,4.931,2.183,8.719    c0.162,0.391,0.475,0.693,0.871,0.842c0.007,0.002,2.845,1.068,7.682,3.051c10.592,4.344,30.688,13.07,50.89,24.396    c0.012,0.131,0.029,0.26,0.029,0.395c0.002,3.5,0.352,6.324,0.869,8.363c0.265,1.025,0.562,1.85,0.941,2.527    c0.195,0.338,0.409,0.646,0.727,0.934c0.307,0.277,0.783,0.574,1.426,0.58c0.76,0.002,1.354-0.463,1.643-0.857    c0.452-0.612,0.633-1.247,0.801-2.053c0.154-0.807,0.248-1.781,0.276-2.977c0.026-1.293,0.308-2.217,0.593-2.697    c0.557,0.332,1.115,0.658,1.672,0.994c0.717,1.488,1.41,4.205,1.381,8.248v0.303c0,0,0,0.043,0,0.107    c0.002,1.846,0.302,3.553,0.785,4.908c0.25,0.68,0.533,1.271,0.938,1.795c0.393,0.484,0.979,1.062,1.988,1.092    c0.834,0.004,1.504-0.51,1.854-1c0.558-0.76,0.833-1.658,1.081-2.92c0.234-1.261,0.389-2.875,0.439-4.957    c0.014-0.568,0.066-1.057,0.14-1.438c0.224,0.459,0.474,1.104,0.685,1.934c0.449,1.67,0.832,4.07,1.004,7.241    c0.183,3.286,0.658,5.671,1.361,7.378c0.357,0.854,0.771,1.549,1.319,2.102c0.53,0.539,1.286,0.955,2.128,0.955h0.01    c0.803,0,1.512-0.373,2.01-0.844c1.459-1.453,2.058-3.805,2.099-6.975C95.529,84.454,95.523,84.139,95.51,83.817z M10.456,31.565    c-1.279-3.23-1.714-5.518-1.709-6.957c-0.002-1.098,0.246-1.668,0.408-1.883c0.172-0.209,0.203-0.177,0.285-0.191    c0.043-0.001,0.237,0.019,0.57,0.275c1.029,0.733,2.79,3.659,3.581,9.719c0.001,0.013,0.006,0.024,0.008,0.037    c0.003,0.022,0.004,0.045,0.009,0.067c0.01,0.049,0.026,0.098,0.041,0.146c0.003,0.009,0.003,0.021,0.007,0.03    c0.002,0.004,0.002,0.008,0.003,0.011C12.173,32.229,11.085,31.808,10.456,31.565z M16.28,29.759    c-0.626-3.868-1.593-6.291-2.723-7.879c-0.254-0.365-0.524-0.682-0.8-0.955c3.731-1.495,6.071-1.715,7.138-1.716    c0.279,0,0.472,0.015,0.582,0.027c0.053,0.006,0.087,0.011,0.102,0.013c0.444,0.093,0.906-0.017,1.261-0.3    c1.856-1.494,4.287-2.401,6.246-2.896c0.979-0.249,1.837-0.397,2.442-0.484c0.303-0.043,0.542-0.071,0.703-0.088    c0.159-0.016,0.224-0.02,0.224-0.021c0.295-0.021,0.585-0.13,0.821-0.31c2.584-2.037,7.142-2.438,9.261-2.411    c0.369,0,0.663,0.009,0.862,0.018c0.199,0.009,0.284,0.018,0.284,0.017c0.239,0.019,0.48-0.02,0.703-0.111    c3.18-1.319,5.888-1.585,7.555-1.585c0.588,0,1.047,0.033,1.347,0.063c0.065,0.008,0.124,0.015,0.174,0.021    c0.589,0.388,1.013,0.984,1.328,1.814c0.344,0.913,0.493,2.066,0.491,3.17c0.001,0.673-0.057,1.319-0.137,1.889    c-2.412,0.47-8.483,1.705-15.35,3.506C30.91,23.627,22.061,26.378,16.28,29.759z M18.286,34.696    c0.064,0.018,0.128,0.036,0.193,0.054c0.697,0.197,1.399,0.403,2.111,0.625c0.068,0.021,0.136,0.044,0.205,0.066    c0.684,0.215,1.375,0.44,2.07,0.679c0.112,0.038,0.225,0.075,0.336,0.114c0.725,0.249,1.456,0.511,2.192,0.78    c0.138,0.051,0.276,0.104,0.415,0.154c0.756,0.282,1.517,0.571,2.284,0.875c0.006,0.002,0.012,0.005,0.018,0.007    c0.765,0.303,1.537,0.619,2.311,0.942c0.134,0.055,0.266,0.11,0.4,0.167c0.756,0.318,1.516,0.644,2.278,0.979    c0.132,0.059,0.264,0.117,0.395,0.175c0.757,0.336,1.517,0.676,2.277,1.025c0.036,0.017,0.072,0.033,0.108,0.049    c0.781,0.358,1.563,0.729,2.346,1.103c0.156,0.075,0.312,0.147,0.467,0.224c0.762,0.366,1.526,0.738,2.29,1.115    c0.129,0.063,0.259,0.129,0.389,0.194c0.708,0.353,1.417,0.709,2.125,1.069c0.112,0.059,0.225,0.114,0.338,0.172    c0.753,0.386,1.505,0.776,2.256,1.17c0.185,0.098,0.37,0.194,0.555,0.292c0.739,0.391,1.477,0.784,2.213,1.182    c0.139,0.076,0.278,0.151,0.417,0.227c0.646,0.353,1.288,0.701,1.928,1.058c0.181,0.1,0.361,0.198,0.542,0.298    c0.7,0.389,1.397,0.777,2.091,1.171c0.223,0.125,0.439,0.25,0.66,0.373c0.654,0.373,1.311,0.746,1.958,1.121    c0.185,0.104,0.366,0.213,0.551,0.317c0.574,0.334,1.146,0.668,1.713,1c0.132,0.077,0.265,0.155,0.396,0.231    C42.667,45.077,27.348,38.427,18.286,34.696z M91.833,88.756c-0.149,0.344-0.31,0.578-0.418,0.697    c-0.052-0.053-0.119-0.133-0.194-0.244c-0.604-0.822-1.386-3.221-1.584-7.232c-0.224-4.062-0.762-7.01-1.466-9.061    c-0.356-1.025-0.747-1.832-1.241-2.477c-0.484-0.617-1.162-1.225-2.207-1.246h-0.021c-0.622,0-1.202,0.293-1.57,0.648    c-0.133,0.127-0.247,0.264-0.349,0.402c-0.102,0.131-0.186,0.271-0.264,0.414c-0.002,0.002-0.004,0.002-0.004,0.006    c-0.188,0.344-0.324,0.709-0.438,1.104c-0.201,0.732-0.31,1.578-0.335,2.557c-0.055,2.234-0.242,3.846-0.471,4.868    c-0.041-0.125-0.08-0.252-0.114-0.39c-0.257-0.908-0.431-2.092-0.431-3.321c0-0.009,0-0.037,0.002-0.087v-0.322    c-0.002-2.283-0.188-4.219-0.508-5.854c-0.002-0.002-0.002-0.004-0.002-0.006c-0.062-0.312-0.128-0.617-0.197-0.908    c-0.004-0.012-0.006-0.02-0.008-0.028c-0.068-0.278-0.143-0.552-0.22-0.812c-0.021-0.062-0.039-0.121-0.06-0.184    c-0.063-0.207-0.129-0.414-0.197-0.607c-0.096-0.264-0.193-0.516-0.299-0.756c-0.463-1.053-1.014-1.896-1.694-2.529    c-0.674-0.627-1.534-1.055-2.476-1.055c-0.168,0-0.332,0.014-0.49,0.039c-0.066,0.01-0.131,0.033-0.196,0.047    c-0.09,0.021-0.182,0.039-0.271,0.066c-0.118,0.039-0.233,0.09-0.348,0.143c-0.029,0.014-0.062,0.023-0.09,0.037    c-0.134,0.066-0.263,0.146-0.388,0.227c-0.005,0.007-0.013,0.009-0.017,0.013c-0.391,0.265-0.727,0.604-0.998,0.985    c0,0-0.002,0-0.002,0.003c-0.07,0.099-0.135,0.202-0.195,0.305c-0.018,0.031-0.038,0.06-0.057,0.089    c0,0.002-0.002,0.004-0.002,0.004c-0.639,1.1-0.968,2.489-1.012,4.164c-0.003,0.135-0.007,0.268-0.012,0.393    c-0.006-0.021-0.01-0.041-0.014-0.062c-0.285-1.398-0.498-3.232-0.562-5.418c-0.005-0.189-0.009-0.381-0.015-0.574    c-0.004-0.258-0.008-0.514-0.008-0.779c0.002-3.397-2.062-5.913-4.578-7.815l-0.131-0.09c-0.223-0.136-0.445-0.271-0.67-0.405    c-0.009-0.005-0.018-0.011-0.023-0.017c-1.438-0.871-2.911-1.753-4.406-2.635c-0.029-0.019-0.062-0.036-0.096-0.055    c-0.029-0.019-0.061-0.036-0.092-0.054c-0.842-0.496-1.692-0.992-2.553-1.486c-0.015-0.01-0.029-0.018-0.043-0.024    c-0.142-0.082-0.281-0.162-0.423-0.244c-0.003-0.002-0.006-0.004-0.009-0.006c-0.75-0.43-1.506-0.857-2.266-1.289    c-0.021-0.012-0.043-0.023-0.064-0.035c-0.143-0.081-0.283-0.161-0.426-0.241c-0.004-0.002-0.008-0.004-0.012-0.006    c-2.656-1.494-5.362-2.963-8.092-4.381c-0.005-0.003-0.009-0.006-0.014-0.009c-0.1-0.051-0.201-0.104-0.301-0.155l-0.006-0.002    c-0.859-0.446-1.721-0.887-2.583-1.319c-0.003-0.002-0.008-0.004-0.011-0.006c-0.067-0.034-0.134-0.067-0.201-0.102    c-0.006-0.002-0.012-0.006-0.018-0.009c-0.896-0.45-1.793-0.893-2.691-1.327c-0.001-0.001-0.002-0.002-0.003-0.002    c-0.018-0.009-0.036-0.017-0.055-0.025c-0.007-0.003-0.014-0.008-0.021-0.011c-0.565-0.273-1.13-0.543-1.695-0.811l-0.136-0.064    c-0.545-0.257-1.09-0.511-1.635-0.762c-0.035-0.016-0.071-0.032-0.106-0.049c-2.934-1.347-5.85-2.592-8.714-3.7    c-0.011-0.004-0.022-0.009-0.032-0.013c-3.196-1.234-6.326-2.299-9.336-3.134c5.297-2.803,13.405-5.374,20.604-7.25    c4.377-1.148,8.442-2.067,11.409-2.698c1.963-0.417,3.438-0.706,4.213-0.855c0.268,0.188,0.53,0.381,0.795,0.573    c5.119,3.708,9.678,8.383,13.668,13.406c-2.188-0.489-3.955-0.336-4.213,0.45c-0.312,0.95,1.705,2.465,4.508,3.384    c1.104,0.361,2.158,0.574,3.057,0.645c4.949,7.002,8.849,14.307,11.662,20.367c0.033,0.074,0.072,0.146,0.117,0.213    c2.082,3.834,3.572,7.022,4.649,9.729c0.198,0.496,0.384,0.977,0.554,1.439l0.024,0.068c0.522,1.426,0.925,2.702,1.235,3.857    c0.031,0.123,0.064,0.246,0.098,0.367c0.938,3.652,0.982,6.095,1.134,8.519c0.013,0.276,0.019,0.55,0.019,0.812    C92.496,86.545,92.195,87.942,91.833,88.756z"></path></g></g></g><g id="SvgjsG1538" featurekey="nameFeature-0" transform="matrix(1.5326500989945657,0,0,1.5326500989945657,118.41232820069567,-13.48833735200511)" fill="#ffd6b6"><path d="M12.383 19.531 q0.078125 0 0.078125 0.078125 l0.15625 -0.078125 l0.078125 0 q0.21484375 0 0.46875 0.15625 q0.15625 -0.078125 0.234375 -0.078125 l0.078125 0.15625 l0.15625 -0.078125 q1.0546875 0.3125 1.40625 0.859375 q0.3125 0.60546875 0.3125 0.78125 q0 0.41015625 -1.015625 3.515625 l0 0.15625 q0.078125 0 0.078125 0.078125 q-0.2734375 0 -0.46875 2.109375 q0.078125 0 0.078125 0.078125 q-0.15625 0.078125 -0.234375 0.078125 q0 0.078125 0.078125 0.078125 q-0.234375 0.9375 -0.859375 0.9375 q-0.078125 0 -0.078125 0.078125 l-0.39063 -0.078125 l-0.39063 0 l0 -0.15625 l-0.15625 0.078125 q0 -0.15625 -0.15625 -0.15625 q0 0.078125 -0.078125 0.078125 q-0.234375 -0.33203125 -0.234375 -0.46875 l-0.078125 0 l-0.15625 0.078125 l0 -0.3125 q0.3125 0 0.3125 -1.875 q0.078125 0 0.15625 -0.546875 l-0.078125 0 q0.17578125 -0.21484375 0.390625 -1.953125 l-0.078125 0 q-2.32421875 1.40625 -4.6875 3.828125 q-0.68359375 0.60546875 -1.40625 1.5625 q-0.1171875 0 -2.34375 2.421875 q-2.51953125 3.41796875 -2.578125 3.90625 l0 0.23438 l-0.15625 -0.078125 q0 0.2734375 -0.390625 1.09375 q0.078125 0 0.078125 0.078125 q-0.078125 0 -0.078125 0.078125 q0.078125 0 0.078125 0.078125 l-0.15625 0.078125 q0 1.171875 0.859375 1.171875 q0.6640625 0.078125 1.09375 0.078125 l0.3125 0 q2.0703125 0 6.015625 -2.734375 q0 -0.234375 1.171875 -1.015625 l0.15625 0.078125 l0.15625 -0.078125 l0 0.15625 q0 0.078125 -0.078125 0.078125 l0.078125 0.15625 l-0.23438 0.39063 q0.078125 0 0.078125 0.078125 q-0.15625 0.01953125 -0.15625 0.15625 l0 0.23438 l0.15625 0 q0 0.1171875 -0.234375 0.234375 l0.078125 0.15625 l-0.23438 0.3125 q0 0.15625 0.234375 0.15625 l0 0.078125 q-0.546875 0.44921875 -1.171875 1.171875 l-0.15625 0 l0 0.078125 l0.078125 0 q0.15625 -0.078125 0.234375 -0.078125 l0 0.15625 q-0.2734375 0 -1.953125 1.40625 l-1.7969 0.85938 q-0.15625 0 -0.15625 0.15625 q-0.078125 0 -0.078125 -0.078125 q-0.56640625 0.234375 -1.5625 0.234375 l-0.23438 0 q-4.19921875 0 -5.078125 -4.140625 q-0.09765625 0 -0.15625 -0.703125 l0.078125 -0.15625 q-0.078125 -0.15625 -0.078125 -0.234375 q0.09765625 -0.546875 0.234375 -0.546875 q0 -0.078125 -0.078125 -0.078125 q0 -0.25390625 0.9375 -1.953125 l0.078125 0 q0 0.078125 0.078125 0.078125 l-0.078125 -0.15625 q0.4296875 -0.87890625 0.78125 -1.09375 l0 0.078125 q0.2734375 -0.05859375 0.46875 -0.46875 l-0.078125 0 l-0.15625 0.078125 l0 -0.15625 q2.01171875 -2.48046875 3.671875 -4.140625 q1.640625 -1.6015625 1.640625 -1.640625 q0.17578125 -0.05859375 2.34375 -2.03125 q3.02734375 -2.3828125 4.765625 -3.203125 z M25.031275 13.75 l0.15625 0 q0.078125 0 0.078125 0.078125 q0.078125 0 0.078125 -0.078125 l0.39063 0.078125 q0.52734375 -0.078125 0.859375 -0.078125 q1.25 0.41015625 1.25 1.328125 q0 1.03515625 -1.796875 3.90625 q-0.078125 0 -0.078125 0.234375 q0.078125 0 0.078125 0.078125 q-0.33203125 0 -1.953125 3.359375 q-2.16796875 4.6875 -3.28125 8.046875 l0.078125 0 q-0.2734375 0.3515625 -0.46875 1.171875 l0.078125 0 q0.3125 -0.44921875 0.3125 -0.546875 l0.078125 0 l0 0.15625 l0.078125 0 q0 -0.21484375 0.234375 -0.3125 q0.17578125 -0.6640625 0.390625 -0.703125 q0 0.3125 0.15625 0.3125 q0 -0.3125 0.46875 -0.546875 q0.15625 -0.25390625 0.15625 -0.46875 q0 -0.078125 -0.078125 -0.078125 q0.078125 -0.13671875 0.078125 -0.234375 l0.15625 0 l-0.078125 0.15625 l0 0.078125 l0.078125 0 q0.17578125 -0.625 0.3125 -0.625 l0 0.15625 l0.15625 -0.078125 l0.078125 0 l0 0.15625 l0.078125 0 q0 -0.09765625 0.390625 -0.46875 l-0.078125 0 q0 0.1171875 -0.390625 0.3125 l0 -0.39063 l0.15625 0.078125 q0.21484375 0 0.625 -0.78125 l0 -0.078125 l0.078125 0 l0 0.15625 l0.078125 0 q0 -0.234375 0.15625 -0.234375 l0.15625 0.078125 q0.52734375 -0.8203125 1.25 -1.171875 q0 0.078125 0.078125 0.078125 q0.41015625 -0.72265625 1.25 -1.09375 q1.015625 -0.625 1.015625 -0.9375 l0.15625 0.078125 q0.29296875 0 1.953125 -1.015625 q0.390625 0 0.78125 -0.3125 l0 0.078125 l0.15625 -0.078125 q2.65625 0.15625 2.96875 0.703125 q0.13671875 0 0.625 0.234375 l-0.078125 0.15625 q0.390625 0.29296875 0.390625 0.9375 q-0.29296875 1.5234375 -1.25 3.75 q-0.87890625 1.484375 -2.109375 4.375 l-0.9375 2.2656 l-0.625 1.4844 q0 0.46875 -0.546875 0.703125 l0 0.078125 l-0.15625 -0.078125 l-0.15625 0.078125 l-0.39063 -0.23438 q-0.078125 0 -0.078125 0.078125 q-0.56640625 0 -1.171875 -1.71875 l-0.078125 -0.39063 q0 -0.078125 0.078125 -0.078125 l-0.078125 -0.39063 l0 -0.23438 q0.13671875 -0.25390625 0.390625 -1.640625 q0.1171875 -0.01953125 0.546875 -1.484375 l0.078125 0 l0 0.15625 l0.078125 0 l0 -0.078125 q-0.078125 -0.13671875 -0.078125 -0.3125 l0.3125 -0.15625 l-0.078125 -0.3125 l1.875 -4.1406 l0 -0.078125 q-0.8984375 0.52734375 -2.265625 1.484375 q0 -0.078125 -0.078125 -0.078125 q0 0.234375 -0.546875 0.625 q0 -0.078125 -0.078125 -0.078125 q0 0.1953125 -1.09375 1.171875 q-0.46875 0.33203125 -1.640625 1.71875 q-3.18359375 4.04296875 -4.609375 6.796875 q-1.7578125 2.6953125 -2.34375 3.4375 q-1.03515625 1.2109375 -1.5625 1.40625 l-0.15625 0 q-0.078125 0 -0.078125 -0.078125 q-0.3125 0.078125 -0.3125 0.15625 l-1.3281 -0.54688 q0 -0.25390625 -0.46875 -0.3125 q0 -0.625 -0.234375 -1.5625 q0 -0.2734375 2.65625 -8.28125 q3.90625 -11.54296875 7.265625 -17.109375 q-0.078125 0 -0.078125 -0.078125 q0.25390625 -0.1953125 1.25 -1.953125 q0.234375 0 0.234375 -0.234375 z M13.546875 40.9375 l0.078125 0 l0 0.70313 l-0.15625 -0.078125 q0.078125 -0.29296875 0.078125 -0.625 z M40.9804875 26.641 l0 0.078125 l-0.078125 0.15625 l0.078125 0 l0.23438 -0.3125 l0 -0.078125 z M38.4023475 29.844 q0 0.078125 -0.078125 0.234375 l0.078125 0 l0.078125 -0.15625 l0 -0.078125 l-0.078125 0 z M39.4960875 28.436999999999998 l-0.15625 0.23438 l0.078125 0 l0.15625 -0.23438 l-0.078125 0 z M40.7460875 26.953 l-0.39063 0.46875 l0 0.078125 q0.13671875 0 0.46875 -0.546875 l-0.078125 0 z M39.1054875 34.4531 q1.3671875 -0.91796875 2.421875 -2.265625 l2.5781 -2.7344 q2.51953125 -2.71484375 2.890625 -2.734375 q0 -0.17578125 1.5625 -1.484375 q0.078125 -0.4296875 0.078125 -0.703125 l0 -0.23438 l-0.23438 0 l-0.15625 0.078125 l0 -0.078125 q-1.328125 0.3515625 -1.328125 0.78125 q-0.44921875 0 -2.1875 1.5625 q-2.578125 2.4609375 -3.984375 4.375 q-1.640625 2.55859375 -1.640625 3.4375 z M39.7304875 28.047 l0 0.15625 q0.1171875 0 0.3125 -0.3125 l0 -0.078125 z M40.9804875 26.641 l0 -0.078125 q0.546875 -0.625 0.625 -0.625 l0 0.15625 l0.15625 -0.078125 l-0.078125 -0.15625 q0 -0.1171875 0.234375 -0.234375 l0 0.078125 l-0.078125 0.15625 l0.15625 0 q0 -0.13671875 0.859375 -0.9375 l-0.078125 0 q0.078125 -0.15625 0.078125 -0.234375 l0.078125 0 l0 0.15625 l0.078125 0 q0 -0.52734375 0.703125 -0.703125 l0.23438 -0.3125 l-0.078125 0 q0 0.1171875 -0.234375 0.234375 l-0.078125 0 l0.46875 -0.54688 q-0.078125 0 -0.078125 -0.078125 q0.234375 0 0.234375 -0.15625 l0.078125 0 l0.15625 0.078125 l0 -0.23438 l0.078125 0 l0 0.15625 l0.078125 0 l0 -0.23438 l0.078125 0 q0 0.078125 0.078125 0.234375 q0.15625 -0.078125 0.234375 -0.078125 l-0.078125 -0.15625 q0.859375 -0.33203125 0.859375 -0.46875 l0 -0.078125 q1.875 -0.1171875 1.875 -0.234375 l0.15625 0.078125 l0.46875 0 l0.15625 -0.078125 l0 0.078125 l0.15625 -0.078125 l0.46875 0 q0.95703125 0 2.1875 1.5625 l0.078125 0 l0.39063 -0.078125 l0 0.078125 l-0.078125 0.15625 l0.15625 0 q0.078125 0 0.078125 -0.078125 q0.703125 0.1171875 1.40625 1.171875 l0 0.23438 q-0.29296875 1.15234375 -2.890625 5.9375 q-2.265625 4.8046875 -2.265625 7.8125 l0 0.46875 q0 0.546875 0.234375 1.171875 q-0.078125 0.15625 -0.078125 0.234375 q0 0.13671875 0.15625 0.46875 q-0.1171875 0 -0.625 0.46875 l-0.078125 0 q-0.078125 0 -0.078125 -0.078125 l-0.15625 0.078125 q-0.25390625 -0.15625 -0.390625 -0.15625 q0 0.078125 -0.078125 0.078125 q-1.328125 -1.2109375 -1.640625 -2.734375 l0 -0.15625 l0.078125 -0.15625 l-0.078125 -0.46875 l0 -0.15625 l-0.15625 0 l0.078125 -0.15625 l0 -0.39063 q0 -1.8359375 0.46875 -2.96875 l-0.078125 -0.15625 q0.625 -2.109375 0.9375 -2.578125 l-0.078125 -0.15625 q0 -0.234375 0.390625 -1.015625 l-0.078125 0 q-1.15234375 1.0546875 -4.6875 5.078125 q-1.93359375 1.9921875 -2.734375 2.109375 q-1.5625 0 -2.34375 -1.5625 q-0.390625 -0.234375 -0.625 -1.875 l0 -0.078125 q0.29296875 -1.25 0.390625 -1.25 l0 -0.078125 l-0.078125 0 q0.72265625 -2.32421875 1.953125 -3.671875 l0 0.078125 l-0.15625 0.23438 l0.078125 0 l0.46875 -0.625 l-0.15625 0.078125 l-0.078125 0 l0 -0.078125 q0.46875 -0.7421875 0.859375 -1.015625 l0 -0.078125 q0.2734375 -0.44921875 1.25 -1.328125 z M36.6054875 32.2656 l0.23438 0 l0 0.15625 l-0.15625 -0.078125 l0 0.15625 l-0.078125 0 l0 -0.23438 z M37.3085975 31.1719 l0 0.078125 q-0.1171875 0.3125 -0.234375 0.3125 l0 -0.078125 q0.1171875 -0.3125 0.234375 -0.3125 z M37.4648475 30.8594 l0 0.23438 l-0.15625 0 l0 -0.078125 q0.01953125 -0.15625 0.15625 -0.15625 z M37.9335935 30.0781 l0 0.078125 q0 0.15625 -0.15625 0.15625 l0 -0.078125 q0.01953125 -0.15625 0.15625 -0.15625 z M38.3242175 29.531 l0 0.078125 q0 0.1171875 -0.234375 0.234375 l0 -0.078125 q0 -0.1171875 0.234375 -0.234375 z M38.8710975 29.141 l0 0.23438 l-0.15625 0 l0 -0.078125 q0.01953125 -0.15625 0.15625 -0.15625 z M38.7148475 28.984 l0 0.078125 q0 0.1171875 -0.234375 0.234375 l0 -0.078125 q0 -0.1171875 0.234375 -0.234375 z M39.1054875 28.436999999999998 l0 0.078125 q-0.09765625 0.3125 -0.390625 0.46875 l0 -0.078125 q0.29296875 -0.46875 0.390625 -0.46875 z M39.4179875 28.047 l0 0.078125 q-0.15625 0.1953125 -0.15625 0.3125 l-0.15625 0 q0.15625 -0.3515625 0.3125 -0.390625 z M41.0585875 26.25 l0 0.078125 q-1.171875 1.328125 -1.25 1.328125 l0 -0.078125 q1.03515625 -1.328125 1.25 -1.328125 z M42.3085875 25.234 l0.078125 0 q0 0.1171875 -0.234375 0.234375 l0 -0.078125 q0.01953125 -0.15625 0.15625 -0.15625 z M42.6210875 24.609 l0.078125 0 l0 0.15625 q-0.21484375 0 -1.09375 1.015625 l-0.3125 0.23438 l0 -0.078125 q1.2109375 -1.328125 1.328125 -1.328125 z M43.3241875 23.828 l0.078125 0 l0 0.23438 l-0.3125 0.23438 l0 -0.078125 q0.234375 -0.25390625 0.234375 -0.390625 z M65.75815625 21.914 l0.3125 0 q1.07421875 0 2.8125 0.78125 q0.78125 0.83984375 0.9375 1.640625 q-0.1171875 0.68359375 -1.40625 2.03125 l-5.4688 4.7656 q-4.39453125 3.96484375 -6.71875 6.796875 q-0.0390625 0.17578125 -1.71875 2.109375 q-1.09375 1.93359375 -1.09375 2.421875 q0.64453125 0 2.734375 -1.171875 l1.4844 -1.0156 q2.59765625 -1.81640625 4.453125 -3.59375 l0 -0.078125 q0.078125 0 0.078125 0.078125 q0.5078125 -0.390625 0.703125 -0.390625 q0 0.078125 0.078125 0.078125 l0 -0.15625 l0.078125 0 l0 0.23438 q-0.078125 0 -0.078125 0.078125 q0.3125 0 0.3125 0.15625 q-0.46875 0.99609375 -0.46875 1.09375 q0.078125 0.13671875 0.078125 0.3125 q-0.3125 0.3515625 -0.3125 0.390625 l0 0.078125 q0 0.078125 0.078125 0.078125 q-0.546875 0.87890625 -0.546875 1.015625 q-0.15625 0.01953125 -0.625 0.703125 l0.078125 0 q0.15625 -0.078125 0.234375 -0.078125 l0 0.078125 q-0.078125 0.3125 -1.171875 1.25 l0.078125 0.15625 q-0.95703125 1.15234375 -2.734375 2.265625 q-1.40625 0.64453125 -1.40625 0.859375 l-0.15625 -0.078125 q-0.15625 0.390625 -2.03125 0.546875 q-1.30859375 -0.1171875 -2.65625 -0.9375 q-1.328125 -2.1484375 -1.328125 -3.125 l0 -0.23438 q0 -0.99609375 0.703125 -2.109375 q0 -0.1171875 1.40625 -2.109375 q0.91796875 -1.30859375 1.5625 -1.953125 q1.66015625 -2.05078125 2.578125 -2.890625 q1.2109375 -1.328125 1.328125 -1.328125 q0 -0.078125 2.890625 -2.8125 l0.078125 -0.15625 l-0.078125 0 q0 0.25390625 -1.171875 0.46875 l-0.15625 0 q-0.91796875 -0.1953125 -1.484375 -1.171875 l0 -0.23438 q-0.15625 0 -0.15625 -0.390625 q0 -0.8203125 0.703125 -1.25 l0 -0.078125 l0.15625 0.078125 q0 -0.33203125 0.46875 -0.390625 l0 -0.15625 l0.078125 0 l0.15625 0.078125 l0 -0.078125 q-0.078125 0 -0.078125 -0.078125 q0.234375 0 0.234375 -0.15625 l0.15625 0.078125 l0.078125 0 q0.15625 -0.25390625 0.15625 -0.3125 l0.15625 0.078125 q0 -0.17578125 0.3125 -0.3125 q0 0.078125 0.078125 0.078125 q0 -0.1171875 0.234375 -0.234375 l0.15625 0.078125 q0 -0.234375 0.15625 -0.234375 q0 0.078125 0.078125 0.078125 q0 -0.13671875 0.15625 -0.234375 l0.15625 0.078125 l0.078125 0 q0 -0.1953125 0.3125 -0.234375 q0 0.078125 0.078125 0.078125 q0.0390625 -0.3125 0.234375 -0.3125 l0 0.078125 l0.46875 -0.23438 q0 0.078125 0.078125 0.078125 l0 -0.15625 l0.15625 0.078125 q0 -0.13671875 0.390625 -0.234375 l0 0.078125 q0.625 -0.3125 1.71875 -0.625 l0 0.078125 q0.60546875 -0.234375 0.78125 -0.234375 z M74.65626875 26.641 l0 0.078125 l-0.078125 0.15625 l0.078125 0 l0.23438 -0.3125 l0 -0.078125 z M72.07812875 29.844 q0 0.078125 -0.078125 0.234375 l0.078125 0 l0.078125 -0.15625 l0 -0.078125 l-0.078125 0 z M73.17186875 28.436999999999998 l-0.15625 0.23438 l0.078125 0 l0.15625 -0.23438 l-0.078125 0 z M74.42186875 26.953 l-0.39063 0.46875 l0 0.078125 q0.13671875 0 0.46875 -0.546875 l-0.078125 0 z M72.78126875 34.4531 q1.3671875 -0.91796875 2.421875 -2.265625 l2.5781 -2.7344 q2.51953125 -2.71484375 2.890625 -2.734375 q0 -0.17578125 1.5625 -1.484375 q0.078125 -0.4296875 0.078125 -0.703125 l0 -0.23438 l-0.23438 0 l-0.15625 0.078125 l0 -0.078125 q-1.328125 0.3515625 -1.328125 0.78125 q-0.44921875 0 -2.1875 1.5625 q-2.578125 2.4609375 -3.984375 4.375 q-1.640625 2.55859375 -1.640625 3.4375 z M73.40626875 28.047 l0 0.15625 q0.1171875 0 0.3125 -0.3125 l0 -0.078125 z M74.65626875 26.641 l0 -0.078125 q0.546875 -0.625 0.625 -0.625 l0 0.15625 l0.15625 -0.078125 l-0.078125 -0.15625 q0 -0.1171875 0.234375 -0.234375 l0 0.078125 l-0.078125 0.15625 l0.15625 0 q0 -0.13671875 0.859375 -0.9375 l-0.078125 0 q0.078125 -0.15625 0.078125 -0.234375 l0.078125 0 l0 0.15625 l0.078125 0 q0 -0.52734375 0.703125 -0.703125 l0.23438 -0.3125 l-0.078125 0 q0 0.1171875 -0.234375 0.234375 l-0.078125 0 l0.46875 -0.54688 q-0.078125 0 -0.078125 -0.078125 q0.234375 0 0.234375 -0.15625 l0.078125 0 l0.15625 0.078125 l0 -0.23438 l0.078125 0 l0 0.15625 l0.078125 0 l0 -0.23438 l0.078125 0 q0 0.078125 0.078125 0.234375 q0.15625 -0.078125 0.234375 -0.078125 l-0.078125 -0.15625 q0.859375 -0.33203125 0.859375 -0.46875 l0 -0.078125 q1.875 -0.1171875 1.875 -0.234375 l0.15625 0.078125 l0.46875 0 l0.15625 -0.078125 l0 0.078125 l0.15625 -0.078125 l0.46875 0 q0.95703125 0 2.1875 1.5625 l0.078125 0 l0.39063 -0.078125 l0 0.078125 l-0.078125 0.15625 l0.15625 0 q0.078125 0 0.078125 -0.078125 q0.703125 0.1171875 1.40625 1.171875 l0 0.23438 q-0.29296875 1.15234375 -2.890625 5.9375 q-2.265625 4.8046875 -2.265625 7.8125 l0 0.46875 q0 0.546875 0.234375 1.171875 q-0.078125 0.15625 -0.078125 0.234375 q0 0.13671875 0.15625 0.46875 q-0.1171875 0 -0.625 0.46875 l-0.078125 0 q-0.078125 0 -0.078125 -0.078125 l-0.15625 0.078125 q-0.25390625 -0.15625 -0.390625 -0.15625 q0 0.078125 -0.078125 0.078125 q-1.328125 -1.2109375 -1.640625 -2.734375 l0 -0.15625 l0.078125 -0.15625 l-0.078125 -0.46875 l0 -0.15625 l-0.15625 0 l0.078125 -0.15625 l0 -0.39063 q0 -1.8359375 0.46875 -2.96875 l-0.078125 -0.15625 q0.625 -2.109375 0.9375 -2.578125 l-0.078125 -0.15625 q0 -0.234375 0.390625 -1.015625 l-0.078125 0 q-1.15234375 1.0546875 -4.6875 5.078125 q-1.93359375 1.9921875 -2.734375 2.109375 q-1.5625 0 -2.34375 -1.5625 q-0.390625 -0.234375 -0.625 -1.875 l0 -0.078125 q0.29296875 -1.25 0.390625 -1.25 l0 -0.078125 l-0.078125 0 q0.72265625 -2.32421875 1.953125 -3.671875 l0 0.078125 l-0.15625 0.23438 l0.078125 0 l0.46875 -0.625 l-0.15625 0.078125 l-0.078125 0 l0 -0.078125 q0.46875 -0.7421875 0.859375 -1.015625 l0 -0.078125 q0.2734375 -0.44921875 1.25 -1.328125 z M70.28126875 32.2656 l0.23438 0 l0 0.15625 l-0.15625 -0.078125 l0 0.15625 l-0.078125 0 l0 -0.23438 z M70.98437875 31.1719 l0 0.078125 q-0.1171875 0.3125 -0.234375 0.3125 l0 -0.078125 q0.1171875 -0.3125 0.234375 -0.3125 z M71.14062875 30.8594 l0 0.23438 l-0.15625 0 l0 -0.078125 q0.01953125 -0.15625 0.15625 -0.15625 z M71.60937475 30.0781 l0 0.078125 q0 0.15625 -0.15625 0.15625 l0 -0.078125 q0.01953125 -0.15625 0.15625 -0.15625 z M71.99999875 29.531 l0 0.078125 q0 0.1171875 -0.234375 0.234375 l0 -0.078125 q0 -0.1171875 0.234375 -0.234375 z M72.54687875 29.141 l0 0.23438 l-0.15625 0 l0 -0.078125 q0.01953125 -0.15625 0.15625 -0.15625 z M72.39062875 28.984 l0 0.078125 q0 0.1171875 -0.234375 0.234375 l0 -0.078125 q0 -0.1171875 0.234375 -0.234375 z M72.78126875 28.436999999999998 l0 0.078125 q-0.09765625 0.3125 -0.390625 0.46875 l0 -0.078125 q0.29296875 -0.46875 0.390625 -0.46875 z M73.09376875 28.047 l0 0.078125 q-0.15625 0.1953125 -0.15625 0.3125 l-0.15625 0 q0.15625 -0.3515625 0.3125 -0.390625 z M74.73436875 26.25 l0 0.078125 q-1.171875 1.328125 -1.25 1.328125 l0 -0.078125 q1.03515625 -1.328125 1.25 -1.328125 z M75.98436875 25.234 l0.078125 0 q0 0.1171875 -0.234375 0.234375 l0 -0.078125 q0.01953125 -0.15625 0.15625 -0.15625 z M76.29686875 24.609 l0.078125 0 l0 0.15625 q-0.21484375 0 -1.09375 1.015625 l-0.3125 0.23438 l0 -0.078125 q1.2109375 -1.328125 1.328125 -1.328125 z M76.99996875 23.828 l0.078125 0 l0 0.23438 l-0.3125 0.23438 l0 -0.078125 q0.234375 -0.25390625 0.234375 -0.390625 z M97.0312375 13.672 q1.0546875 0.17578125 2.03125 1.015625 q0.3125 0.83984375 0.3125 1.09375 q-0.25390625 0.80078125 -0.859375 1.640625 q-0.60546875 0.91796875 -1.796875 3.046875 l0.078125 0.15625 l0 0.15625 l-0.15625 -0.078125 q-1.09375 1.8359375 -1.796875 3.984375 l0.078125 0 q0.41015625 0 0.625 -0.546875 l0.15625 0.078125 l1.0156 -0.78125 l0.078125 0 l0 0.3125 q0.078125 0 0.3125 -0.46875 q0.15625 -0.078125 0.234375 -0.078125 q-0.3125 0.3515625 -0.3125 0.390625 l0.078125 0 q1.11328125 -0.8984375 2.8125 -1.71875 q0.078125 -0.13671875 0.078125 -0.3125 l0.078125 0 l0 0.23438 q0.15625 0 0.15625 -0.234375 l0.15625 0.078125 l0 -0.3125 l0.078125 0 l0 0.15625 q0.15625 0 0.15625 -0.234375 q0.078125 0 0.078125 0.078125 l0.15625 -0.078125 l0.23438 0 q0.078125 0 0.078125 0.078125 q1.85546875 -0.78125 2.109375 -0.78125 l0 0.078125 l0.70313 -0.15625 l0 0.078125 l0.15625 -0.078125 l0.54688 0.078125 l0 -0.078125 q2.8125 0.7421875 2.8125 1.171875 q1.25 0.56640625 1.25 2.96875 q0 0.48828125 -0.46875 1.328125 q0.078125 0 0.078125 0.078125 q-0.1953125 0 -0.234375 0.390625 l-2.4219 3.8281 l-0.15625 -0.078125 l-0.078125 0 q0.078125 0.15625 0.078125 0.234375 l0 0.078125 l-0.078125 0 l0 -0.15625 q-0.546875 0.390625 -0.546875 0.546875 l-0.3125 0.39063 q0.078125 0.15625 0.078125 0.234375 l-0.078125 0 l-0.15625 -0.078125 q-0.078125 0.1171875 -0.078125 0.46875 l-0.078125 0 l0 -0.15625 l-0.15625 0 q0 0.25390625 -1.09375 1.328125 q-0.72265625 0.703125 -0.859375 0.703125 q0 -0.078125 -0.078125 -0.078125 q0 0.0390625 -0.15625 0.234375 l0.078125 0 q0.01953125 -0.15625 0.15625 -0.15625 l0 0.078125 q0 0.09765625 -0.390625 0.3125 q0 -0.078125 -0.078125 -0.078125 q0 0.17578125 -0.859375 0.78125 l0.15625 -0.078125 l0.078125 0 q0 0.15625 -0.15625 0.15625 l-0.078125 0 l-0.15625 -0.078125 l-0.078125 0.15625 l0.15625 0 q0 0.15625 -0.15625 0.15625 q-0.15625 -0.078125 -0.234375 -0.078125 q-2.32421875 1.6796875 -4.296875 2.5 l-0.15625 -0.078125 q-0.3515625 0.3125 -0.546875 0.3125 l0.078125 -0.15625 q-0.05859375 0 -1.5625 0.546875 l-0.39063 -0.078125 l-0.3125 0.078125 q-0.15625 -0.078125 -0.234375 -0.078125 l-0.15625 0.078125 q-1.015625 -0.09765625 -1.25 -0.3125 l-0.39063 0 q0 -0.234375 -0.15625 -0.234375 l-0.15625 0 q-0.29296875 0.33203125 -0.78125 2.03125 q-0.37109375 0.3125 -0.625 0.3125 l0 -0.078125 l-0.15625 0.078125 l-0.078125 0 l-0.15625 -0.078125 q0 0.078125 -0.078125 0.078125 q0 -0.21484375 -0.546875 -0.3125 q0 -0.25390625 -0.46875 -0.3125 l-0.46875 -0.78125 q-0.078125 0 -0.078125 -0.078125 l0 -0.23438 q0 -0.078125 0.078125 -0.078125 q-0.078125 -0.41015625 -0.3125 -0.625 l-0.078125 -0.46875 q0.9375 -1.9921875 1.640625 -4.21875 l-0.078125 0 l0.39063 -1.0156 l-0.078125 0 q0.15625 -0.25390625 0.15625 -0.46875 l-0.078125 -0.15625 q0.3515625 -0.37109375 1.328125 -4.21875 l0.54688 -1.4844 q-0.078125 0 -0.078125 -0.078125 q0.13671875 -0.05859375 0.859375 -2.421875 q1.640625 -4.39453125 3.203125 -6.5625 q1.0546875 -1.6015625 2.109375 -2.8125 z M92.1875375 34.0625 l0.078125 0 q-0.3125 0.33203125 -1.015625 1.953125 l0.078125 0 l-0.078125 0.15625 l0 0.15625 q0.37109375 -0.15625 0.703125 -0.15625 q0 0.078125 0.078125 0.078125 q0 -0.234375 0.390625 -0.234375 q0 0.078125 0.078125 0.078125 q0 -0.05859375 0.234375 -0.234375 l0.15625 0.078125 l0.15625 0 l-0.078125 -0.15625 q0.5078125 0 1.328125 -0.390625 l0 0.078125 q1.26953125 -0.56640625 2.1875 -1.171875 q0 -0.078125 0.3125 -0.078125 l0 0.078125 q0.546875 -0.2734375 0.546875 -0.390625 q-0.25390625 0.15625 -0.390625 0.15625 l0 -0.15625 l1.0938 -0.625 q-0.625 0.52734375 -0.625 0.625 l0.078125 0 q1.6796875 -1.26953125 2.5 -2.109375 l0 -0.078125 l-0.23438 0.15625 l-0.078125 0 q0 -0.09765625 1.40625 -1.40625 q1.5234375 -1.7578125 2.578125 -3.359375 q1.796875 -3.0859375 1.796875 -3.828125 q0.078125 0 0.078125 -0.15625 l-0.15625 -0.078125 q-3.22265625 0.3515625 -7.65625 3.671875 q-2.8125 2.75390625 -3.984375 4.84375 q-0.2734375 0.3515625 -1.5625 2.5 z M99.6879375 31.875 l0 0.15625 q-0.09765625 0 -0.390625 0.234375 l0 -0.078125 q0.0390625 -0.15625 0.390625 -0.3125 z M98.9839375 32.4219 l0.078125 0.15625 l-0.9375 0.70313 l-0.078125 0 l0 -0.078125 q0 -0.078125 0.9375 -0.78125 z M113.8594125 40 q-1.2890625 -1.328125 -1.2890625 -2.67578125 l0 -0.19531 q0 -0.5078125 -0.1953125 -0.5078125 q0.01953125 -0.1171875 0.09765625 -0.1171875 q-0.17578125 -1.50390625 -0.17578125 -2.65625 q0 -0.44921875 0.01953125 -0.859375 q0.1953125 -3.8671875 4.2578125 -12.890625 q2.96875 -6.97265625 4.00390625 -9.2578125 l-0.058594 -0.25391 l0.039063 -0.50781 q0.25390625 0 0.4296875 -0.625 l0.3125 0 l0.15625 0.11719 l0 -0.11719 l0.37109 0.25391 l0.48828 -0.13672 q0 0.234375 0.859375 1.015625 q0.48828125 1.40625 0.48828125 1.9140625 l-0.039063 0.58594 q-0.078125 1.23046875 -1.796875 4.62890625 q-0.4296875 0.5078125 -0.99609375 2.01171875 q-0.05859375 0 -3.046875 6.62109375 q-0.1953125 0.13671875 -1.30859375 3.0078125 q-1.6796875 4.0234375 -1.8359375 6.26953125 l-0.019531 0.11719 q0.37109375 0 1.23046875 -0.87890625 l0.46875 0 l0 0.11719 q0 0.21484375 0.05859375 0.390625 q-0.37109375 0 -0.56640625 1.25 q0.05859375 0.234375 0.05859375 0.37109375 q-0.1171875 0 -0.4296875 0.625 l0 0.039063 q0 0.21484375 0.21484375 0.21484375 q-0.01953125 0.25390625 -0.25390625 0.25390625 l0.058594 0.25391 q-0.15625 0.0390625 -0.17578125 0.234375 l0.058594 0.25391 q-0.64453125 1.1328125 -1.484375 1.1328125 z M129.2617 16.562 l0.078125 0 l0.625 0.3125 q0.13671875 -0.078125 0.3125 -0.078125 l0.625 0.39063 l0.15625 -0.078125 q0.7421875 1.07421875 0.78125 1.484375 q-0.1953125 0.625 -0.703125 0.625 q-0.41015625 -0.0390625 -1.25 -0.625 q-0.2734375 0 -0.625 -1.25 q-0.05859375 0 -0.234375 -0.234375 z M126.9961 22.969 l0.078125 0 l0 0.15625 q0.078125 0 0.078125 -0.078125 q2.1875 0.60546875 2.1875 1.796875 q0.078125 0 0.078125 0.46875 q-3.02734375 4.82421875 -4.84375 8.59375 q0 0.17578125 -0.703125 1.5625 q-0.859375 2.91015625 -0.859375 2.96875 q0.3125 0.64453125 0.390625 1.171875 q-0.1171875 0 -0.234375 0.3125 l-0.15625 -0.078125 l-0.23438 0 l0 0.15625 q-1.015625 -0.29296875 -1.015625 -0.703125 q-0.078125 0 -0.078125 0.078125 q-1.09375 -0.83984375 -1.09375 -2.265625 q-0.13671875 0 -0.15625 -0.9375 q0 -2.109375 2.65625 -7.1875 q1.69921875 -3.2421875 3.359375 -5.3125 z M146.3833125 13.594000000000001 q0.64453125 0 1.640625 0.859375 q0.46875 0.5859375 0.46875 1.09375 l0 0.39063 q0 0.48828125 -1.09375 1.40625 q0 0.09765625 -1.25 1.484375 q-0.99609375 0.8984375 -1.5625 1.71875 l0 0.15625 q0.15625 0 0.15625 -0.078125 l0.54688 0.078125 l0.46875 0 l0.15625 0.078125 l0 -0.078125 l0.15625 0.078125 q0.078125 0 0.078125 -0.078125 q0.46875 0.15625 2.03125 0.15625 q0.078125 0 0.078125 0.078125 q0.078125 0 0.078125 -0.078125 q1.69921875 0.15625 3.28125 0.15625 q0.13671875 0.078125 0.234375 0.078125 q0 -0.078125 0.078125 -0.078125 l0 0.078125 q0.078125 0 0.078125 -0.078125 l1.0156 0.15625 l0 0.078125 l-0.39063 0.078125 l0 0.078125 l0.39063 0 l0 0.15625 q-0.44921875 0 -1.640625 0.625 q-0.29296875 0 -0.46875 0.15625 l0 -0.078125 q-0.234375 0.078125 -0.234375 0.15625 l0 0.23438 q-0.09765625 0 -0.234375 0.078125 q0 -0.078125 -0.078125 -0.078125 q0 0.078125 -0.078125 0.078125 q0 -0.078125 -0.078125 -0.078125 q-0.078125 0.13671875 -0.078125 0.234375 l-1.1719 0 l0.078125 0.15625 q-2.109375 0.078125 -2.109375 0.234375 l-0.15625 -0.078125 l-0.15625 0 q-0.078125 0 -0.078125 0.078125 l-0.15625 -0.078125 l-1.1719 0 q-0.078125 0 -0.078125 0.078125 q-0.078125 0 -0.078125 -0.078125 q-0.78125 0.078125 -1.171875 0.078125 l-1.0938 0 l-0.15625 0.078125 l0 -0.078125 q-0.3125 0.0390625 -1.40625 2.03125 q0 0.2734375 -0.390625 0.78125 l0.078125 0.15625 l0 0.078125 q-0.3515625 0 -0.625 0.9375 q-0.1953125 0.13671875 -1.09375 2.265625 q-0.7421875 1.5625 -1.015625 2.65625 l-0.3125 1.0156 l0.078125 0 q-0.3125 0.29296875 -1.328125 4.921875 q-0.3125 0.625 -0.546875 2.1875 q-0.21484375 0.390625 -0.546875 1.328125 q-0.1171875 0 -0.234375 0.390625 q-0.15625 0 -0.546875 0.3125 l-0.15625 0 l0 -0.15625 l-0.15625 0 l0 0.15625 l-0.078125 0 q0 -0.234375 -0.078125 -0.234375 l-0.39063 0.078125 q-0.546875 -1.25 -0.546875 -1.484375 q0.625 -4.98046875 2.03125 -9.6875 q0.9375 -3.0859375 1.71875 -4.6875 q-0.078125 0 -0.078125 -0.078125 q0.09765625 0 1.25 -2.421875 l0.15625 -0.078125 l-0.078125 -0.15625 l0.078125 -0.15625 l-0.078125 0 l0 0.078125 q-0.078125 0 -0.078125 -0.078125 q-0.91796875 0.15625 -1.875 0.15625 l0 -0.078125 q-0.3515625 0.15625 -1.015625 0.15625 l-0.46875 0 q-0.44921875 -0.46875 -0.625 -0.46875 q-0.13671875 -0.234375 -0.3125 -0.9375 q0 -0.078125 0.078125 -0.078125 l-0.078125 -0.39063 l0.078125 -0.39063 q-0.1171875 0 -0.234375 -0.234375 l0 -0.15625 q0.15625 0 0.15625 -0.078125 l0.54688 0.078125 l0.3125 0 l0.39063 -0.078125 l0 0.078125 l0.70313 -0.15625 l0 0.078125 q1.09375 -0.234375 3.515625 -0.234375 l0.39063 0 q0.52734375 0 1.015625 -1.09375 q0.17578125 0 1.015625 -1.25 q2.01171875 -2.34375 2.1875 -2.34375 q0.390625 -0.5859375 1.875 -1.796875 q0 -0.1953125 0.46875 -0.625 z M151.5898625 26.641 l0 0.078125 l-0.078125 0.15625 l0.078125 0 l0.23438 -0.3125 l0 -0.078125 z M149.0117225 29.844 q0 0.078125 -0.078125 0.234375 l0.078125 0 l0.078125 -0.15625 l0 -0.078125 l-0.078125 0 z M150.1054625 28.436999999999998 l-0.15625 0.23438 l0.078125 0 l0.15625 -0.23438 l-0.078125 0 z M151.3554625 26.953 l-0.39063 0.46875 l0 0.078125 q0.13671875 0 0.46875 -0.546875 l-0.078125 0 z M149.7148625 34.4531 q1.3671875 -0.91796875 2.421875 -2.265625 l2.5781 -2.7344 q2.51953125 -2.71484375 2.890625 -2.734375 q0 -0.17578125 1.5625 -1.484375 q0.078125 -0.4296875 0.078125 -0.703125 l0 -0.23438 l-0.23438 0 l-0.15625 0.078125 l0 -0.078125 q-1.328125 0.3515625 -1.328125 0.78125 q-0.44921875 0 -2.1875 1.5625 q-2.578125 2.4609375 -3.984375 4.375 q-1.640625 2.55859375 -1.640625 3.4375 z M150.3398625 28.047 l0 0.15625 q0.1171875 0 0.3125 -0.3125 l0 -0.078125 z M151.5898625 26.641 l0 -0.078125 q0.546875 -0.625 0.625 -0.625 l0 0.15625 l0.15625 -0.078125 l-0.078125 -0.15625 q0 -0.1171875 0.234375 -0.234375 l0 0.078125 l-0.078125 0.15625 l0.15625 0 q0 -0.13671875 0.859375 -0.9375 l-0.078125 0 q0.078125 -0.15625 0.078125 -0.234375 l0.078125 0 l0 0.15625 l0.078125 0 q0 -0.52734375 0.703125 -0.703125 l0.23438 -0.3125 l-0.078125 0 q0 0.1171875 -0.234375 0.234375 l-0.078125 0 l0.46875 -0.54688 q-0.078125 0 -0.078125 -0.078125 q0.234375 0 0.234375 -0.15625 l0.078125 0 l0.15625 0.078125 l0 -0.23438 l0.078125 0 l0 0.15625 l0.078125 0 l0 -0.23438 l0.078125 0 q0 0.078125 0.078125 0.234375 q0.15625 -0.078125 0.234375 -0.078125 l-0.078125 -0.15625 q0.859375 -0.33203125 0.859375 -0.46875 l0 -0.078125 q1.875 -0.1171875 1.875 -0.234375 l0.15625 0.078125 l0.46875 0 l0.15625 -0.078125 l0 0.078125 l0.15625 -0.078125 l0.46875 0 q0.95703125 0 2.1875 1.5625 l0.078125 0 l0.39063 -0.078125 l0 0.078125 l-0.078125 0.15625 l0.15625 0 q0.078125 0 0.078125 -0.078125 q0.703125 0.1171875 1.40625 1.171875 l0 0.23438 q-0.29296875 1.15234375 -2.890625 5.9375 q-2.265625 4.8046875 -2.265625 7.8125 l0 0.46875 q0 0.546875 0.234375 1.171875 q-0.078125 0.15625 -0.078125 0.234375 q0 0.13671875 0.15625 0.46875 q-0.1171875 0 -0.625 0.46875 l-0.078125 0 q-0.078125 0 -0.078125 -0.078125 l-0.15625 0.078125 q-0.25390625 -0.15625 -0.390625 -0.15625 q0 0.078125 -0.078125 0.078125 q-1.328125 -1.2109375 -1.640625 -2.734375 l0 -0.15625 l0.078125 -0.15625 l-0.078125 -0.46875 l0 -0.15625 l-0.15625 0 l0.078125 -0.15625 l0 -0.39063 q0 -1.8359375 0.46875 -2.96875 l-0.078125 -0.15625 q0.625 -2.109375 0.9375 -2.578125 l-0.078125 -0.15625 q0 -0.234375 0.390625 -1.015625 l-0.078125 0 q-1.15234375 1.0546875 -4.6875 5.078125 q-1.93359375 1.9921875 -2.734375 2.109375 q-1.5625 0 -2.34375 -1.5625 q-0.390625 -0.234375 -0.625 -1.875 l0 -0.078125 q0.29296875 -1.25 0.390625 -1.25 l0 -0.078125 l-0.078125 0 q0.72265625 -2.32421875 1.953125 -3.671875 l0 0.078125 l-0.15625 0.23438 l0.078125 0 l0.46875 -0.625 l-0.15625 0.078125 l-0.078125 0 l0 -0.078125 q0.46875 -0.7421875 0.859375 -1.015625 l0 -0.078125 q0.2734375 -0.44921875 1.25 -1.328125 z M147.2148625 32.2656 l0.23438 0 l0 0.15625 l-0.15625 -0.078125 l0 0.15625 l-0.078125 0 l0 -0.23438 z M147.9179725 31.1719 l0 0.078125 q-0.1171875 0.3125 -0.234375 0.3125 l0 -0.078125 q0.1171875 -0.3125 0.234375 -0.3125 z M148.0742225 30.8594 l0 0.23438 l-0.15625 0 l0 -0.078125 q0.01953125 -0.15625 0.15625 -0.15625 z M148.5429685 30.0781 l0 0.078125 q0 0.15625 -0.15625 0.15625 l0 -0.078125 q0.01953125 -0.15625 0.15625 -0.15625 z M148.9335925 29.531 l0 0.078125 q0 0.1171875 -0.234375 0.234375 l0 -0.078125 q0 -0.1171875 0.234375 -0.234375 z M149.4804725 29.141 l0 0.23438 l-0.15625 0 l0 -0.078125 q0.01953125 -0.15625 0.15625 -0.15625 z M149.3242225 28.984 l0 0.078125 q0 0.1171875 -0.234375 0.234375 l0 -0.078125 q0 -0.1171875 0.234375 -0.234375 z M149.7148625 28.436999999999998 l0 0.078125 q-0.09765625 0.3125 -0.390625 0.46875 l0 -0.078125 q0.29296875 -0.46875 0.390625 -0.46875 z M150.0273625 28.047 l0 0.078125 q-0.15625 0.1953125 -0.15625 0.3125 l-0.15625 0 q0.15625 -0.3515625 0.3125 -0.390625 z M151.6679625 26.25 l0 0.078125 q-1.171875 1.328125 -1.25 1.328125 l0 -0.078125 q1.03515625 -1.328125 1.25 -1.328125 z M152.9179625 25.234 l0.078125 0 q0 0.1171875 -0.234375 0.234375 l0 -0.078125 q0.01953125 -0.15625 0.15625 -0.15625 z M153.2304625 24.609 l0.078125 0 l0 0.15625 q-0.21484375 0 -1.09375 1.015625 l-0.3125 0.23438 l0 -0.078125 q1.2109375 -1.328125 1.328125 -1.328125 z M153.9335625 23.828 l0.078125 0 l0 0.23438 l-0.3125 0.23438 l0 -0.078125 q0.234375 -0.25390625 0.234375 -0.390625 z"></path></g><g id="SvgjsG1539" featurekey="sloganFeature-0" transform="matrix(1.0959100363566676,0,0,1.0959100363566676,112.19447036963541,63.021776273104265)" fill="#ffd6b6"><path d="M3.88 15.9 l0 2.86 c0 0.44 -0.34 0.64 -0.66 0.64 c-0.34 0 -0.66 -0.2 -0.66 -0.64 l0 -10.74 c0 -0.4 0.22 -0.66 0.66 -0.66 l2.7 0 c0.76 0 3.16 0.22 3.16 2.92 l0 2.5 c0 1.52 -0.56 2.48 -1.84 2.9 l1.36 2.74 c0.28 0.54 -0.14 0.98 -0.58 0.98 c-0.24 0 -0.54 -0.16 -0.7 -0.5 l-1.46 -3 l-1.98 0 z M7.76 12.780000000000001 l0 -2.5 c0 -0.48 -0.18 -1.58 -1.84 -1.58 l-2.04 0 l0 5.86 l1.86 0 c0.98 0 2.02 -0.22 2.02 -1.78 z M19.892000000000003 18.7 l0 -10.64 c0 -0.46 0.36 -0.7 0.7 -0.7 l4.6 0 c0.44 0 0.66 0.32 0.66 0.66 s-0.22 0.68 -0.66 0.68 l-3.96 0 l0 3.88 l3.14 0 c0.46 0 0.68 0.32 0.68 0.66 s-0.24 0.7 -0.68 0.7 l-3.14 0 l0 4.14 l3.96 0 c0.42 0 0.64 0.34 0.64 0.66 c0 0.34 -0.22 0.66 -0.64 0.66 l-4.6 0 c-0.34 0 -0.7 -0.12 -0.7 -0.7 z M36.164 17.68 c-0.44 -0.82 0.68 -1.42 1.2 -0.6 c0.26 0.42 1.04 1.14 2.28 1.14 c0.52 0 1.82 -0.38 2 -1.86 c0.12 -0.9 -0.74 -1.78 -2.22 -2.52 c-2.08 -0.98 -3.66 -1.84 -3.66 -3.56 c0 -2.04 1.72 -3 3.56 -3 c1.66 0 2.58 1.02 2.9 1.54 c0.46 0.74 -0.54 1.46 -1.1 0.74 c-0.28 -0.36 -0.82 -0.96 -1.8 -0.96 c-1.1 0 -2.24 0.52 -2.24 1.68 c0 0.92 1.02 1.44 2.54 2.16 c1.78 0.88 3.64 1.74 3.36 4.08 c-0.22 1.84 -1.62 3.02 -3.34 3.02 c-1.3 0 -2.9 -0.7 -3.48 -1.86 z M53.076 7.359999999999999 l6.04 0 c0.42 0 0.62 0.34 0.62 0.68 s-0.2 0.66 -0.62 0.66 l-2.28 0 l0 10.06 c0 0.42 -0.34 0.64 -0.68 0.64 s-0.66 -0.22 -0.66 -0.64 l0 -10.06 l-2.42 0 c-0.42 0 -0.62 -0.32 -0.62 -0.66 s0.2 -0.68 0.62 -0.68 z M75.828 18.86 l-0.78 -2.54 l-3.72 0 l-0.74 2.5 c-0.26 0.86 -1.58 0.6 -1.3 -0.28 c1.04 -3.5 2.06 -7.06 3.08 -10.6 c0.12 -0.38 0.44 -0.58 0.76 -0.58 c0.3 0 0.62 0.2 0.74 0.58 l3.18 10.6 c0.22 0.76 -0.96 1.18 -1.22 0.32 z M73.16799999999999 10.06 l-1.44 4.92 l2.94 0 c-0.5 -1.68 -0.96 -3.12 -1.5 -4.92 z M87.38 15.86 l0 -7.86 c0 -0.42 0.34 -0.64 0.66 -0.64 c0.34 0 0.66 0.22 0.66 0.64 l0 7.86 c0 1.44 0.98 2.3 2.34 2.3 l0.5 0 c1.4 0 2.36 -0.98 2.36 -2.3 l0 -7.86 c0 -0.42 0.32 -0.64 0.66 -0.64 c0.32 0 0.66 0.22 0.66 0.64 l0 7.86 c0 2.06 -1.46 3.64 -3.68 3.64 l-0.5 0 c-2.22 0 -3.66 -1.54 -3.66 -3.64 z M107.41199999999999 15.9 l0 2.86 c0 0.44 -0.34 0.64 -0.66 0.64 c-0.34 0 -0.66 -0.2 -0.66 -0.64 l0 -10.74 c0 -0.4 0.22 -0.66 0.66 -0.66 l2.7 0 c0.76 0 3.16 0.22 3.16 2.92 l0 2.5 c0 1.52 -0.56 2.48 -1.84 2.9 l1.36 2.74 c0.28 0.54 -0.14 0.98 -0.58 0.98 c-0.24 0 -0.54 -0.16 -0.7 -0.5 l-1.46 -3 l-1.98 0 z M111.292 12.780000000000001 l0 -2.5 c0 -0.48 -0.18 -1.58 -1.84 -1.58 l-2.04 0 l0 5.86 l1.86 0 c0.98 0 2.02 -0.22 2.02 -1.78 z M129.324 18.86 l-0.78 -2.54 l-3.72 0 l-0.74 2.5 c-0.26 0.86 -1.58 0.6 -1.3 -0.28 c1.04 -3.5 2.06 -7.06 3.08 -10.6 c0.12 -0.38 0.44 -0.58 0.76 -0.58 c0.3 0 0.62 0.2 0.74 0.58 l3.18 10.6 c0.22 0.76 -0.96 1.18 -1.22 0.32 z M126.664 10.06 l-1.44 4.92 l2.94 0 c-0.5 -1.68 -0.96 -3.12 -1.5 -4.92 z M147.756 8 l0 10.76 c0 0.42 -0.32 0.64 -0.64 0.64 c-0.24 0 -0.56 -0.18 -0.7 -0.44 c-1.5 -2.94 -2.62 -5.2 -4.12 -8.16 l0 7.96 c0 0.42 -0.32 0.64 -0.66 0.64 c-0.32 0 -0.66 -0.22 -0.66 -0.64 l0 -10.76 c0 -0.7 1 -0.74 1.22 -0.32 l4.22 8.34 l0 -8.02 c0 -0.42 0.32 -0.64 0.66 -0.64 s0.68 0.22 0.68 0.64 z M158.488 7.359999999999999 l6.04 0 c0.42 0 0.62 0.34 0.62 0.68 s-0.2 0.66 -0.62 0.66 l-2.28 0 l0 10.06 c0 0.42 -0.34 0.64 -0.68 0.64 s-0.66 -0.22 -0.66 -0.64 l0 -10.06 l-2.42 0 c-0.42 0 -0.62 -0.32 -0.62 -0.66 s0.2 -0.68 0.62 -0.68 z"></path></g></svg>