<svg id="m3YYaWZx8" viewBox="0 0 430.2307692307692 131" height="131" width="430.2307692307692" style="width: 430.231px; height: 131px; position: absolute; top: 50%; left: 50%; transform: translate(-50%, -50%) scale(0.405829); z-index: 0; cursor: pointer; overflow: visible;"><defs id="SvgjsDefs1524"><linearGradient id="SvgjsLinearGradient1533"><stop id="SvgjsStop1534" stop-color="#fe8dc6" offset="0"></stop><stop id="SvgjsStop1535" stop-color="#fed1c7" offset="1"></stop></linearGradient></defs><g id="SvgjsG1525" featurekey="symbolContainer" transform="matrix(1,0,0,1,20,20)" fill="url(#SvgjsLinearGradient1533)"><rect width="121" height="111" rx="8"></rect></g><g id="SvgjsG1526" featurekey="symbolFeature-0" transform="matrix(0.8592471358428805,0,0,0.8592471358428805,37.42225859247136,32.42225859247136)" fill="#112d4e"><path xmlns="http://www.w3.org/2000/svg" d="M23.3,57l2.1-2.7c1.3-1.6,1.9-3.7,1.6-5.7c-0.7-4.8,1.4-11,6-16.3c6.7-7.8,16.1-10.6,21-6.4  c4.9,4.2,3.5,13.9-3.2,21.7C46.1,53,40.3,56,35.5,56.1c-2,0-4,0.9-5.4,2.4l-2.3,2.4c-1.4,1.5-2.7,3-4,4.6l-8.3,10.7  c3.6,5.3,8.5,9.8,14.1,13l9.5-10.1c1.4-1.5,2.7-3,4-4.6l1.5-1.9c1.5-2,2.1-4.6,1.2-6.9c-1.2-3.3-0.6-7.1,1.8-9.9l18.8-19.5l1.2,1  l-16.2,20l0.6,0.5l17.3-19.1l0.6,0.5l-16.2,20l0.6,0.5l17.3-19.1l0.6,0.5L56,61.3l0.6,0.5l17.3-19.1l0.6,0.5l-16.2,20l0.6,0.5  l17.3-19.1l0.6,0.5l-16.2,20l0.6,0.5l17.3-19l0.6,0.5l-16.2,20l0.6,0.5l17.3-19l1.2,1L65.4,71.1c-2.4,2.8-6.1,4-9.5,3.3  c-2.4-0.5-4.9,0.5-6.6,2.2l-1.7,1.8c-1.4,1.5-2.7,3-4,4.6l-7.3,9.4C40.9,94.1,45.9,95,51,95c23.7,0,43-19.3,43-43S74.7,9,51,9  S8,28.3,8,52c0,6.3,1.4,12.2,3.8,17.6l7.5-7.9C20.7,60.2,22,58.6,23.3,57z" style="fill: none;"></path><path xmlns="http://www.w3.org/2000/svg" d="M50,3C24.1,3,3,24.1,3,50c0,7.4,1.7,14.4,4.8,20.7c0.4,0.9,0.9,1.7,1.3,2.5c5.2,9.1,13.3,16.2,23,20.3  c0.2,0.1,0.4,0.2,0.7,0.3C38.1,95.8,43.9,97,50,97c25.9,0,47-21.1,47-47S75.9,3,50,3z M50,93c-5.1,0-10.1-0.9-14.6-2.6l7.3-9.4  c1.2-1.6,2.6-3.1,4-4.6l1.7-1.8c1.7-1.8,4.2-2.7,6.6-2.2c3.4,0.7,7.1-0.5,9.5-3.3l16.5-21.5l-1.2-1l-17.3,19l-0.6-0.5l16.2-20  l-0.6-0.5l-17.3,19l-0.6-0.5l16.2-20l-0.6-0.5L57.9,61.8l-0.6-0.5l16.2-20l-0.6-0.5L55.6,59.8L55,59.3l16.2-20l-0.6-0.5L53.3,57.8  l-0.6-0.5l16.2-20l-0.6-0.5L51,55.9l-0.6-0.5l16.2-20l-1.2-1L46.7,53.9c-2.4,2.8-3,6.6-1.8,9.9c0.8,2.3,0.3,4.9-1.2,6.9l-1.5,1.9  c-1.2,1.6-2.6,3.1-4,4.6l-9.5,10.1c-5.6-3.2-10.4-7.7-14.1-13l8.3-10.7c1.2-1.6,2.6-3.1,4-4.6l2.3-2.4c1.4-1.5,3.3-2.4,5.4-2.4  c4.8,0,10.6-3,15.2-8.3c6.7-7.8,8.1-17.5,3.2-21.7c-4.9-4.2-14.3-1.4-21,6.4c-4.6,5.3-6.7,11.5-6,16.3c0.3,2-0.3,4.1-1.6,5.7  L22.3,55c-1.2,1.6-2.6,3.1-4,4.6l-7.5,7.9C8.4,62.2,7,56.3,7,50C7,26.3,26.3,7,50,7s43,19.3,43,43S73.7,93,50,93z"></path></g><g id="SvgjsG1527" featurekey="nameFeature-0" transform="matrix(1.1380499896257428,0,0,1.1380499896257428,159.58881773067853,27.70757794452412)" fill="#ffffff"><path d="M20.12 20.44 l-5.96 0 c0 -2.04 -0.76 -2.8 -1.64 -2.8 l-3.64 0 c-0.92 0 -1.64 0.76 -1.64 1.64 l0 13.88 c0 0.88 0.72 1.64 1.64 1.64 l3.64 0 c0.88 0 1.64 -0.76 1.64 -1.64 l0 -1.16 l5.96 0 l0 1.16 c0 4.12 -3.48 7.6 -7.6 7.6 l-3.64 0 c-4.16 0 -7.64 -3.44 -7.64 -7.6 l0 -13.88 c0 -4.16 3.48 -7.6 7.64 -7.6 l3.64 0 c4.12 0 7.6 2.96 7.6 8.76 z M12.52 16.88 c1.28 -0.04 2.4 1.12 2.4 2.8 l4.44 0 c0 -4.12 -3.12 -7.24 -6.84 -7.24 l-3.64 0 c-3.72 0 -6.88 3.12 -6.88 6.84 l0 13.88 c0 3.72 3.16 6.84 6.88 6.84 l3.64 0 c3.72 0 6.84 -3.12 6.84 -6.84 l0 -0.4 l-4.44 0 l0 0.4 c0 1.28 -1.12 2.4 -2.4 2.4 l-3.64 0 c-1.28 0 -2.44 -1.08 -2.44 -2.4 l0 -13.88 c0 -1.32 1.16 -2.4 2.44 -2.4 l3.64 0 z M39.908 11.68 l5.96 0 l0 29.08 l-5.96 0 l0 -11.56 l-6.92 0 l0 11.56 l-6 0 l0 -29.08 l6 0 l0 11.56 l6.92 0 l0 -11.56 z M45.108000000000004 40 l0 -27.56 l-4.44 0 l0 11.56 l-8.44 0 l0 -11.56 l-4.44 0 l0 27.56 l4.44 0 l0 -11.56 l8.44 0 l0 11.56 l4.44 0 z M69.416 13.920000000000002 c1.44 1.44 2.24 3.32 2.24 5.36 l0 21.48 l-5.96 0 l0 -3.96 l-6.96 0 l0 3.96 l-5.96 0 l0 -21.48 c0 -2.04 0.8 -3.92 2.24 -5.36 s3.36 -2.24 5.4 -2.24 l3.64 0 c2 0 3.92 0.8 5.36 2.24 z M70.896 40 l0 -20.72 c0 -1.8 -0.72 -3.52 -2 -4.84 c-1.32 -1.28 -3.04 -2 -4.84 -2 l-3.64 0 c-1.84 0 -3.56 0.72 -4.84 2 c-1.32 1.32 -2.04 3.04 -2.04 4.84 l0 20.72 l4.44 0 l0 -3.96 l8.48 0 l0 3.96 l4.44 0 z M64.056 16.88 c0.64 0 1.24 0.24 1.68 0.72 c0.48 0.44 0.72 1.04 0.72 1.68 l0 12.32 l-8.48 0 l0 -12.32 c0 -0.64 0.28 -1.24 0.72 -1.68 c0.44 -0.48 1.08 -0.72 1.72 -0.72 l3.64 0 z M65.696 30.84 l0 -11.56 c0 -0.44 -0.2 -0.84 -0.48 -1.16 c-0.32 -0.32 -0.72 -0.48 -1.16 -0.48 l-3.64 0 c-0.44 0 -0.88 0.16 -1.16 0.48 c-0.32 0.32 -0.52 0.72 -0.52 1.16 l0 11.56 l6.96 0 z M85.204 34.84 l12 0 l0 5.88 l-18.6 0 l0 -6.88 l11.96 -15.92 l-11.96 0 l0 -5.88 l18.6 0 l0 6.88 z M96.444 39.96 l0 -4.36 l-12.76 0 l12.76 -16.96 l0 -5.84 l-17.12 0 l0 4.4 l12.76 0 l-12.76 16.92 l0 5.84 l17.12 0 z M120.752 13.920000000000002 c1.44 1.44 2.24 3.32 2.24 5.36 l0 21.48 l-5.96 0 l0 -3.96 l-6.96 0 l0 3.96 l-5.96 0 l0 -21.48 c0 -2.04 0.8 -3.92 2.24 -5.36 s3.36 -2.24 5.4 -2.24 l3.64 0 c2 0 3.92 0.8 5.36 2.24 z M122.232 40 l0 -20.72 c0 -1.8 -0.72 -3.52 -2 -4.84 c-1.32 -1.28 -3.04 -2 -4.84 -2 l-3.64 0 c-1.84 0 -3.56 0.72 -4.84 2 c-1.32 1.32 -2.04 3.04 -2.04 4.84 l0 20.72 l4.44 0 l0 -3.96 l8.48 0 l0 3.96 l4.44 0 z M115.392 16.88 c0.64 0 1.24 0.24 1.68 0.72 c0.48 0.44 0.72 1.04 0.72 1.68 l0 12.32 l-8.48 0 l0 -12.32 c0 -0.64 0.28 -1.24 0.72 -1.68 c0.44 -0.48 1.08 -0.72 1.72 -0.72 l3.64 0 z M117.032 30.84 l0 -11.56 c0 -0.44 -0.2 -0.84 -0.48 -1.16 c-0.32 -0.32 -0.72 -0.48 -1.16 -0.48 l-3.64 0 c-0.44 0 -0.88 0.16 -1.16 0.48 c-0.32 0.32 -0.52 0.72 -0.52 1.16 l0 11.56 l6.96 0 z M141.14 16.88 c0.64 0 1.28 0.24 1.72 0.72 c0.44 0.44 0.72 1.04 0.72 1.68 l0 2.32 c0 0.6 -0.28 1.24 -0.72 1.68 c-0.44 0.48 -1.08 0.72 -1.72 0.72 l-6.04 0 l0 -7.12 l6.04 0 z M142.82 21.6 l0 -2.32 c0 -0.44 -0.2 -0.84 -0.52 -1.16 c-0.28 -0.32 -0.72 -0.48 -1.16 -0.48 l-5.28 0 l0 5.6 l5.28 0 c0.44 0 0.88 -0.2 1.16 -0.48 c0.32 -0.32 0.52 -0.76 0.52 -1.16 z M141.14 28.439999999999998 c1.24 0 2.44 1.04 2.44 2.4 l0 2.32 c0 1.24 -1.08 2.4 -2.44 2.4 l-6.04 0 l0 -7.12 l6.04 0 z M142.82 33.16 l0 -2.32 c0 -0.84 -0.76 -1.64 -1.68 -1.64 l-5.28 0 l0 5.6 l5.28 0 c0.84 0 1.68 -0.72 1.68 -1.64 z M148.78 19.28 l0 2.32 c0 1.68 -0.56 3.28 -1.56 4.6 c1 1.36 1.56 2.96 1.56 4.64 l0 2.32 c0 2.04 -0.8 3.92 -2.24 5.36 s-3.36 2.24 -5.4 2.24 l-11.24 0 l0 -29.08 l11.24 0 c2.04 0 3.96 0.8 5.4 2.24 s2.24 3.32 2.24 5.36 z M148.01999999999998 21.6 l0 -2.32 c0 -1.8 -0.72 -3.52 -2 -4.84 c-1.32 -1.28 -3.04 -2 -4.88 -2 l-10.48 0 l0 27.56 l10.48 0 c1.84 0 3.56 -0.72 4.88 -2 c1.28 -1.32 2 -3.04 2 -4.84 l0 -2.32 c0 -1.52 -0.52 -2.96 -1.44 -4.16 l-0.36 -0.48 l0.36 -0.44 c0.92 -1.2 1.44 -2.64 1.44 -4.16 z M161.568 34.96 l12.8 0 l0 5.88 l-18.72 0 l0 -28.8 l5.92 0 l0 22.92 z M173.608 40.08 l0 -4.36 l-12.8 0 l0 -22.92 l-4.36 0 l0 27.28 l17.16 0 z M181.276 11.68 l5.96 0 l0 29.08 l-5.96 0 l0 -29.08 z M186.476 40 l0 -27.56 l-4.44 0 l0 27.56 l4.44 0 z M193.744 12.04 l18.68 0 l0 5.92 l-6.36 0 l0 22.88 l-5.92 0 l0 -22.88 l-6.4 0 l0 -5.92 z M211.664 17.2 l0 -4.4 l-17.12 0 l0 4.4 l6.36 0 l0 22.88 l4.4 0 l0 -22.88 l6.36 0 z M235.572 13.920000000000002 c1.44 1.44 2.24 3.32 2.24 5.36 l0 21.48 l-5.96 0 l0 -3.96 l-6.96 0 l0 3.96 l-5.96 0 l0 -21.48 c0 -2.04 0.8 -3.92 2.24 -5.36 s3.36 -2.24 5.4 -2.24 l3.64 0 c2 0 3.92 0.8 5.36 2.24 z M237.05200000000002 40 l0 -20.72 c0 -1.8 -0.72 -3.52 -2 -4.84 c-1.32 -1.28 -3.04 -2 -4.84 -2 l-3.64 0 c-1.84 0 -3.56 0.72 -4.84 2 c-1.32 1.32 -2.04 3.04 -2.04 4.84 l0 20.72 l4.44 0 l0 -3.96 l8.48 0 l0 3.96 l4.44 0 z M230.21200000000002 16.88 c0.64 0 1.24 0.24 1.68 0.72 c0.48 0.44 0.72 1.04 0.72 1.68 l0 12.32 l-8.48 0 l0 -12.32 c0 -0.64 0.28 -1.24 0.72 -1.68 c0.44 -0.48 1.08 -0.72 1.72 -0.72 l3.64 0 z M231.852 30.84 l0 -11.56 c0 -0.44 -0.2 -0.84 -0.48 -1.16 c-0.32 -0.32 -0.72 -0.48 -1.16 -0.48 l-3.64 0 c-0.44 0 -0.88 0.16 -1.16 0.48 c-0.32 0.32 -0.52 0.72 -0.52 1.16 l0 11.56 l6.96 0 z"></path></g><g id="SvgjsG1528" featurekey="sloganFeature-0" transform="matrix(1.8381828674330218,0,0,1.8381828674330218,160.63236410581166,73.70617699419175)" fill="#ffffff"><path d="M5.02 20.12 c-0.28 -0.02 -0.58 -0.12 -0.74 -0.34 c0.02 -0.04 0.04 -0.02 0.04 -0.08 s-0.5 -0.4 -0.5 -1.16 c0 -0.12 0 -0.12 0.1 -0.12 c0 -0.16 -0.06 -0.28 -0.06 -0.44 c0 -0.14 0.02 -0.22 0.02 -0.38 c0 -0.12 -0.06 -0.24 -0.06 -0.4 c0.02 -0.06 0.06 -0.2 0.06 -0.22 c-0.12 0 0 -0.34 -0.1 -0.32 l0 -0.34 l-0.08 -0.04 c0 -0.2 0.26 -0.42 0.26 -0.66 c0 -0.12 -0.1 -0.28 -0.1 -0.4 c0 -0.02 0.02 -0.2 0.02 -0.26 l-0.02 -0.16 c0 -0.18 0.02 -0.14 0.02 -0.24 c0 -0.06 -0.1 0 -0.1 -0.18 l0.04 -0.12 c0 -0.24 -0.24 -0.46 -0.24 -0.7 l0.08 0 c0 -0.08 -0.16 -0.36 -0.32 -0.36 c0 -0.38 -0.5 -0.5 -0.8 -0.5 c-0.28 0 -0.28 0.28 -0.28 0.5 c0 0.12 0.04 0.2 0.04 0.36 c0 0.08 -0.08 0.12 -0.08 0.2 s0.08 0.22 0.12 0.26 c-0.12 0.04 -0.04 0.24 -0.12 0.28 c0.04 0.12 -0.04 0.5 0.16 0.54 c-0.04 0.08 -0.16 0.08 -0.2 0.16 l0.08 0.08 c0 0.14 -0.08 0.34 -0.08 0.46 c0 0.16 0.08 0.34 0.08 0.54 l0.08 0 c0 0.28 -0.12 0.5 -0.12 0.74 c0 0.16 0.08 0.32 0.08 0.46 l-0.04 0.08 c-0.02 0 0.06 0 0.12 -0.08 l0.04 0.04 c-0.08 0.16 -0.16 0.32 -0.16 0.52 c0 0.06 0.08 0.1 0.08 0.18 c0 0.02 -0.02 0.1 -0.04 0.16 c0 -0.02 0 0.06 0.08 0.12 c0 0.12 -0.04 0.24 -0.04 0.34 c-0.02 0.02 0.04 0.1 0.08 0.16 c0 0.08 -0.08 0.32 -0.12 0.4 c0.26 0 0.78 0.38 0.78 0.72 c-0.14 0.12 -0.68 0.2 -0.7 0.24 l-0.16 -0.08 l-0.08 0.04 c-0.1 0.02 -0.18 -0.08 -0.28 -0.08 c-0.34 0 -0.6 0.08 -0.98 0.08 c-0.32 0 -0.68 -0.04 -0.68 -0.34 c0 -0.16 0.32 -0.32 0.46 -0.32 l0.12 0.08 c0.04 0 0.16 -0.04 0.2 -0.04 c0 -0.04 -0.02 -0.1 -0.02 -0.14 c0 -0.02 0.02 -0.04 0.06 -0.06 c0 -0.24 -0.08 -0.44 -0.08 -0.66 c0 -0.1 0.04 -0.5 0.12 -0.54 c-0.04 -0.04 -0.12 -0.2 -0.12 -0.24 c0 -0.06 0.08 -0.38 0.08 -0.46 l-0.08 -0.12 c-0.06 0.02 0.12 -0.14 0.12 -0.22 c-0.04 -0.06 -0.04 -0.1 -0.04 -0.16 l0.04 0 c0 -0.08 -0.12 -0.08 -0.12 -0.2 l0.04 -0.08 l-0.04 -0.08 c0 -0.3 0.08 0 0.12 -0.3 c-0.02 -0.02 -0.04 -0.14 -0.08 -0.2 c-0.02 0 0 -0.06 0.08 -0.08 c0 -0.22 -0.04 -0.34 -0.04 -0.5 s0.04 -0.3 0.04 -0.46 c0 -0.12 -0.04 -0.32 -0.12 -0.36 c0.08 -0.04 0.08 -0.04 0.08 -0.1 c0 -0.08 -0.04 -0.12 -0.04 -0.2 l0.08 0 c0 -0.16 -0.04 -0.32 -0.04 -0.48 c0 -0.08 -0.02 -0.26 0.04 -0.3 c0 -0.12 -0.08 -0.32 -0.12 -0.42 c-0.06 -0.06 0.08 0.16 0.08 -0.6 c0.02 0 -0.02 -0.04 -0.08 -0.06 c0 -0.16 0.08 -0.4 0.08 -0.56 c0 -0.1 0 -0.14 -0.12 -0.18 c0.04 -0.02 0.08 -0.14 0.12 -0.16 c0 -0.12 -0.04 -0.2 -0.04 -0.32 c0 -0.06 0.04 -0.06 0.04 -0.1 c0 -0.16 -0.12 -0.32 -0.12 -0.48 c0 -0.08 0.08 -0.14 0.08 -0.26 l-0.04 -0.08 c0.06 -0.06 0.12 -0.08 0.12 -0.24 c0.02 -0.22 -0.16 -0.64 -0.16 -0.9 c0.08 0 0.08 -0.12 0.08 -0.2 c0 -0.26 -0.04 -0.38 -0.04 -0.56 c0 -0.12 0.08 -0.24 0.08 -0.4 c0 -0.08 -0.08 -0.12 -0.08 -0.18 c0 -0.08 0.1 -0.14 0.1 -0.2 c0 -0.02 -0.06 -0.12 -0.14 -0.16 c0 -0.14 0.04 -0.28 0.04 -0.38 c0 -0.04 -0.04 -0.08 -0.04 -0.16 l0.04 -0.04 c-0.12 -0.24 -0.58 -0.24 -0.58 -0.46 c0 -0.24 0.22 -0.44 0.42 -0.44 c0.08 0.06 0.34 0.04 0.42 0.04 l0.04 -0.04 c0.2 -0.02 0.4 0.04 0.62 0.04 c0.12 0 0.24 -0.08 0.36 -0.12 l0.08 0.04 c0.14 0.02 0.32 -0.04 0.46 -0.04 c0.32 0 0.5 0.18 0.78 0.18 c0.84 0 1.02 0.74 1.52 1.14 c0.02 0.06 0 0.08 -0.04 0.16 c0.12 0.46 0.42 0.9 0.42 1.44 l-0.04 0.08 l0 1.2 c-0.04 0 -0.08 0.12 -0.08 0.16 c0.04 0.02 0.08 0.08 0.08 0.12 c0 0.12 -0.16 0.3 -0.2 0.42 c-0.14 0.66 -0.46 0.98 -0.96 1.4 c-0.04 0.04 -0.38 0.24 -0.38 0.3 c0 0.2 0.46 0.36 0.58 0.36 c0.08 0.2 0.52 0.74 0.54 0.86 l0.08 0.04 c-0.02 0.02 -0.02 0.06 -0.02 0.1 c0 0.06 0.04 0.16 0.14 0.16 l-0.08 0.12 c0 0.2 0.1 0.42 0.1 0.62 l-0.06 0.16 c0.06 0.3 0.06 0.8 0.06 0.96 c0 -0.02 0 0.06 -0.02 0.12 c0.02 -0.02 -0.02 0.04 0.06 0.08 c-0.1 0.04 -0.1 0.7 -0.1 0.82 c0 0.08 0.04 0.26 0.1 0.3 c-0.04 0.14 -0.04 0.16 -0.04 0.22 l0 0.14 l0.04 0 c0 0.12 -0.06 0.24 -0.06 0.34 c0 0.08 0.02 0.16 0.02 0.2 c0 0.2 -0.06 0.2 -0.1 0.36 l0.1 0.04 s0 0.06 -0.02 0.1 l0.02 0.08 l0 0.48 c0.16 0.18 0.16 0.26 0.44 0.26 c0.12 0 0.2 -0.54 0.3 -0.54 c0.2 0 0.24 0.38 0.24 0.46 c0 0.16 0 0.24 -0.04 0.4 l-0.08 -0.08 c-0.22 0.3 -0.66 0.5 -1.04 0.5 l0 -0.08 z M2.1 20 l-0.04 0.04 l0.04 0 l0 -0.04 z M2.3 19.42 c0.06 0.02 0.12 0.06 0.16 0.12 l0.04 -0.08 l-0.04 -0.04 l0.04 -0.08 c0.02 0 0 -0.06 -0.08 -0.08 c0 -0.04 -0.12 0.04 -0.12 0.16 z M2.22 12.780000000000001 c-0.02 0 -0.02 0.02 -0.02 0.04 s0 0.04 0.02 0.04 s0.04 -0.02 0.04 -0.04 s-0.02 -0.04 -0.04 -0.04 z M2.26 11.62 c0.06 0.06 0.04 0.48 0.04 0.74 c0.12 0 0.2 -0.04 0.26 -0.04 c0.08 0 0.12 0.04 0.16 0.04 c0.24 0 0.4 0 0.54 -0.16 c0.1 0 0.04 0.04 0.12 0.04 s0.32 -0.58 0.48 -0.62 c0 -0.24 0.02 -0.42 0.18 -0.62 c0 -0.28 -0.12 -0.72 -0.12 -1.12 c0 -0.22 0.16 -0.5 0.16 -0.74 c0 -0.08 -0.08 -0.12 -0.08 -0.2 c-0.02 -0.02 0.02 -0.08 0.04 -0.12 c0 -0.04 -0.04 -0.2 -0.04 -0.24 c-0.02 -0.04 0.04 -0.12 0.04 -0.18 c0 -0.2 -0.12 -0.36 -0.12 -0.48 c0 -0.14 0.04 -0.26 0.04 -0.42 c0 -0.4 -0.42 -0.96 -0.7 -0.86 l-0.04 0.08 c0 -0.1 -0.12 -0.12 -0.22 -0.12 c-0.44 0 -0.28 0.12 -0.4 0.12 c-0.1 -0.06 -0.18 -0.04 -0.18 -0.04 c0.02 0.02 0.04 0.02 0.04 0.08 l-0.16 0.08 l0 0.58 l-0.04 0.04 c0 0.04 0.02 0.08 0.04 0.12 l-0.04 0.16 c0 0.6 -0.04 0.76 0.16 1.2 c0.04 0 0.06 0.04 0.06 0.08 s-0.02 0.1 -0.02 0.12 c0 0.04 0 0.06 0.04 0.06 c0.08 0 0.04 0 0.06 -0.02 c0 0.04 -0.02 0.1 -0.02 0.14 c0 0.26 0.14 0.42 0.14 0.7 l-0.04 0.04 c-0.04 -0.26 -0.1 -0.54 -0.26 -0.78 l-0.04 0.12 c0.02 0 -0.02 0.02 0.04 0.08 c0 0.36 -0.06 0.36 -0.12 0.62 l0.08 0 c0 0.28 -0.12 0.62 -0.12 0.94 c0 0.12 0.12 0.26 0.12 0.34 c0 0.02 0 0.14 -0.08 0.24 z M3.62 11.96 c-0.02 0 -0.02 0.02 -0.02 0.04 s0 0.04 0.02 0.04 s0.04 -0.02 0.04 -0.04 s-0.02 -0.04 -0.04 -0.04 z M3.96 11.38 l0 0.04 l0.04 -0.04 l-0.04 0 z M4 9.76 c-0.02 0 -0.02 0.02 -0.02 0.04 s0 0.04 0.02 0.04 s0.04 -0.02 0.04 -0.04 s-0.02 -0.04 -0.04 -0.04 z M2.34 9.2 c-0.02 0 -0.02 0.02 -0.02 0.04 s0 0.04 0.02 0.04 s0.04 -0.02 0.04 -0.04 s-0.02 -0.04 -0.04 -0.04 z M2.3 9.18 c-0.02 0 -0.02 0.02 -0.02 0.02 c0 0.02 0 0.04 0.02 0.04 s0.04 -0.02 0.04 -0.04 c0 0 -0.02 -0.02 -0.04 -0.02 z M2.3 8.98 c-0.02 0 -0.02 0.02 -0.02 0.04 s0 0.04 0.02 0.04 s0.04 -0.02 0.04 -0.04 s-0.02 -0.04 -0.04 -0.04 z M2.26 8.86 c-0.02 0 -0.02 0.02 -0.02 0.04 s0 0.04 0.02 0.04 s0.04 -0.02 0.04 -0.04 s-0.02 -0.04 -0.04 -0.04 z M2.22 8.74 c-0.02 0 -0.02 0.02 -0.02 0.04 s0 0.04 0.02 0.04 s0.04 -0.02 0.04 -0.04 s-0.02 -0.04 -0.04 -0.04 z M2.56 6.5600000000000005 c0 0 -0.02 0.02 -0.02 0.04 s0.02 0.04 0.02 0.04 c0.02 0 0.04 -0.02 0.04 -0.04 s-0.02 -0.04 -0.04 -0.04 z M15.514000000000001 20 c-0.06 -0.02 -0.1 0 -0.16 0.04 l-0.12 -0.04 c-0.26 -0.04 -0.32 0.08 -0.46 0.08 c-0.12 0 -0.24 -0.04 -0.24 -0.16 c-0.04 0.04 -0.18 0.12 -0.22 0.12 c-0.2 0 -0.36 -0.08 -0.54 -0.08 c-0.2 0 -0.4 0.08 -0.64 0.08 c-0.06 0 -0.06 -0.12 -0.18 -0.12 c-0.02 0 -0.24 0.08 -0.24 0.12 l-0.5 0 c-0.04 0.04 -0.08 0.08 -0.12 0.08 c-0.1 0 -0.28 -0.12 -0.42 -0.12 l-0.04 0 c-0.08 -0.08 -0.2 -0.18 -0.2 -0.34 c0 -0.04 0.16 -0.28 0.16 -0.28 l0.08 0.04 l0 -0.12 c0.08 0.04 0.22 0.12 0.3 0.12 s0.08 -0.08 0.08 -0.16 c0.04 0 0.1 0.02 0.16 0.04 c0 -0.36 0 -0.34 -0.04 -0.5 c0.04 -0.1 0.04 -0.2 0.04 -0.24 c0 0.04 -0.04 0.04 -0.08 0.04 c-0.02 -0.02 0.02 -0.1 0.04 -0.14 c-0.02 0 0.04 -0.02 -0.04 -0.08 c0.08 -0.08 0.08 -0.08 0.08 -0.16 c0 -0.16 -0.08 -0.24 -0.08 -0.4 c0 -0.06 0.12 -0.1 0.12 -0.22 l-0.08 0 s-0.04 0 -0.12 -0.04 c0 -0.08 0.04 -0.24 0.12 -0.28 c0 -0.44 -0.08 -0.44 -0.08 -0.58 c0 -0.12 0.08 -0.34 0.08 -0.5 l-0.04 -0.08 l0.04 -0.08 c0.02 0.04 -0.02 -0.12 -0.08 -0.2 c0 -0.02 0.04 -0.06 0.08 -0.06 l-0.04 -0.04 c0 -0.12 0.04 -0.2 0.04 -0.32 s-0.08 -0.26 -0.08 -0.38 l0.04 -0.08 l-0.04 -0.08 c0 -0.1 0.04 -0.18 0.04 -0.28 s-0.08 -0.22 -0.08 -0.34 c0 -0.28 0.1 -0.44 0.1 -0.66 c0 -0.06 -0.02 -0.1 -0.06 -0.12 c0.08 0 0.12 0 0.12 -0.08 s-0.08 -0.12 -0.16 -0.12 l0.04 -0.04 c0 -0.3 0.08 -0.5 0.08 -0.74 c0 -0.02 -0.02 -0.08 -0.04 -0.1 c0 -0.04 0.08 -0.2 0.08 -0.24 c0.02 -0.12 -0.04 -0.3 -0.04 -0.34 c0 -0.24 0.1 -0.52 0.1 -0.5 c0 -0.04 -0.02 -0.08 -0.02 -0.1 l-0.04 0 c-0.04 0 -0.04 -0.14 -0.04 -0.18 c0 -0.16 0.08 -0.28 0.08 -0.4 c0 -0.08 -0.24 -0.54 -0.32 -0.58 c0.12 0 0.2 -0.08 0.2 -0.16 c-0.12 0 -0.16 0 -0.24 -0.08 l0.24 0 c0 -0.02 0.04 -0.1 0.08 -0.14 c0 -0.04 -0.04 -0.24 -0.04 -0.28 c0.02 -0.04 0.04 -0.1 0.08 -0.12 c0.04 -0.12 -0.12 -0.12 -0.12 -0.18 c0 -0.16 0.08 -0.28 0.08 -0.4 s-0.04 -0.16 -0.04 -0.22 c0 0 0.08 0 0.08 -0.04 c0 -0.08 -0.12 -0.16 -0.12 -0.24 s0.04 -0.12 0.04 -0.24 s-0.08 -0.12 -0.08 -0.22 l0.04 -0.08 c0 -0.12 0.02 -0.18 -0.08 -0.28 l0.04 -0.42 l0.04 -0.04 c0.04 -0.52 -0.66 -0.32 -0.66 -0.7 c0 -0.24 0.24 -0.36 0.46 -0.36 c0 0.04 0 0.12 0.04 0.12 c0.08 0 0.24 -0.04 0.28 -0.08 c0 0.04 0.04 0.08 0.08 0.12 c0.04 -0.04 0.14 -0.16 0.18 -0.16 s0.2 0.04 0.24 0.04 c0.1 0 0.14 -0.04 0.28 -0.04 c0.04 0 0.04 0.04 0.1 0.04 c0.06 -0.04 0.14 -0.14 0.16 -0.1 c0 0.02 0 0.06 -0.04 0.1 l0.12 0.04 c0.12 0 0.32 -0.12 0.42 -0.12 c0.04 0 0.2 0.04 0.2 0.08 l0.1 0 c0.22 0 0.32 0.12 0.52 0.12 c0.12 0 0.36 -0.12 0.5 -0.12 c0.12 0 0.2 0.04 0.32 0.04 l0.08 -0.04 l0.04 0.08 c0.08 0 0.08 -0.04 0.2 -0.04 c0.22 0 0.5 0.08 0.5 0.36 l-0.04 0 l0 0.38 l-0.08 0.04 l0.04 0.04 l0 0.2 c0 0.24 0.04 0.28 0.04 0.58 c0 0.12 -0.04 0.24 -0.08 0.34 c0 0.2 0.08 0.28 0.24 0.32 l0 0.04 s-0.08 -0.04 -0.12 -0.04 l-0.04 0.04 c-0.04 0.16 0.08 0.34 0.08 0.54 c0 0.08 -0.04 0.08 -0.04 0.12 s0.02 0.08 0.04 0.12 c0.02 -0.02 0 0.06 -0.08 0.12 l0.04 0.02 l-0.04 0.08 c0 0.04 0.12 0.2 0.16 0.2 c0 0.28 -0.12 0.38 -0.12 0.62 l0.04 0 c0 0.08 0.02 0.14 -0.04 0.2 c0.02 0.02 0.04 0.02 0.04 0.08 c0 0 -0.12 0.18 -0.16 0.18 l-0.28 0 c0 -0.18 -0.22 -0.1 -0.22 -0.26 c0 -0.06 0.06 -0.46 0.08 -0.46 c0 -0.04 -0.08 -0.2 -0.08 -0.24 c-0.06 0 -0.06 0.04 -0.08 0.08 l-0.04 -0.12 c-0.04 -0.12 0.12 -0.06 0.12 -0.2 c0 -0.16 -0.12 -0.16 -0.12 -0.26 l0.04 0 s-0.2 -0.62 -0.2 -0.82 c-0.04 -0.38 -0.34 -0.64 -0.34 -1 l0 -0.06 c-0.06 0.02 -0.14 0.06 -0.16 0.04 c0 -0.06 0.08 -0.1 0.12 -0.1 c-0.06 -0.06 -0.14 -0.22 -0.22 -0.22 c-0.02 0 -0.04 0 -0.06 0.02 c0.02 -0.04 0.06 -0.1 0.04 -0.12 l-0.2 0 c-0.04 -0.12 -0.3 -0.3 -0.42 -0.34 c-0.08 0 -0.28 0.06 -0.32 0.1 l0 -0.14 c-0.1 0 -0.18 -0.04 -0.3 -0.04 c-0.1 0.06 -0.08 0.32 -0.08 0.54 l-0.04 0.04 c0.08 0.04 0.08 0.2 0.08 0.26 c0 0.08 -0.08 0.28 -0.12 0.36 c0.08 0.04 0.04 0.2 0.12 0.24 l0 0.34 l0.08 0.08 c0 0.3 -0.16 0.48 -0.16 0.7 c0 0.04 0.04 0.12 0.08 0.16 c-0.04 0.04 -0.08 0.06 -0.08 0.14 c0.08 0.02 0 0.32 0.08 0.32 c0 0 -0.08 0.26 -0.08 0.34 c0.02 0 -0.02 0.02 0.04 0.08 c-0.06 0.16 -0.04 0.22 -0.04 0.24 c0 -0.04 0.04 -0.04 0.08 -0.04 c0 0.12 -0.08 0.24 -0.08 0.38 l0.2 0 c0 0.14 -0.22 0.02 -0.16 0.24 c0 -0.04 0.04 -0.04 0.08 -0.04 c0.02 0.04 -0.04 0.14 -0.04 0.2 c0.04 -0.04 0.06 0.08 0.08 0.12 c0 0.18 -0.16 0.3 -0.16 0.5 l0.08 0.16 c-0.02 0.06 -0.06 0.12 -0.04 0.18 l0.24 0 c0 0.06 -0.02 0.14 0.04 0.16 l0.1 -0.04 c0 -0.06 0 -0.06 -0.02 -0.08 c0.04 -0.08 0.22 -0.18 0.22 -0.34 l0.08 0.04 l0.08 -0.32 c0.04 0 0.12 -0.04 0.12 -0.12 c0 -0.06 -0.04 -0.14 -0.12 -0.14 c0.2 -0.12 0.24 -0.32 0.24 -0.52 c0 -0.04 0 -0.06 -0.08 -0.06 l0.14 -0.16 l0 -0.44 l0.04 0 c0.04 0 0.04 -0.08 0.04 -0.1 c0 -0.12 -0.04 -0.24 -0.04 -0.4 c0.02 0 -0.04 -0.28 0.36 -0.38 l0.2 0.18 l0 0.04 c0 0.14 0.14 0.24 0.14 0.36 s-0.14 0.3 -0.14 0.42 l0.06 0.04 c0 0.02 0 0.1 -0.02 0.16 l0.06 0 l-0.1 0.16 l0.06 0.04 l0 0.46 c0.04 0 0.04 0.08 0.04 0.12 c0.02 0.02 -0.02 0.08 -0.06 0.12 c0.02 0.04 0.02 0.08 0.06 0.1 c-0.06 0.08 -0.08 0.18 -0.08 0.3 c0 0.06 0 0.14 0.02 0.18 c-0.04 0.04 -0.08 0.08 -0.08 0.14 l0.04 0.04 l-0.04 0.04 c0.08 0.26 0.02 0.76 0.1 0.86 c0 0.02 -0.02 0.1 -0.06 0.16 c0 -0.02 0 0.06 0.06 0.12 c0 0.04 -0.02 0.14 -0.06 0.14 l0.04 0.04 c0 0.04 -0.04 0.12 -0.08 0.16 l0.08 0.16 l-0.08 0.08 c-0.02 0.18 0.04 0.16 0.04 0.26 c0 0.08 -0.04 0.12 -0.04 0.2 s0.08 0.04 0.08 0.12 c-0.04 0 -0.08 0.04 -0.08 0.08 l0.1 0 c-0.02 0.04 -0.06 0.08 -0.06 0.12 c0 0.12 0.04 0.24 0.04 0.38 l0.02 0 c0.02 0.02 -0.02 0.44 -0.02 0.42 l0.02 0 c0 0.12 0 0.66 -0.22 0.66 c-0.16 0 -0.36 -0.22 -0.36 -0.34 c0 -0.04 0 -0.08 0.04 -0.08 c0 -0.04 -0.08 -0.12 -0.08 -0.16 c0 -0.1 0.04 -0.16 0.04 -0.26 c0 -0.12 -0.08 -0.2 -0.08 -0.32 l0.04 -0.04 l-0.14 -0.08 c0.04 -0.04 0.1 -0.04 0.1 -0.1 c0 -0.08 -0.06 -0.24 -0.14 -0.32 c0.04 0 0.06 -0.04 0.06 -0.08 c0 -0.24 -0.14 -0.4 -0.14 -0.62 l0.08 0 c-0.04 -0.04 -0.1 -0.14 -0.16 -0.14 c-0.02 0 -0.02 0.02 -0.04 0.02 c-0.04 -0.12 -0.04 -0.2 -0.04 -0.3 l0.04 0 c0 -0.04 0 -0.08 -0.08 -0.08 c-0.04 0 -0.04 0.08 -0.08 0.12 l0 -0.16 s-0.08 -0.04 -0.12 -0.04 l-0.04 0.08 c0.02 -0.04 0.02 -0.06 0.02 -0.08 c0 -0.1 -0.16 -0.22 -0.26 -0.22 c-0.06 0 -0.1 0.02 -0.1 0.14 c0 0.08 0.04 0.08 0.04 0.2 s-0.04 0.22 -0.04 0.38 c0 0.06 0 0.1 0.04 0.16 l-0.04 0.04 c0 0.08 0.04 0.12 0.04 0.16 s-0.04 0.04 -0.04 0.06 s0.02 0.1 0.04 0.16 c0 0 -0.08 0.28 -0.08 0.36 c0 0.12 0.12 0.3 0.12 0.46 l-0.08 0.04 l0.08 0.08 l-0.04 0.04 c0 0.08 0.04 0.08 0.04 0.16 l-0.04 0 c0 0.16 0.02 0.34 -0.04 0.46 c0 0.06 0.04 0.2 0.12 0.2 l0.04 0 c-0.04 0.04 -0.08 0.06 -0.12 0.06 l0 0.32 l0.04 0.04 s-0.04 0.5 -0.08 0.5 c0 0.08 0.12 0.18 0.12 0.2 c0 0.2 -0.16 0.42 -0.16 0.62 s0.16 0.46 0.16 0.7 c0 0.12 -0.08 0.28 -0.08 0.42 l0.08 0 c-0.04 0.08 -0.08 0.12 -0.08 0.2 c0 0.12 0.16 0.34 0.16 0.54 c0.02 0.02 0.08 -0.02 0.12 -0.04 l0.1 0.08 c0.08 0.02 0.64 -0.06 0.82 -0.24 c0.4 -0.38 0.78 -1.58 0.78 -2.12 c0 -0.12 -0.04 -0.12 -0.04 -0.2 c0 0.12 0.38 -1.1 0.38 -1.48 c0 -0.04 -0.02 -0.08 -0.04 -0.12 c-0.02 0 0 -0.06 0.08 -0.08 c-0.04 -0.02 -0.04 -0.06 -0.04 -0.1 c0 -0.24 0 -0.58 0.36 -0.58 c0.26 0 0.24 0.54 0.3 0.54 c0.04 -0.04 0.08 -0.08 0.12 -0.08 c-0.14 0.18 -0.2 0.56 -0.2 0.76 c0 0.02 0.02 0.06 0.04 0.06 l0 0.46 l0.08 0.08 l-0.1 0 c0.06 0.08 0.06 0.08 0.06 0.16 c0 0.06 -0.04 0.1 -0.04 0.18 l0.04 0.04 c0 0.12 0 0.4 -0.14 0.44 c0.08 0.02 0.14 0.92 0.14 1.04 c0 0.08 -0.04 0.24 -0.06 0.32 l0.06 0 c0 0.14 -0.04 0.22 -0.04 0.38 c0 0.12 -0.02 0.3 0.08 0.34 l-0.04 0.04 l0.04 0.08 c0 0.28 -0.26 0.82 -0.58 0.82 c-0.18 0 -0.26 -0.16 -0.42 -0.16 z M16.374000000000002 17.02 c-0.02 0 -0.02 0 -0.02 0.02 c0 0 0 0.02 0.02 0.02 s0.04 -0.02 0.04 -0.02 c0 -0.02 -0.02 -0.02 -0.04 -0.02 z M16.434 15.3 c0 0 -0.02 0.02 -0.02 0.04 s0.02 0.04 0.02 0.04 c0.02 0 0.04 -0.02 0.04 -0.04 s-0.02 -0.04 -0.04 -0.04 z M12.134000000000002 14.059999999999999 c-0.02 0 -0.02 0 -0.02 0.02 c0 0 0 0.02 0.02 0.02 s0.04 -0.02 0.04 -0.02 c0 -0.02 -0.02 -0.02 -0.04 -0.02 z M13.534 12.04 c-0.16 0 -0.1 0.24 -0.12 0.16 c0.08 -0.04 0.12 -0.08 0.12 -0.16 z M13.454 11.96 c-0.02 0 -0.02 0.02 -0.02 0.04 s0 0.04 0.02 0.04 s0.04 -0.02 0.04 -0.04 s-0.02 -0.04 -0.04 -0.04 z M12.294 11.84 c-0.02 0 -0.02 0.02 -0.02 0.04 s0 0.04 0.02 0.04 s0.04 -0.02 0.04 -0.04 s-0.02 -0.04 -0.04 -0.04 z M13.994000000000002 11.82 c-0.02 0 -0.02 0.02 -0.02 0.02 c0 0.02 0 0.04 0.02 0.04 s0.04 -0.02 0.04 -0.04 c0 0 -0.02 -0.02 -0.04 -0.02 z M13.334000000000001 11.7 c-0.02 0 -0.02 0 -0.02 0.02 c0 0 0 0.02 0.02 0.02 s0.04 -0.02 0.04 -0.02 c0 -0.02 -0.02 -0.02 -0.04 -0.02 z M13.374000000000002 11.12 c-0.02 0 -0.02 0.02 -0.02 0.02 c0 0.02 0 0.04 0.02 0.04 s0.04 -0.02 0.04 -0.04 c0 0 -0.02 -0.02 -0.04 -0.02 z M12.214000000000002 10.96 c-0.02 0 -0.02 0.02 -0.02 0.04 s0 0.04 0.02 0.04 s0.04 -0.02 0.04 -0.04 s-0.02 -0.04 -0.04 -0.04 z M15.774000000000001 9.64 c0 0 -0.02 0.02 -0.02 0.04 s0.02 0.04 0.02 0.04 c0.02 0 0.04 -0.02 0.04 -0.04 s-0.02 -0.04 -0.04 -0.04 z M15.094000000000001 9.6 c-0.02 0 -0.02 0.02 -0.02 0.04 s0 0.04 0.02 0.04 s0.02 -0.02 0.02 -0.04 s0 -0.04 -0.02 -0.04 z M15.594000000000001 9.44 c-0.02 0 -0.02 0.02 -0.02 0.04 s0 0.04 0.02 0.04 s0.04 -0.02 0.04 -0.04 s-0.02 -0.04 -0.04 -0.04 z M13.334000000000001 8 c-0.02 0 -0.02 0.02 -0.02 0.04 s0 0.04 0.02 0.04 s0.04 -0.02 0.04 -0.04 s-0.02 -0.04 -0.04 -0.04 z M16.134 6.18 l0 0.04 l0.04 0 z M12.994000000000002 5.9399999999999995 c-0.02 0 -0.02 0 -0.02 0.02 c0 0 0 0.02 0.02 0.02 s0.04 -0.02 0.04 -0.02 c0 -0.02 -0.02 -0.02 -0.04 -0.02 z M24.068 20.04 c0 -0.28 -0.42 -0.16 -0.54 -0.22 c-0.26 -0.04 -0.48 -0.7 -0.62 -0.7 c0.02 0.06 0.04 0.1 0.04 0.12 c0 0.12 -0.2 0.04 -0.2 0.22 c0 0.16 0.08 0.32 0.08 0.44 c-0.08 0 -0.2 0.04 -0.24 0.14 l0.04 0.04 c-0.1 0.1 -0.46 0.08 -0.48 0.08 c-0.08 0 -0.06 -0.26 -0.06 -0.32 c0 -0.04 0 -0.08 0.04 -0.1 l0 -0.54 c-0.02 0 -0.08 -0.16 -0.08 -0.24 c0.04 -0.04 0.08 -0.16 0.08 -0.2 c0 -0.08 -0.12 -0.14 -0.12 -0.18 c0 -0.14 0.08 -0.28 0.08 -0.36 c0 -0.16 -0.12 -0.26 -0.12 -0.42 s0.12 -0.32 0.12 -0.5 c0 -0.16 0.02 -0.32 -0.08 -0.52 c0 -0.3 0.14 -0.76 0.08 -1 l-0.08 -0.16 l0.12 0 c-0.08 -0.16 -0.16 -0.42 -0.16 -0.58 c0 -0.2 0.12 -0.46 0.34 -0.46 c0.38 0.32 0.4 0.26 0.4 0.8 c0.04 0 0.08 0.16 0.08 0.24 l-0.04 0.08 c0 0.14 0 0.24 0.04 0.28 l0.08 -0.04 l0 0.06 c0 0.14 0.1 0.26 0.1 0.4 c0 0.08 -0.02 0.08 -0.02 0.12 c0 0.12 0.02 0.22 0.02 0.34 c0.04 0 0.7 1.72 0.78 1.9 c0.5 0.3 0.36 0.76 1.02 0.76 c0.08 0 0.16 -0.02 0.26 -0.02 l0.12 0.16 c0.12 0 0.16 -0.16 0.16 -0.2 c0 0.04 0.04 0.12 0.12 0.12 c0.04 0 0.12 -0.16 0.12 -0.2 l-0.04 -0.04 c0 -0.18 0.18 -0.26 0.18 -0.38 c0 -0.02 -0.04 -0.2 -0.04 -0.28 c0 -0.26 0.12 -0.54 0.12 -0.84 c0 -0.08 -0.04 -0.12 -0.04 -0.16 s0.02 -0.1 0.04 -0.16 l-0.14 -0.08 c0 -0.06 0.02 -0.14 0.02 -0.22 c0 -0.28 -0.3 -1.64 -0.46 -1.84 c-0.22 -0.3 -1.36 -2.06 -1.58 -2.06 c0 0.06 -1.14 -1.44 -1.14 -2.2 l0.04 -0.04 c-0.12 -0.04 -0.34 -1.02 -0.38 -1.12 c0 -0.04 0.08 -0.16 0.08 -0.2 c0 -0.28 -0.08 -0.5 -0.08 -0.74 l0.08 0 c0 -0.16 -0.12 -0.36 -0.12 -0.5 c0 -0.24 0.2 -0.62 0.2 -0.86 c0 -0.04 -0.04 -0.08 -0.04 -0.16 c0 -0.16 0.26 -0.34 0.3 -0.5 c0.18 -0.54 0.46 -1.24 1.28 -1.16 l0.7 0.34 c0.32 0.16 0.46 0.98 0.9 0.98 c0.04 -0.2 0.22 -0.16 0.22 -0.28 c0 -0.08 -0.06 -0.08 -0.06 -0.2 c0.04 0 0.1 0 0.1 -0.02 c0 -0.06 -0.02 -0.06 -0.04 -0.08 l0 -0.4 c0 -0.08 0.28 -0.12 0.32 -0.12 c0.32 0 0.38 0.6 0.38 0.78 c0 0.2 -0.06 0.4 -0.06 0.58 l0.02 0.12 c0 0.22 0 0.16 -0.02 0.24 l0.02 0.08 c0.02 0.24 -0.08 0.48 -0.06 0.74 l0.06 0.04 c-0.06 0.06 -0.06 0.16 -0.06 0.26 s0 0.36 0.04 0.36 l0 1.12 l-0.04 0.04 c0 0.16 0.18 0.3 0.18 0.5 c0 0.16 -0.22 0.46 -0.42 0.46 c-0.5 0 -0.14 -1.26 -0.58 -1.42 c0.04 0 0.12 0 0.12 -0.04 c-0.16 -0.12 -0.22 -0.48 -0.22 -0.72 c0 -0.08 0.02 -0.14 0.02 -0.18 c-0.12 -0.08 -0.24 -0.38 -0.28 -0.5 l0.04 -0.12 c-0.36 -0.96 -0.44 -1.4 -1.28 -1.78 l0.04 -0.04 c-0.3 0 -0.78 0.22 -0.78 0.54 l0.12 0 c0 0.12 -0.26 0.12 -0.3 0.3 c0.02 0 0.06 -0.02 0.08 -0.02 c0.04 0 0.06 0.02 0.06 0.06 c-0.18 0.04 -0.22 0.2 -0.22 0.4 c-0.02 0.02 0.02 0.08 0.04 0.14 l0.1 -0.06 c0.04 0.1 -0.14 0.28 -0.14 0.42 c0 0.24 0.08 1 0.3 1.12 l0 0.36 c0.12 0 0.24 0.34 0.28 0.42 l0.04 -0.04 c0.18 0.34 0.26 0.44 0.54 0.78 c0 0.02 -0.02 0.1 -0.04 0.16 c-0.06 0.1 0.18 0.18 0.24 0.18 l0 0.04 l0.22 0.28 l0 0.06 c-0.02 0.32 0.3 0.28 0.44 0.52 s0.92 1.56 1.04 1.56 l0 0 c0.04 0.34 0.46 0.54 0.46 0.88 c-0.02 0.04 -0.04 0.08 -0.04 0.12 s0.12 0.62 0.24 0.66 l0 0.32 c0.08 0 0.2 0.12 0.2 0.16 c0 0.06 -0.02 0.06 -0.04 0.1 c0 0.16 0.12 0.28 0.12 0.44 c0 0.12 0 0.18 -0.08 0.26 l0 0.98 c-0.12 0.12 -0.12 0.74 -0.12 0.86 c-0.24 0.22 -0.54 0.88 -0.54 1.2 c-0.08 0 -0.2 0.08 -0.2 0.16 c0 0.04 0 0.06 0.08 0.1 c-0.06 0.02 -0.1 -0.04 -0.16 -0.04 c-0.04 0 -0.08 0.02 -0.12 0.04 l0 -0.06 c-0.14 0.18 -0.5 0.34 -0.72 0.34 c-0.2 0 -0.7 -0.2 -0.9 -0.28 z M23.208000000000002 19.16 l0 0.04 l0.04 0 l0 -0.04 l-0.04 0 z M22.948 18.96 c0 0.08 0.02 0.12 0.1 0.12 l-0.1 -0.16 l0 0.04 z M23.088 18.84 c-0.04 0 -0.08 0 -0.08 0.04 l0.08 0 l0 -0.04 z M22.088 15.24 c-0.02 0 -0.02 0.02 -0.02 0.04 s0 0.04 0.02 0.04 s0.04 -0.02 0.04 -0.04 s-0.02 -0.04 -0.04 -0.04 z M33.402 19.66 c0 -0.24 0.16 -0.24 0.32 -0.24 c0.1 0 0.26 0.08 0.34 0.08 l0.08 -0.04 c-0.04 -0.04 -0.08 -0.08 -0.08 -0.12 s0.14 0.04 0.2 0.08 l0.04 0 c0 -0.12 -0.04 -0.16 -0.04 -0.26 c0 -0.08 0.04 -0.08 0.04 -0.2 c0 -0.08 -0.08 -0.16 -0.08 -0.24 s0.04 -0.12 0.04 -0.2 c0 -0.12 -0.12 -0.32 -0.12 -0.52 c0 -0.18 0.22 -0.52 0.22 -0.76 c0 -0.02 -0.02 -0.26 -0.14 -0.26 l0.08 -0.08 c0 -0.12 -0.08 -0.16 -0.08 -0.24 s0.04 -0.16 0.04 -0.22 c0 -0.16 -0.08 -0.36 -0.08 -0.52 c-0.02 -0.02 0.04 -0.1 0.08 -0.14 c-0.04 -0.06 -0.06 -0.18 -0.08 -0.2 c0 -0.12 0.12 -0.3 0.12 -0.32 c0 -0.08 -0.04 -0.1 -0.04 -0.18 c-0.02 -0.02 0.02 -0.08 0.04 -0.12 c-0.04 -0.06 -0.06 -0.18 -0.08 -0.2 c-0.04 0 0.04 -0.08 0.04 -0.2 c0 -0.18 -0.04 -0.34 -0.04 -0.54 c0 -0.12 0.04 -0.22 0.04 -0.38 c0 -0.08 -0.04 -0.12 -0.04 -0.24 c0 -0.2 0.12 -0.38 0.12 -0.58 c0 -0.1 -0.08 -0.26 -0.08 -0.34 c0 -0.04 0.04 -0.06 0.08 -0.08 c0 -0.32 -0.12 -0.66 -0.12 -0.98 l0.04 -0.12 c0.02 -0.12 -0.04 -0.14 -0.04 -0.22 c0 -0.04 0.04 -0.08 0.04 -0.12 c0 -0.08 -0.08 -0.16 -0.08 -0.32 c0 -0.14 0.12 -0.34 0.12 -0.58 c0.02 -0.02 -0.02 -0.1 -0.04 -0.16 c0 -0.1 0.08 -0.18 0.08 -0.3 c0 -0.16 -0.08 -0.24 -0.08 -0.44 c-0.02 -0.08 0.08 -0.2 0.08 -0.26 c0 -0.12 -0.04 -0.2 -0.12 -0.28 c0 -0.04 0.04 -0.14 0.04 -0.18 c0.1 -0.02 -0.08 -0.06 -0.08 -0.28 c0 -0.16 0.16 -0.32 0.16 -0.46 l-0.08 -0.08 c0.02 -0.14 0.04 -0.28 0.04 -0.42 c0 -0.32 -0.1 -0.6 -0.48 -0.6 c-0.14 0 -0.5 0.62 -0.5 0.78 l0.04 0.08 c0.04 0.24 -0.28 0.6 -0.28 0.9 l0.04 0.08 c0 0.22 -0.22 0.42 -0.22 0.66 c0 0.04 0.04 0.06 0.04 0.1 s-0.02 0.08 -0.04 0.12 l0.04 0.08 c0 0.2 -0.16 0.42 -0.16 0.54 c0 0.04 0 0.08 0.04 0.08 c-0.04 0.2 -0.08 0.4 -0.24 0.54 c-0.04 0 -0.18 -0.04 -0.26 -0.04 c0.02 -0.02 0.02 -0.02 0.02 -0.04 c0 -0.12 -0.26 -0.36 -0.26 -0.5 c0 -0.04 0 -0.08 0.08 -0.08 l0 -0.3 l0.08 0.04 c0 -0.02 0.02 0.02 0.08 -0.04 c-0.08 -0.04 -0.12 -0.16 -0.12 -0.24 l0.08 -0.08 c0.02 -0.12 -0.04 -0.24 -0.04 -0.38 c0 -0.08 0.04 -0.12 0.04 -0.2 s-0.04 -0.12 -0.04 -0.22 c0 -0.12 0.04 -0.2 0.04 -0.36 c0 -0.2 -0.04 -0.28 -0.12 -0.34 c-0.02 0.04 0.02 -0.16 0.12 -0.16 c-0.08 -0.04 -0.08 -0.04 -0.08 -0.12 s0.04 -0.16 0.04 -0.24 l-0.08 0 c0 -0.18 -0.08 -0.38 -0.08 -0.58 c0 -0.1 0.02 -0.12 0.08 -0.18 l-0.04 -0.12 c0 -0.24 0.38 -0.44 0.54 -0.52 c0.08 0.04 0.16 0.04 0.24 0.04 c0.38 0 0.82 -0.08 1.2 -0.08 c0.14 0 0.16 0 0.24 0.04 l0.14 -0.04 c0.08 0 0.22 -0.02 0.32 0.04 l0.62 0 c0.04 0 0.12 -0.06 0.16 -0.06 s0.08 0 0.12 0.02 l0.66 0 c0.04 0 0.1 0.08 0.14 0.08 c0.12 0 0.24 -0.14 0.44 -0.14 c0.12 0 0.18 0.14 0.3 0.14 l0.04 0 c0.16 0.12 0.24 0.36 0.4 0.48 l0 0.46 l-0.08 0.04 c0 0.04 0.04 0.08 0.08 0.12 c0 0.04 -0.04 0.12 -0.08 0.12 c0.04 0 0.04 0.04 0.04 0.06 c0.04 0 -0.04 0.12 -0.08 0.2 c0 0.12 0.12 0.16 0.12 0.24 c0.02 -0.04 -0.04 0.3 -0.12 0.38 l0.04 0.08 l0 0.54 l0.08 0.08 c0 0.04 -0.02 0.08 -0.04 0.12 l0.04 0.16 c0.02 0.06 0 0.08 -0.04 0.16 c0.04 0.04 0.06 0.1 0.08 0.18 c0 0.02 -0.02 0.12 -0.04 0.2 c0 0.12 0 0.3 0.1 0.34 c-0.04 0 -0.1 0.08 -0.1 0.12 c0.02 0.08 0.06 0.14 0.04 0.2 c0 0.12 -0.16 0.42 -0.32 0.42 c-0.2 0 -0.42 -0.38 -0.42 -0.58 c0 -0.12 0.1 -0.26 0.1 -0.42 s-0.22 -0.2 -0.22 -0.36 c0 -0.08 0.04 -0.14 0.04 -0.22 c0 -0.12 -0.04 -0.24 -0.04 -0.36 c0 -0.08 0.04 -0.12 0.04 -0.18 c0 -0.08 -0.16 -0.28 -0.2 -0.36 c-0.16 -0.28 -0.24 -1.48 -0.66 -1.48 l-0.04 0 l0 -0.08 c-0.12 0 -0.38 0.12 -0.38 0.28 l0 0.38 c0 0.04 0.12 0.04 0.12 0.04 c0 0.24 -0.08 0.48 -0.12 0.7 l0.04 0.08 c0 0.04 -0.08 0.2 -0.08 0.24 c-0.02 0.18 0.12 0.3 0.22 0.34 c-0.1 0 -0.22 0.24 -0.22 0.32 c0 0.12 0.04 0.12 0.04 0.2 c0 0.06 -0.08 0.06 -0.08 0.1 c0 0.16 0.08 0.28 0.08 0.4 s-0.08 0.18 -0.08 0.3 l0.08 0 s0.04 0 0.08 -0.04 c0 0.08 -0.04 0.16 -0.04 0.24 s0.04 0.2 0.04 0.28 c0.02 0.02 -0.02 0.06 -0.04 0.1 l0.08 0.08 c0 0.08 -0.04 0.12 -0.04 0.2 c0 0.04 0.04 0.08 0.04 0.12 c0 0.3 -0.16 0.62 -0.16 0.92 l0.08 0.08 l-0.04 0.08 c0 0.12 -0.02 0.12 0.12 0.12 c-0.04 0.04 -0.08 0.08 -0.08 0.12 l0.04 0.04 c0 0.04 -0.08 0.18 -0.08 0.26 c-0.02 0.14 0.12 0.24 0.12 0.28 c0 0.16 -0.16 0.34 -0.16 0.54 c0 0.04 0 0.12 0.06 0.12 l0.02 0 l-0.04 0.04 c0 0.16 0.02 0.4 -0.04 0.46 c0 0.08 0.12 0.16 0.12 0.28 c0 0.16 -0.08 0.3 -0.08 0.46 s0.08 0.24 0.08 0.4 c-0.04 -0.02 -0.12 0.04 -0.12 0.06 c0.02 0.06 0.12 0.12 0.12 0.32 s-0.12 0.38 -0.12 0.62 l0.12 0 c0.06 0.02 -0.08 0.12 -0.08 0.2 l0 0.5 c0.08 0 0.22 0.04 0.22 0.08 c-0.04 0.08 -0.14 0.08 -0.18 0.08 c0 0 0.08 0 0.08 0.04 s-0.08 0.3 -0.12 0.34 c0.12 0.1 0.14 0.3 0.14 0.48 l0 0.22 c0.04 0 0.04 0.08 0.04 0.08 c0 0.16 -0.1 0.42 -0.1 0.5 l0.04 0.08 c0 0.04 -0.02 0.08 -0.04 0.12 c-0.02 -0.04 0.02 0.1 0.06 0.2 c-0.02 0.08 -0.02 0.14 -0.02 0.12 l0.06 -0.04 c0 0.04 0.08 0.14 0.12 0.14 c0.02 0 0.12 -0.04 0.24 -0.04 c0.2 0 0.38 0.28 0.38 0.48 c0 0.04 -0.08 0.18 -0.12 0.22 l-0.06 0 c-0.14 0 -0.26 0.12 -0.44 0.12 c-0.04 0 -0.08 0 -0.08 -0.04 c-0.1 0.08 -0.04 0.16 -0.18 0.16 c0 -0.08 0.04 -0.08 0.04 -0.16 c-0.12 0 -0.16 0.08 -0.28 0.08 c-0.16 0 -0.24 -0.1 -0.46 -0.1 c-0.04 0 -0.1 0.02 -0.12 0.06 l0 -0.08 c-0.12 0 -0.2 0.04 -0.28 0.08 l-0.54 0 c-0.04 0.08 -0.12 0.12 -0.2 0.12 c-0.14 0 -0.42 -0.34 -0.42 -0.5 z M32.242 10.06 c-0.02 0 -0.02 0 -0.02 0.02 c0 0 0 0.02 0.02 0.02 s0.04 -0.02 0.04 -0.02 c0 -0.02 -0.02 -0.02 -0.04 -0.02 z M35.662 6.52 l0 0.16 c0.04 -0.04 0.04 -0.12 0.04 -0.16 l-0.04 0 z M34.022 6.5 c0.06 0.08 0.1 0.06 0.16 0.06 c0 -0.1 -0.16 -0.04 -0.16 -0.06 z M33.902 6.5 c-0.02 0 -0.02 0.02 -0.02 0.02 c0 0.02 0 0.04 0.02 0.04 s0.04 -0.02 0.04 -0.04 c0 0 -0.02 -0.02 -0.04 -0.02 z M42.276 19.62 c0 -0.16 0.24 -0.54 0.34 -0.54 c0.12 0 0.2 0.04 0.32 0.04 c0.32 0 0.4 -0.34 0.4 -0.64 c0 -0.1 0 -0.18 -0.02 -0.26 c0.04 0 0.12 -0.08 0.12 -0.12 c0 -0.08 -0.04 -0.14 -0.04 -0.22 c0 -0.12 0.04 -0.12 0.04 -0.2 c-0.04 -0.04 -0.12 0 -0.16 -0.08 c0.08 0 0.16 -0.16 0.16 -0.2 l0 -0.5 c0.04 -0.04 0.04 -0.08 0.04 -0.12 c0 -0.12 -0.04 -0.22 -0.04 -0.34 c0 -0.5 0.28 -0.98 0.28 -1.44 c0.02 -0.06 -0.02 -0.16 -0.04 -0.24 c0 -0.14 0.16 -0.34 0.16 -0.5 l-0.04 -0.08 c-0.02 -0.26 0.14 -0.64 0.14 -0.96 l-0.02 -0.16 c-0.02 -0.28 0.1 -0.52 0.1 -0.78 c0 -0.12 -0.04 -0.2 -0.04 -0.3 c0 -0.2 0.08 -1.02 0.24 -1.02 c0 -0.12 -0.04 -0.16 -0.04 -0.3 c0 -0.32 0.2 -0.6 0.2 -0.9 c0 -0.2 -0.08 -0.4 -0.08 -0.58 c0 -0.4 0.12 -0.74 0.12 -1.18 c0.08 -0.02 0.2 -0.3 0.2 -0.38 s-0.08 -0.16 -0.08 -0.28 c0 0 0.04 -0.2 0.04 -0.22 c0 0.02 0 -0.06 -0.04 -0.12 c0.02 0 -0.02 -0.02 0.04 -0.08 l0 -0.26 c0.06 -0.04 0.06 -0.08 0.06 -0.12 c0 -0.08 -0.02 -0.12 -0.06 -0.16 c0.02 -0.04 0.04 -0.04 0.04 -0.04 l0.04 0 c0.18 0 0.2 -0.74 0.64 -0.74 c0.16 0 0.48 0.58 0.48 0.62 c0 0.06 -0.02 0.04 -0.04 0.08 c0 0.82 0.26 1.2 0.26 1.9 c0 0.2 -0.04 0.36 -0.04 0.5 c0 0.38 0.24 0.96 0.2 1.22 l0.04 0.04 l0 0.42 l-0.04 0.08 s0.04 0.22 0.08 0.3 l-0.04 0.08 l0.04 0.08 l-0.08 0.08 c0.12 0.04 0.28 0.62 0.28 0.74 c0 0.08 -0.04 0.12 -0.04 0.2 c0 0.06 0.16 0.22 0.16 0.34 c0 0.08 -0.08 0.16 -0.08 0.24 c0 0.14 0.14 0.3 0.14 0.46 c0 0.08 -0.02 0.12 -0.02 0.24 c0 0.1 0.1 0.14 0.1 0.26 c0 0.08 -0.08 0.2 -0.08 0.32 c0 0.28 0.16 0.56 0.16 0.9 l0 0.1 c0.12 0.16 0.04 0.4 0.24 0.54 c-0.04 0.12 -0.04 0.2 -0.04 0.32 c0 0.08 0.04 0.08 0.04 0.12 c0 0.02 -0.02 0.12 -0.04 0.2 c0 0.06 0.08 0.46 0.16 0.5 l0 0.1 c0 0.22 0.08 0.42 0.08 0.66 l0 0.12 c0.1 0.04 0.1 0.44 0.18 0.56 c-0.08 0.06 -0.08 0.06 -0.08 0.14 s0.04 0.2 0.12 0.24 l0 0.14 c0 0.2 0.06 0.38 0.06 0.58 c0 0.04 -0.02 0.1 -0.02 0.14 c0.12 0.08 0.46 0.18 0.54 0.3 c-0.04 0.58 -0.08 0.66 -0.66 0.66 c-0.22 0 -0.38 -0.08 -0.62 -0.08 c-0.26 0 -0.5 0.12 -0.8 0.12 c-0.2 0 -0.64 -0.22 -0.64 -0.5 c0 0 0.48 -0.5 0.56 -0.5 c0.04 0 0.1 0.04 0.1 0.08 c0.04 -0.16 0.04 -0.24 0.04 -0.4 c0 -0.22 -0.14 -0.38 -0.14 -0.58 c0 -0.08 0.04 -0.16 0.04 -0.24 c0 -0.26 -0.28 -1.5 -0.4 -1.7 c-0.04 -0.08 -0.26 -0.12 -0.34 -0.12 l0 0.08 c-0.04 -0.08 -0.04 -0.08 -0.12 -0.08 c-0.66 0 -0.74 0.36 -0.78 0.94 c0 0.08 0 0.14 -0.04 0.22 l0.08 0.08 c-0.08 0.04 -0.12 0.24 -0.12 0.32 c-0.02 0.02 0.04 0.08 0.08 0.12 c0 0.14 -0.12 0.38 -0.12 0.54 c0 0.78 0.98 0.92 0.98 1.16 c0 0.36 -0.32 0.58 -0.66 0.58 l-0.04 -0.04 c-0.08 0 -0.12 0.04 -0.2 0.04 s-0.08 -0.04 -0.12 -0.04 c-0.08 0 -0.12 0.04 -0.16 0.04 c0.04 0.02 -0.12 -0.02 -0.18 -0.04 c-0.16 0 -0.44 0.08 -0.5 0.24 c-0.04 -0.12 -0.98 -0.16 -0.98 -0.74 z M45.93600000000001 19.38 l0 0.04 l0.02 0 z M47.556000000000004 19.34 c-0.02 0 -0.02 0.02 -0.02 0.04 s0 0.04 0.02 0.04 s0.04 -0.02 0.04 -0.04 s-0.02 -0.04 -0.04 -0.04 z M43.096000000000004 19.16 c-0.02 0 -0.02 0.02 -0.02 0.04 s0 0.04 0.02 0.04 s0.04 -0.02 0.04 -0.04 s-0.02 -0.04 -0.04 -0.04 z M43.176 19.12 c-0.02 0 -0.02 0.02 -0.02 0.04 s0 0.04 0.02 0.04 s0.04 -0.02 0.04 -0.04 s-0.02 -0.04 -0.04 -0.04 z M44.496 15.5 c0.02 0 0.04 -0.02 0.06 -0.02 c0.14 0 0.3 0.1 0.44 0.1 c0.04 0 0.34 -0.08 0.34 -0.12 c0 -0.08 -0.04 -0.08 -0.04 -0.12 c0 -0.12 0.26 -0.2 0.26 -0.38 c0 0.22 -0.1 -0.8 -0.32 -0.98 l0 -0.66 c0.04 0 0.04 -0.02 0.04 -0.06 c0 -0.2 -0.16 -0.44 -0.16 -0.62 l0.04 -0.08 c0.06 -0.04 -0.08 -0.18 -0.08 -0.32 l-0.16 0 c0 -0.08 0.08 -0.16 0.12 -0.24 l-0.08 -0.02 c-0.14 -0.04 -0.2 0.16 -0.2 0.26 c0 0.08 0.08 0.16 0.08 0.28 c0 0.08 -0.12 0.66 -0.22 0.7 c0 0.1 0.02 0.24 0.06 0.3 c0 0.2 -0.14 0.36 -0.14 0.54 c0 0.08 0.04 0.16 0.04 0.24 c0 0.12 0 0.28 -0.12 0.36 c0.08 0.02 0.08 0.14 0.08 0.22 c0 0.12 -0.08 0.2 -0.08 0.32 s0 0.18 0.04 0.3 z M45.536 15.42 c-0.06 0 -0.04 0.02 -0.08 0.04 l0.08 -0.04 l0 0 z M45.416000000000004 15.34 c-0.02 0 -0.02 0 -0.02 0.02 c0 0 0 0.02 0.02 0.02 s0.04 -0.02 0.04 -0.02 c0 -0.02 -0.02 -0.02 -0.04 -0.02 z M46.476000000000006 12.32 c-0.02 0 -0.02 0.02 -0.02 0.04 s0 0.04 0.02 0.04 s0.04 -0.02 0.04 -0.04 s-0.02 -0.04 -0.04 -0.04 z M44.956 11.82 c-0.02 0 -0.02 0 -0.02 0.02 c0 0 0 0.02 0.02 0.02 s0.04 -0.02 0.04 -0.02 c0 -0.02 -0.02 -0.02 -0.04 -0.02 z M44.876000000000005 11.54 l0 0.04 l0.08 -0.04 l-0.08 0 z M44.956 11.38 l0 0.04 l0.04 0 l0 -0.04 l-0.04 0 z M44.57600000000001 8.98 c-0.04 0 -0.04 0.04 -0.04 0.08 l0.04 0 l0 -0.08 z M44.496 8.64 c-0.02 0 -0.02 0.02 -0.02 0.02 c0 0.02 0 0.04 0.02 0.04 s0.04 -0.02 0.04 -0.04 c0 0 -0.02 -0.02 -0.04 -0.02 z M44.75600000000001 6.380000000000001 c-0.02 0 -0.02 0.02 -0.02 0.04 s0 0.04 0.02 0.04 s0.04 -0.02 0.04 -0.04 s-0.02 -0.04 -0.04 -0.04 z M44.71600000000001 6.34 c-0.02 0 -0.02 0.02 -0.02 0.04 s0 0.04 0.02 0.04 s0.04 -0.02 0.04 -0.04 s-0.02 -0.04 -0.04 -0.04 z M55.31 20.08 l-0.36 -0.08 c-0.06 -0.2 -0.42 -0.26 -0.58 -0.38 c-0.08 -0.08 -0.38 -0.4 -0.46 -0.48 l0 -0.02 c0 -0.24 -0.28 -0.44 -0.28 -0.82 c0 -0.04 0.04 -0.2 0.04 -0.24 c0 -0.08 -0.08 -0.28 -0.08 -0.34 c0.04 -0.12 0.12 -0.24 0.12 -0.36 l-0.04 0 c0 -0.08 0.04 -0.08 0.04 -0.16 s-0.08 -0.1 -0.08 -0.18 c0 -0.02 0.04 -0.38 0.04 -0.56 l0.04 -0.02 c0.04 -0.24 -0.08 -0.34 -0.08 -0.48 c0 -0.08 0.04 -0.16 0.04 -0.22 c0 -0.08 -0.04 -0.16 -0.04 -0.28 c0 -0.08 0.04 -0.12 0.04 -0.16 s-0.02 -0.1 -0.04 -0.16 c0.08 -0.04 0.04 -0.3 0.04 -0.3 l-0.1 0 c-0.06 -0.06 0.06 -0.3 0.06 -0.58 c-0.04 0 -0.04 -0.04 -0.04 -0.08 c0 -0.12 0.12 -0.24 0.12 -0.36 c0 -0.1 -0.04 -0.18 -0.04 -0.3 c0 -0.18 0.12 -0.44 0.12 -0.6 c0 -0.06 -0.02 -0.1 -0.08 -0.14 c0 -0.04 0.02 -0.08 0.04 -0.12 c0 -0.12 -0.12 -0.32 -0.12 -0.3 c0 -0.32 0.12 -0.5 0.12 -0.82 c0.02 -0.08 -0.04 -0.22 -0.04 -0.36 c0 -0.22 0.12 -0.5 0.12 -0.72 c0 -0.28 -0.2 -0.6 -0.2 -0.9 c0 -0.12 0.16 -0.28 0.16 -0.44 c0 -0.36 -0.1 -0.48 -0.1 -0.84 c0 -0.18 0.04 -0.36 0.14 -0.44 l-0.2 -0.42 c-0.02 0 0 -0.06 0.08 -0.08 c0 -0.08 -0.04 -0.12 -0.04 -0.2 c0 -0.06 0.04 -0.14 0.12 -0.18 l-0.12 0 l-0.1 -0.2 c0.02 -0.04 0.02 -0.08 0.02 -0.16 c0 -0.18 -0.34 0 -0.34 -0.22 c0 -0.36 0.34 -0.4 0.66 -0.4 c0.22 -0.04 0.32 0.12 0.54 0.12 c0 0.04 0.2 -0.08 0.28 -0.08 s0.12 0.04 0.18 0.04 c0.08 0 0.12 -0.04 0.2 -0.04 c-0.02 -0.08 0.18 0.12 0.28 0.12 c0.08 0 0.12 -0.04 0.2 -0.04 c0.06 0 0.1 0.12 0.1 0.2 c0 0.18 -0.42 0.18 -0.5 0.34 l0.04 0.04 c0.04 0.12 -0.2 0.3 -0.2 0.46 c0 0.12 0.08 0.16 0.16 0.2 c-0.08 0.08 -0.08 0.2 -0.08 0.32 c0 0.08 0 0.12 0.08 0.14 c-0.04 0.04 -0.16 0.16 -0.16 0.24 c0 0.16 0.08 0.28 0.08 0.42 c0 0.04 -0.04 0.08 -0.04 0.12 c0 0.16 0.04 0.24 0.04 0.4 c0 0.22 -0.08 0.34 -0.08 0.42 c0 0.2 0.06 0.26 0.08 0.32 c-0.02 0.02 -0.08 0.1 -0.08 0.26 c0 -0.02 0 0.08 0.04 0.16 c-0.06 0.04 -0.08 0.08 -0.08 0.16 c0 0.18 0.08 0.56 0.08 0.7 l0.04 0.04 c-0.08 0.04 -0.12 0.1 -0.12 0.18 c0 0.16 0.08 0.32 0.08 0.44 c0 0.14 -0.1 0.16 -0.08 0.42 l0.04 0.04 l0 0.7 l0.04 0.04 c0 0.04 -0.12 0.26 -0.12 0.3 c-0.02 0.22 0.12 0.02 0.12 0.36 c-0.04 0 -0.04 0.04 -0.04 0.08 c-0.02 -0.02 0.04 0.2 0.04 0.3 c0 0.12 -0.12 0.28 -0.12 0.4 l0.04 0.04 l0 0.14 c0 0.14 0.04 0.12 0.04 0.32 c0 0 0 0.14 -0.04 0.24 c-0.02 -0.04 0.02 0.1 0.08 0.18 l-0.04 0.16 c0.02 0.04 -0.06 0.5 0.06 0.5 c0.02 0 0.06 -0.02 0.08 -0.02 c0.04 0 0.06 0.02 0.06 0.06 c-0.04 0.04 -0.2 0.16 -0.2 0.24 c0 0 0 0.04 0.04 0.04 l0 0.34 c0.02 0.04 -0.02 0.22 -0.04 0.28 c-0.02 -0.02 0 0.06 0.08 0.08 c-0.04 0 -0.04 0.02 -0.04 0.06 c0 0.14 0.04 0.18 0.04 0.28 c0 0.04 -0.08 0 -0.08 0.12 s0.08 0.24 0.08 0.36 c0 0.04 -0.04 0.04 -0.04 0.1 c0 0.08 0.04 0.08 0.04 0.12 c0 0.06 -0.02 0.04 -0.04 0.08 c0 0.24 0.04 0.28 0.12 0.44 c0 0.06 -0.04 0.1 -0.04 0.18 c0 0.32 0.28 0.82 0.58 0.82 c0.4 0 0.7 -0.32 0.9 -0.32 c0 -0.02 -0.02 -0.04 -0.02 -0.06 c0 -0.04 0.04 -0.1 0.1 -0.12 l0 0.04 c0 0.04 0.02 0.04 0.04 0.04 c0.04 0 0.1 -0.04 0.12 -0.04 c-0.04 -0.02 -0.12 -0.18 -0.12 -0.2 l0.04 -0.04 l0.12 0.08 c-0.02 0.08 0.14 -0.12 0.14 -0.24 c-0.02 -0.02 -0.08 0.02 -0.12 0.04 c0 -0.5 0.08 -0.78 0.08 -1.16 c0 -0.04 -0.04 -0.2 -0.04 -0.24 c-0.02 -0.36 0.08 -0.66 0.08 -0.96 l0.08 0 c0 -0.28 -0.08 -0.44 -0.08 -0.7 c0 -0.12 0.04 -0.24 0.04 -0.36 c0 -0.22 -0.04 -0.54 -0.12 -0.76 l0.04 -0.04 s0.04 -0.56 0.08 -0.78 c0.12 0.06 -0.16 -0.24 -0.16 -0.44 c-0.02 0.02 0.02 -0.08 0.08 -0.14 l0 -0.52 l0.04 -0.04 c0 -0.28 0.02 -0.3 -0.04 -0.42 l0.04 -0.12 c0.04 -0.3 -0.12 -0.66 -0.12 -0.96 c0 -0.12 0.16 -0.2 0.16 -0.36 c0 -0.12 0 -0.34 -0.12 -0.42 c0 -0.56 0.04 -0.62 0.04 -0.86 c0 -0.04 -0.04 -0.24 -0.04 -0.26 c-0.04 -0.18 0.08 -0.42 0.08 -0.56 l-0.12 0 c0 -0.06 0.06 -0.56 0.08 -0.58 c0 -0.08 -0.08 -0.18 -0.08 -0.3 c0 -0.16 0.06 -0.26 0.06 -0.42 c0 -0.04 -0.02 -0.08 -0.08 -0.1 l0.06 -0.02 c0.06 -0.44 -0.8 -0.56 -0.96 -0.9 c0.12 -0.12 0.24 -0.24 0.34 -0.32 l0.08 0.04 c-0.04 0.02 0.12 -0.02 0.2 -0.08 c0.18 -0.02 0.38 0.12 0.5 0.16 c0.02 -0.02 0.14 -0.04 0.16 -0.08 c0.08 0 0.12 0.04 0.2 0.04 s0.14 -0.04 0.22 -0.04 c0.06 0 0.24 0.04 0.36 0.04 c-0.02 0 0.06 0 0.12 -0.04 c0.04 0.08 0.18 0.2 0.18 0.32 c-0.04 0.12 -0.74 0.86 -0.74 1.12 c0 0.16 0.12 0.32 0.12 0.5 c0 0.16 -0.08 0.36 -0.08 0.56 c0 0.1 0 0.14 0.04 0.22 l-0.04 0.08 c0.02 0.1 -0.02 0.28 0.04 0.36 l-0.12 0 c0 0.1 0.12 0.26 0.24 0.26 c-0.16 0.04 -0.04 0.32 -0.2 0.42 c0 0.04 0.04 0.32 0.04 0.4 c0.02 0.06 -0.04 0.1 -0.04 0.16 c0 0.04 0.02 0.32 0.04 0.34 l0.04 0.04 l0 0.46 l-0.04 0.08 c0 0.32 0.12 0.66 0.12 0.98 c0 0.1 -0.04 0.28 -0.04 0.42 l0.04 0.12 c-0.02 0 0.04 0.02 -0.04 0.08 l0 0.3 l0.04 0.04 l0 0.4 l0.08 0.08 c-0.12 0.08 -0.12 0.22 -0.12 0.34 s0.04 0.16 0.04 0.28 c0 0.22 -0.12 0.46 -0.12 0.74 l0.04 0.08 s-0.02 0.06 -0.04 0.1 l0.04 0 c0.02 0.02 -0.02 0.1 -0.04 0.16 c0.02 0 -0.02 0.02 0.04 0.08 l0 0.14 c0 0.16 0.04 0.22 0.04 0.4 c0 0.04 -0.04 0.04 -0.04 0.08 c0 0.02 0.04 0.14 0.08 0.2 c0.04 0 -0.04 0.02 -0.04 0.38 l0.04 0.04 c0 0.12 -0.08 0.24 -0.08 0.36 c0 0.06 0.08 0.06 0.08 0.14 c0 0.16 -0.08 0.32 -0.08 0.48 l0.04 0.08 l-0.04 0.14 l0.04 0.08 c0 0.04 -0.08 0.12 -0.08 0.16 c0.04 0 0.04 0.04 0.04 0.08 c0 0.08 0 0.12 -0.08 0.16 c0.02 0.02 0.04 0.02 0.04 0.08 s-0.3 0.62 -0.3 0.72 c0 0.04 0.04 0.04 0.04 0.12 c0 0.28 -0.74 0.74 -1.02 0.74 c-0.12 0 -0.18 -0.04 -0.3 -0.04 c-0.24 0 -0.48 0.12 -0.7 0.12 c-0.04 0 -0.08 0 -0.08 -0.04 z M57.09 17.759999999999998 c-0.02 0 -0.02 0.02 -0.02 0.02 c0 0.02 0 0.04 0.02 0.04 s0.04 -0.02 0.04 -0.04 c0 0 -0.02 -0.02 -0.04 -0.02 z M57.17 17.64 c-0.02 0 -0.02 0 -0.02 0.02 c0 0 0 0.02 0.02 0.02 s0.04 -0.02 0.04 -0.02 c0 -0.02 -0.02 -0.02 -0.04 -0.02 z M53.75 16.5 c-0.02 0 -0.02 0 -0.02 0.02 c0 0 0 0.02 0.02 0.02 s0.04 -0.02 0.04 -0.02 c0 -0.02 -0.02 -0.02 -0.04 -0.02 z M57.05 14.48 c0 0 0.04 0.24 0.16 0.24 c0 -0.06 -0.06 -0.3 -0.16 -0.24 z M57.59 9.2 c0 0 -0.02 0.02 -0.02 0.04 s0.02 0.04 0.02 0.04 c0.02 0 0.04 -0.02 0.04 -0.04 s-0.02 -0.04 -0.04 -0.04 z M53.67 6.48 c-0.02 0 -0.02 0.02 -0.02 0.04 s0 0.04 0.02 0.04 s0.04 -0.02 0.04 -0.04 s-0.02 -0.04 -0.04 -0.04 z M68.544 20.12 c-0.28 -0.02 -0.58 -0.12 -0.74 -0.34 c0.02 -0.04 0.04 -0.02 0.04 -0.08 s-0.5 -0.4 -0.5 -1.16 c0 -0.12 0 -0.12 0.1 -0.12 c0 -0.16 -0.06 -0.28 -0.06 -0.44 c0 -0.14 0.02 -0.22 0.02 -0.38 c0 -0.12 -0.06 -0.24 -0.06 -0.4 c0.02 -0.06 0.06 -0.2 0.06 -0.22 c-0.12 0 0 -0.34 -0.1 -0.32 l0 -0.34 l-0.08 -0.04 c0 -0.2 0.26 -0.42 0.26 -0.66 c0 -0.12 -0.1 -0.28 -0.1 -0.4 c0 -0.02 0.02 -0.2 0.02 -0.26 l-0.02 -0.16 c0 -0.18 0.02 -0.14 0.02 -0.24 c0 -0.06 -0.1 0 -0.1 -0.18 l0.04 -0.12 c0 -0.24 -0.24 -0.46 -0.24 -0.7 l0.08 0 c0 -0.08 -0.16 -0.36 -0.32 -0.36 c0 -0.38 -0.5 -0.5 -0.8 -0.5 c-0.28 0 -0.28 0.28 -0.28 0.5 c0 0.12 0.04 0.2 0.04 0.36 c0 0.08 -0.08 0.12 -0.08 0.2 s0.08 0.22 0.12 0.26 c-0.12 0.04 -0.04 0.24 -0.12 0.28 c0.04 0.12 -0.04 0.5 0.16 0.54 c-0.04 0.08 -0.16 0.08 -0.2 0.16 l0.08 0.08 c0 0.14 -0.08 0.34 -0.08 0.46 c0 0.16 0.08 0.34 0.08 0.54 l0.08 0 c0 0.28 -0.12 0.5 -0.12 0.74 c0 0.16 0.08 0.32 0.08 0.46 l-0.04 0.08 c-0.02 0 0.06 0 0.12 -0.08 l0.04 0.04 c-0.08 0.16 -0.16 0.32 -0.16 0.52 c0 0.06 0.08 0.1 0.08 0.18 c0 0.02 -0.02 0.1 -0.04 0.16 c0 -0.02 0 0.06 0.08 0.12 c0 0.12 -0.04 0.24 -0.04 0.34 c-0.02 0.02 0.04 0.1 0.08 0.16 c0 0.08 -0.08 0.32 -0.12 0.4 c0.26 0 0.78 0.38 0.78 0.72 c-0.14 0.12 -0.68 0.2 -0.7 0.24 l-0.16 -0.08 l-0.08 0.04 c-0.1 0.02 -0.18 -0.08 -0.28 -0.08 c-0.34 0 -0.6 0.08 -0.98 0.08 c-0.32 0 -0.68 -0.04 -0.68 -0.34 c0 -0.16 0.32 -0.32 0.46 -0.32 l0.12 0.08 c0.04 0 0.16 -0.04 0.2 -0.04 c0 -0.04 -0.02 -0.1 -0.02 -0.14 c0 -0.02 0.02 -0.04 0.06 -0.06 c0 -0.24 -0.08 -0.44 -0.08 -0.66 c0 -0.1 0.04 -0.5 0.12 -0.54 c-0.04 -0.04 -0.12 -0.2 -0.12 -0.24 c0 -0.06 0.08 -0.38 0.08 -0.46 l-0.08 -0.12 c-0.06 0.02 0.12 -0.14 0.12 -0.22 c-0.04 -0.06 -0.04 -0.1 -0.04 -0.16 l0.04 0 c0 -0.08 -0.12 -0.08 -0.12 -0.2 l0.04 -0.08 l-0.04 -0.08 c0 -0.3 0.08 0 0.12 -0.3 c-0.02 -0.02 -0.04 -0.14 -0.08 -0.2 c-0.02 0 0 -0.06 0.08 -0.08 c0 -0.22 -0.04 -0.34 -0.04 -0.5 s0.04 -0.3 0.04 -0.46 c0 -0.12 -0.04 -0.32 -0.12 -0.36 c0.08 -0.04 0.08 -0.04 0.08 -0.1 c0 -0.08 -0.04 -0.12 -0.04 -0.2 l0.08 0 c0 -0.16 -0.04 -0.32 -0.04 -0.48 c0 -0.08 -0.02 -0.26 0.04 -0.3 c0 -0.12 -0.08 -0.32 -0.12 -0.42 c-0.06 -0.06 0.08 0.16 0.08 -0.6 c0.02 0 -0.02 -0.04 -0.08 -0.06 c0 -0.16 0.08 -0.4 0.08 -0.56 c0 -0.1 0 -0.14 -0.12 -0.18 c0.04 -0.02 0.08 -0.14 0.12 -0.16 c0 -0.12 -0.04 -0.2 -0.04 -0.32 c0 -0.06 0.04 -0.06 0.04 -0.1 c0 -0.16 -0.12 -0.32 -0.12 -0.48 c0 -0.08 0.08 -0.14 0.08 -0.26 l-0.04 -0.08 c0.06 -0.06 0.12 -0.08 0.12 -0.24 c0.02 -0.22 -0.16 -0.64 -0.16 -0.9 c0.08 0 0.08 -0.12 0.08 -0.2 c0 -0.26 -0.04 -0.38 -0.04 -0.56 c0 -0.12 0.08 -0.24 0.08 -0.4 c0 -0.08 -0.08 -0.12 -0.08 -0.18 c0 -0.08 0.1 -0.14 0.1 -0.2 c0 -0.02 -0.06 -0.12 -0.14 -0.16 c0 -0.14 0.04 -0.28 0.04 -0.38 c0 -0.04 -0.04 -0.08 -0.04 -0.16 l0.04 -0.04 c-0.12 -0.24 -0.58 -0.24 -0.58 -0.46 c0 -0.24 0.22 -0.44 0.42 -0.44 c0.08 0.06 0.34 0.04 0.42 0.04 l0.04 -0.04 c0.2 -0.02 0.4 0.04 0.62 0.04 c0.12 0 0.24 -0.08 0.36 -0.12 l0.08 0.04 c0.14 0.02 0.32 -0.04 0.46 -0.04 c0.32 0 0.5 0.18 0.78 0.18 c0.84 0 1.02 0.74 1.52 1.14 c0.02 0.06 0 0.08 -0.04 0.16 c0.12 0.46 0.42 0.9 0.42 1.44 l-0.04 0.08 l0 1.2 c-0.04 0 -0.08 0.12 -0.08 0.16 c0.04 0.02 0.08 0.08 0.08 0.12 c0 0.12 -0.16 0.3 -0.2 0.42 c-0.14 0.66 -0.46 0.98 -0.96 1.4 c-0.04 0.04 -0.38 0.24 -0.38 0.3 c0 0.2 0.46 0.36 0.58 0.36 c0.08 0.2 0.52 0.74 0.54 0.86 l0.08 0.04 c-0.02 0.02 -0.02 0.06 -0.02 0.1 c0 0.06 0.04 0.16 0.14 0.16 l-0.08 0.12 c0 0.2 0.1 0.42 0.1 0.62 l-0.06 0.16 c0.06 0.3 0.06 0.8 0.06 0.96 c0 -0.02 0 0.06 -0.02 0.12 c0.02 -0.02 -0.02 0.04 0.06 0.08 c-0.1 0.04 -0.1 0.7 -0.1 0.82 c0 0.08 0.04 0.26 0.1 0.3 c-0.04 0.14 -0.04 0.16 -0.04 0.22 l0 0.14 l0.04 0 c0 0.12 -0.06 0.24 -0.06 0.34 c0 0.08 0.02 0.16 0.02 0.2 c0 0.2 -0.06 0.2 -0.1 0.36 l0.1 0.04 s0 0.06 -0.02 0.1 l0.02 0.08 l0 0.48 c0.16 0.18 0.16 0.26 0.44 0.26 c0.12 0 0.2 -0.54 0.3 -0.54 c0.2 0 0.24 0.38 0.24 0.46 c0 0.16 0 0.24 -0.04 0.4 l-0.08 -0.08 c-0.22 0.3 -0.66 0.5 -1.04 0.5 l0 -0.08 z M65.624 20 l-0.04 0.04 l0.04 0 l0 -0.04 z M65.824 19.42 c0.06 0.02 0.12 0.06 0.16 0.12 l0.04 -0.08 l-0.04 -0.04 l0.04 -0.08 c0.02 0 0 -0.06 -0.08 -0.08 c0 -0.04 -0.12 0.04 -0.12 0.16 z M65.744 12.780000000000001 c-0.02 0 -0.02 0.02 -0.02 0.04 s0 0.04 0.02 0.04 s0.04 -0.02 0.04 -0.04 s-0.02 -0.04 -0.04 -0.04 z M65.784 11.62 c0.06 0.06 0.04 0.48 0.04 0.74 c0.12 0 0.2 -0.04 0.26 -0.04 c0.08 0 0.12 0.04 0.16 0.04 c0.24 0 0.4 0 0.54 -0.16 c0.1 0 0.04 0.04 0.12 0.04 s0.32 -0.58 0.48 -0.62 c0 -0.24 0.02 -0.42 0.18 -0.62 c0 -0.28 -0.12 -0.72 -0.12 -1.12 c0 -0.22 0.16 -0.5 0.16 -0.74 c0 -0.08 -0.08 -0.12 -0.08 -0.2 c-0.02 -0.02 0.02 -0.08 0.04 -0.12 c0 -0.04 -0.04 -0.2 -0.04 -0.24 c-0.02 -0.04 0.04 -0.12 0.04 -0.18 c0 -0.2 -0.12 -0.36 -0.12 -0.48 c0 -0.14 0.04 -0.26 0.04 -0.42 c0 -0.4 -0.42 -0.96 -0.7 -0.86 l-0.04 0.08 c0 -0.1 -0.12 -0.12 -0.22 -0.12 c-0.44 0 -0.28 0.12 -0.4 0.12 c-0.1 -0.06 -0.18 -0.04 -0.18 -0.04 c0.02 0.02 0.04 0.02 0.04 0.08 l-0.16 0.08 l0 0.58 l-0.04 0.04 c0 0.04 0.02 0.08 0.04 0.12 l-0.04 0.16 c0 0.6 -0.04 0.76 0.16 1.2 c0.04 0 0.06 0.04 0.06 0.08 s-0.02 0.1 -0.02 0.12 c0 0.04 0 0.06 0.04 0.06 c0.08 0 0.04 0 0.06 -0.02 c0 0.04 -0.02 0.1 -0.02 0.14 c0 0.26 0.14 0.42 0.14 0.7 l-0.04 0.04 c-0.04 -0.26 -0.1 -0.54 -0.26 -0.78 l-0.04 0.12 c0.02 0 -0.02 0.02 0.04 0.08 c0 0.36 -0.06 0.36 -0.12 0.62 l0.08 0 c0 0.28 -0.12 0.62 -0.12 0.94 c0 0.12 0.12 0.26 0.12 0.34 c0 0.02 0 0.14 -0.08 0.24 z M67.144 11.96 c-0.02 0 -0.02 0.02 -0.02 0.04 s0 0.04 0.02 0.04 s0.04 -0.02 0.04 -0.04 s-0.02 -0.04 -0.04 -0.04 z M67.484 11.38 l0 0.04 l0.04 -0.04 l-0.04 0 z M67.524 9.76 c-0.02 0 -0.02 0.02 -0.02 0.04 s0 0.04 0.02 0.04 s0.04 -0.02 0.04 -0.04 s-0.02 -0.04 -0.04 -0.04 z M65.864 9.2 c-0.02 0 -0.02 0.02 -0.02 0.04 s0 0.04 0.02 0.04 s0.04 -0.02 0.04 -0.04 s-0.02 -0.04 -0.04 -0.04 z M65.824 9.18 c-0.02 0 -0.02 0.02 -0.02 0.02 c0 0.02 0 0.04 0.02 0.04 s0.04 -0.02 0.04 -0.04 c0 0 -0.02 -0.02 -0.04 -0.02 z M65.824 8.98 c-0.02 0 -0.02 0.02 -0.02 0.04 s0 0.04 0.02 0.04 s0.04 -0.02 0.04 -0.04 s-0.02 -0.04 -0.04 -0.04 z M65.784 8.86 c-0.02 0 -0.02 0.02 -0.02 0.04 s0 0.04 0.02 0.04 s0.04 -0.02 0.04 -0.04 s-0.02 -0.04 -0.04 -0.04 z M65.744 8.74 c-0.02 0 -0.02 0.02 -0.02 0.04 s0 0.04 0.02 0.04 s0.04 -0.02 0.04 -0.04 s-0.02 -0.04 -0.04 -0.04 z M66.084 6.5600000000000005 c0 0 -0.02 0.02 -0.02 0.04 s0.02 0.04 0.02 0.04 c0.02 0 0.04 -0.02 0.04 -0.04 s-0.02 -0.04 -0.04 -0.04 z M74.858 19.62 c0 -0.16 0.24 -0.54 0.34 -0.54 c0.12 0 0.2 0.04 0.32 0.04 c0.32 0 0.4 -0.34 0.4 -0.64 c0 -0.1 0 -0.18 -0.02 -0.26 c0.04 0 0.12 -0.08 0.12 -0.12 c0 -0.08 -0.04 -0.14 -0.04 -0.22 c0 -0.12 0.04 -0.12 0.04 -0.2 c-0.04 -0.04 -0.12 0 -0.16 -0.08 c0.08 0 0.16 -0.16 0.16 -0.2 l0 -0.5 c0.04 -0.04 0.04 -0.08 0.04 -0.12 c0 -0.12 -0.04 -0.22 -0.04 -0.34 c0 -0.5 0.28 -0.98 0.28 -1.44 c0.02 -0.06 -0.02 -0.16 -0.04 -0.24 c0 -0.14 0.16 -0.34 0.16 -0.5 l-0.04 -0.08 c-0.02 -0.26 0.14 -0.64 0.14 -0.96 l-0.02 -0.16 c-0.02 -0.28 0.1 -0.52 0.1 -0.78 c0 -0.12 -0.04 -0.2 -0.04 -0.3 c0 -0.2 0.08 -1.02 0.24 -1.02 c0 -0.12 -0.04 -0.16 -0.04 -0.3 c0 -0.32 0.2 -0.6 0.2 -0.9 c0 -0.2 -0.08 -0.4 -0.08 -0.58 c0 -0.4 0.12 -0.74 0.12 -1.18 c0.08 -0.02 0.2 -0.3 0.2 -0.38 s-0.08 -0.16 -0.08 -0.28 c0 0 0.04 -0.2 0.04 -0.22 c0 0.02 0 -0.06 -0.04 -0.12 c0.02 0 -0.02 -0.02 0.04 -0.08 l0 -0.26 c0.06 -0.04 0.06 -0.08 0.06 -0.12 c0 -0.08 -0.02 -0.12 -0.06 -0.16 c0.02 -0.04 0.04 -0.04 0.04 -0.04 l0.04 0 c0.18 0 0.2 -0.74 0.64 -0.74 c0.16 0 0.48 0.58 0.48 0.62 c0 0.06 -0.02 0.04 -0.04 0.08 c0 0.82 0.26 1.2 0.26 1.9 c0 0.2 -0.04 0.36 -0.04 0.5 c0 0.38 0.24 0.96 0.2 1.22 l0.04 0.04 l0 0.42 l-0.04 0.08 s0.04 0.22 0.08 0.3 l-0.04 0.08 l0.04 0.08 l-0.08 0.08 c0.12 0.04 0.28 0.62 0.28 0.74 c0 0.08 -0.04 0.12 -0.04 0.2 c0 0.06 0.16 0.22 0.16 0.34 c0 0.08 -0.08 0.16 -0.08 0.24 c0 0.14 0.14 0.3 0.14 0.46 c0 0.08 -0.02 0.12 -0.02 0.24 c0 0.1 0.1 0.14 0.1 0.26 c0 0.08 -0.08 0.2 -0.08 0.32 c0 0.28 0.16 0.56 0.16 0.9 l0 0.1 c0.12 0.16 0.04 0.4 0.24 0.54 c-0.04 0.12 -0.04 0.2 -0.04 0.32 c0 0.08 0.04 0.08 0.04 0.12 c0 0.02 -0.02 0.12 -0.04 0.2 c0 0.06 0.08 0.46 0.16 0.5 l0 0.1 c0 0.22 0.08 0.42 0.08 0.66 l0 0.12 c0.1 0.04 0.1 0.44 0.18 0.56 c-0.08 0.06 -0.08 0.06 -0.08 0.14 s0.04 0.2 0.12 0.24 l0 0.14 c0 0.2 0.06 0.38 0.06 0.58 c0 0.04 -0.02 0.1 -0.02 0.14 c0.12 0.08 0.46 0.18 0.54 0.3 c-0.04 0.58 -0.08 0.66 -0.66 0.66 c-0.22 0 -0.38 -0.08 -0.62 -0.08 c-0.26 0 -0.5 0.12 -0.8 0.12 c-0.2 0 -0.64 -0.22 -0.64 -0.5 c0 0 0.48 -0.5 0.56 -0.5 c0.04 0 0.1 0.04 0.1 0.08 c0.04 -0.16 0.04 -0.24 0.04 -0.4 c0 -0.22 -0.14 -0.38 -0.14 -0.58 c0 -0.08 0.04 -0.16 0.04 -0.24 c0 -0.26 -0.28 -1.5 -0.4 -1.7 c-0.04 -0.08 -0.26 -0.12 -0.34 -0.12 l0 0.08 c-0.04 -0.08 -0.04 -0.08 -0.12 -0.08 c-0.66 0 -0.74 0.36 -0.78 0.94 c0 0.08 0 0.14 -0.04 0.22 l0.08 0.08 c-0.08 0.04 -0.12 0.24 -0.12 0.32 c-0.02 0.02 0.04 0.08 0.08 0.12 c0 0.14 -0.12 0.38 -0.12 0.54 c0 0.78 0.98 0.92 0.98 1.16 c0 0.36 -0.32 0.58 -0.66 0.58 l-0.04 -0.04 c-0.08 0 -0.12 0.04 -0.2 0.04 s-0.08 -0.04 -0.12 -0.04 c-0.08 0 -0.12 0.04 -0.16 0.04 c0.04 0.02 -0.12 -0.02 -0.18 -0.04 c-0.16 0 -0.44 0.08 -0.5 0.24 c-0.04 -0.12 -0.98 -0.16 -0.98 -0.74 z M78.518 19.38 l0 0.04 l0.02 0 z M80.138 19.34 c-0.02 0 -0.02 0.02 -0.02 0.04 s0 0.04 0.02 0.04 s0.04 -0.02 0.04 -0.04 s-0.02 -0.04 -0.04 -0.04 z M75.67800000000001 19.16 c-0.02 0 -0.02 0.02 -0.02 0.04 s0 0.04 0.02 0.04 s0.04 -0.02 0.04 -0.04 s-0.02 -0.04 -0.04 -0.04 z M75.75800000000001 19.12 c-0.02 0 -0.02 0.02 -0.02 0.04 s0 0.04 0.02 0.04 s0.04 -0.02 0.04 -0.04 s-0.02 -0.04 -0.04 -0.04 z M77.078 15.5 c0.02 0 0.04 -0.02 0.06 -0.02 c0.14 0 0.3 0.1 0.44 0.1 c0.04 0 0.34 -0.08 0.34 -0.12 c0 -0.08 -0.04 -0.08 -0.04 -0.12 c0 -0.12 0.26 -0.2 0.26 -0.38 c0 0.22 -0.1 -0.8 -0.32 -0.98 l0 -0.66 c0.04 0 0.04 -0.02 0.04 -0.06 c0 -0.2 -0.16 -0.44 -0.16 -0.62 l0.04 -0.08 c0.06 -0.04 -0.08 -0.18 -0.08 -0.32 l-0.16 0 c0 -0.08 0.08 -0.16 0.12 -0.24 l-0.08 -0.02 c-0.14 -0.04 -0.2 0.16 -0.2 0.26 c0 0.08 0.08 0.16 0.08 0.28 c0 0.08 -0.12 0.66 -0.22 0.7 c0 0.1 0.02 0.24 0.06 0.3 c0 0.2 -0.14 0.36 -0.14 0.54 c0 0.08 0.04 0.16 0.04 0.24 c0 0.12 0 0.28 -0.12 0.36 c0.08 0.02 0.08 0.14 0.08 0.22 c0 0.12 -0.08 0.2 -0.08 0.32 s0 0.18 0.04 0.3 z M78.11800000000001 15.42 c-0.06 0 -0.04 0.02 -0.08 0.04 l0.08 -0.04 l0 0 z M77.998 15.34 c-0.02 0 -0.02 0 -0.02 0.02 c0 0 0 0.02 0.02 0.02 s0.04 -0.02 0.04 -0.02 c0 -0.02 -0.02 -0.02 -0.04 -0.02 z M79.058 12.32 c-0.02 0 -0.02 0.02 -0.02 0.04 s0 0.04 0.02 0.04 s0.04 -0.02 0.04 -0.04 s-0.02 -0.04 -0.04 -0.04 z M77.53800000000001 11.82 c-0.02 0 -0.02 0 -0.02 0.02 c0 0 0 0.02 0.02 0.02 s0.04 -0.02 0.04 -0.02 c0 -0.02 -0.02 -0.02 -0.04 -0.02 z M77.45800000000001 11.54 l0 0.04 l0.08 -0.04 l-0.08 0 z M77.53800000000001 11.38 l0 0.04 l0.04 0 l0 -0.04 l-0.04 0 z M77.158 8.98 c-0.04 0 -0.04 0.04 -0.04 0.08 l0.04 0 l0 -0.08 z M77.078 8.64 c-0.02 0 -0.02 0.02 -0.02 0.02 c0 0.02 0 0.04 0.02 0.04 s0.04 -0.02 0.04 -0.04 c0 0 -0.02 -0.02 -0.04 -0.02 z M77.33800000000001 6.380000000000001 c-0.02 0 -0.02 0.02 -0.02 0.04 s0 0.04 0.02 0.04 s0.04 -0.02 0.04 -0.04 s-0.02 -0.04 -0.04 -0.04 z M77.298 6.34 c-0.02 0 -0.02 0.02 -0.02 0.04 s0 0.04 0.02 0.04 s0.04 -0.02 0.04 -0.04 s-0.02 -0.04 -0.04 -0.04 z M86.572 19.62 c0 -0.4 0.12 -0.32 0.2 -0.58 l0.06 0.04 l0 -0.28 l0.08 -0.04 c0 -0.22 0.02 -0.34 -0.04 -0.58 c0.04 0 0.04 -0.08 0.04 -0.08 c0 -0.12 -0.04 -0.24 -0.04 -0.32 c0 -0.1 0.04 -0.22 0.04 -0.34 l-0.04 -0.04 c0.04 -0.12 0.08 -0.3 0.08 -0.42 c0 -0.16 -0.08 -0.32 -0.08 -0.44 c0 -0.08 0.12 -0.04 0.12 -0.14 c0 -0.16 -0.12 -0.32 -0.12 -0.48 c0 -0.08 0.04 -0.14 0.08 -0.22 l0 -0.48 c-0.08 -0.1 -0.12 -0.26 -0.12 -0.38 c0 -0.04 0.04 -0.04 0.04 -0.12 l0.08 0 c0 -0.24 -0.08 -0.42 -0.08 -0.66 c0 -0.12 0.04 -0.34 0.08 -0.46 c0.04 -0.06 -0.12 -0.24 -0.12 -0.24 c0 0.08 0.04 -0.34 0.04 -0.5 c0.04 -0.02 -0.04 -0.1 -0.04 -0.24 c0 -0.04 0.04 -0.04 0.04 -0.08 c0.02 0 -0.02 -0.12 -0.04 -0.18 c-0.04 0.02 0.04 -0.1 0.04 -0.24 c0 -0.08 -0.04 -0.42 -0.06 -0.42 c0 -0.04 0.06 -0.12 0.06 -0.16 c0.02 -0.14 -0.06 -0.26 -0.06 -0.4 c0 -0.06 0.1 -0.84 0.1 -0.84 c-0.08 -0.04 -0.18 -0.28 -0.18 -0.36 l0.1 0 c0.04 0 0.04 -0.16 0.04 -0.22 c0 -0.12 -0.1 -0.28 -0.1 -0.36 s0.04 -0.12 0.04 -0.16 c0 -0.08 -0.04 -0.14 -0.04 -0.22 c0 -0.12 0.06 -0.2 0.14 -0.28 c0 -0.08 -0.08 -0.12 -0.1 -0.12 l0 -0.34 c-0.12 -0.08 -0.2 -1.24 -0.52 -1.24 l0.04 0 l0 -0.2 c-0.22 -0.08 -0.54 -0.5 -0.54 -0.78 c0.12 0 0.2 -0.12 0.32 -0.12 c0.06 0.02 0.04 0.04 0.14 0.04 c0.12 0 0.44 0 0.52 -0.08 l0.04 0.08 c0.02 0 0.08 -0.02 0.1 -0.04 l0.08 0.08 l0.08 -0.04 c0.36 0 0.9 0.36 0.9 0.7 c0 0.04 -0.04 0.08 -0.04 0.16 c0 0.04 0.2 0.7 0.3 0.7 l-0.1 0.12 c0.06 0 0.22 0.26 0.26 0.38 l-0.04 0.08 c-0.04 0.02 0.04 0.14 0.04 0.24 c0.04 -0.02 0.08 -0.04 0.12 -0.04 c-0.04 0.04 -0.04 0.08 -0.04 0.16 c0 0.14 0.04 0.26 0.08 0.42 c0.02 0 0.02 -0.02 0.04 -0.02 c0.08 0 0 0.14 0.1 0.14 c0.02 0 0.02 0 0.06 -0.04 c0 0.12 -0.04 0.16 -0.04 0.22 c0 0.14 0.1 0.22 0.1 0.34 c0 0.02 -0.02 0.04 -0.02 0.06 c0.04 -0.04 0.06 -0.04 0.14 -0.04 c0 0.26 0.12 0.34 0.12 0.46 c0 0.08 -0.04 0.12 -0.04 0.2 c0 0.2 0.28 0.54 0.32 0.74 c0.08 0.34 0.42 1.82 0.62 2.18 c0.04 0.06 0.22 0.22 0.22 0.3 l-0.1 0.04 c0 0.06 0.08 0.14 0.08 0.2 l0.06 -0.04 l0 0.02 c0 0.1 0.16 0.24 0.16 0.36 l0.02 0 c0.04 0 0.16 0.12 0.22 0.12 c0 -0.1 -0.06 -0.2 -0.12 -0.28 l0.04 -0.14 l-0.04 -0.04 c0.12 -0.04 0.12 -0.08 0.12 -0.2 c0 -0.06 0.02 -0.1 -0.04 -0.12 l0.04 -0.08 c0.02 -0.12 -0.04 -0.14 -0.04 -0.22 c-0.02 -0.02 0.04 -0.1 0.08 -0.16 c0 -0.16 -0.08 -0.28 -0.08 -0.4 c0 -0.14 0.08 -0.3 0.08 -0.42 c0 -0.24 -0.04 -0.42 -0.04 -0.62 c0 -0.14 0 -0.14 0.04 -0.2 l-0.04 -0.1 c0 -0.02 -0.02 -0.08 0.04 -0.2 c0 -0.16 -0.04 -0.4 -0.08 -0.54 l0.08 0 c0 -0.24 -0.04 -0.36 -0.04 -0.56 c0 -0.14 0.04 -0.22 0.04 -0.34 c0 -0.08 -0.12 -0.16 -0.12 -0.28 c0 -0.08 0.04 -0.1 0.12 -0.22 c-0.08 -0.04 -0.08 -0.08 -0.08 -0.12 c0 -0.08 0.04 -0.08 0.04 -0.16 c0 -0.24 -0.16 -0.6 -0.16 -0.66 c0 -0.08 0.04 -0.16 0.04 -0.26 c0 -0.04 -0.04 -0.08 -0.04 -0.16 c0 -0.16 0.08 -0.32 0.12 -0.48 c-0.04 0.04 -0.08 0.08 -0.12 0.08 c-0.02 -0.04 0.02 -0.06 0.04 -0.1 c-0.08 -0.44 -0.86 -0.66 -0.86 -0.78 c0 -0.16 0.12 -0.36 0.24 -0.48 l0.04 0.04 c0.12 0 0.16 -0.04 0.26 -0.04 c0.06 -0.02 0.12 0.02 0.2 0.04 l0.12 -0.04 l0.04 0.08 c0.16 0 0.3 -0.12 0.42 -0.12 s0.24 0.12 0.32 0.16 c0.04 0 0.22 -0.08 0.26 -0.08 s0.24 0.28 0.24 0.32 c0 0.34 -0.54 0.5 -0.54 0.54 l0 0.08 l0.08 -0.04 c0 0.14 -0.2 0.22 -0.2 0.34 c0 0.08 0.04 0.12 0.04 0.2 c0 0.04 -0.04 0.08 -0.04 0.12 s0.02 0.08 0.04 0.12 c0 0.04 -0.04 0.2 -0.04 0.22 l0.04 0.04 c0 0.2 -0.12 0.4 -0.12 0.56 l0.04 0.06 c0 0.04 0.02 0.02 -0.04 0.24 c0 0.12 0.08 0.24 0.2 0.28 c-0.04 0.08 -0.12 0.06 -0.16 0.12 c0 0.14 0.1 0.38 0.08 0.54 l-0.04 -0.04 l0 0.34 l0.04 0.04 c0 0.06 -0.02 0.04 -0.04 0.08 c0 -0.02 0 0.06 0.08 0.12 c0 0.12 -0.16 0.3 -0.16 0.42 c0.06 0.02 0.04 0.06 0.04 0.12 l0.12 0 c0 0.24 -0.08 0.4 -0.08 0.62 c0 0.04 0.04 0.08 0.04 0.16 c0 0.2 -0.04 0.46 -0.08 0.66 l0.12 0.04 c0 0.12 -0.12 0.12 -0.12 0.16 l0.04 0.14 l-0.04 0.08 c0.06 0.06 0.04 0.18 0.04 0.28 l0.08 0.04 c-0.04 0.04 -0.12 0.04 -0.12 0.08 c0 0.06 0.02 0.04 0.04 0.08 l0 0.34 l0.08 0 c0 0.12 -0.12 0.12 -0.12 0.24 c0 0.14 0.08 0.14 0.08 0.3 s-0.08 0.32 -0.08 0.52 c0 0.1 0.04 0.34 0.12 0.42 l-0.12 0 c-0.02 0.02 0.02 0.08 0.04 0.12 l0 0.62 l0.04 0 c0 0.08 -0.04 0.34 -0.08 0.34 c0.04 0.12 0.04 0.16 0.04 0.28 c0 0.08 -0.04 0.08 -0.04 0.12 c0 0.1 0.02 0.08 0.04 0.14 c0 0.12 -0.08 0.28 -0.08 0.4 c0 0.08 0.16 0.08 0.16 0.16 c0 0.18 -0.08 0.38 -0.12 0.58 c0.04 0 0.04 0.04 0.04 0.08 c0 0.06 -0.04 0.14 -0.04 0.22 l0.12 0 c0 0.08 -0.04 0.08 -0.04 0.16 c0 0.04 0.04 0.08 0.04 0.16 l-0.08 0.04 c0 0.04 0.08 0.18 0.16 0.18 c-0.04 0 -0.08 0.52 -0.08 0.52 l0.04 0.04 c0 0.22 -0.16 0.46 -0.16 0.66 c-0.04 0 -0.12 0 -0.12 0.04 c0.08 0 0.12 0.1 0.12 0.14 c-0.16 0 -0.34 -0.08 -0.5 -0.08 c-0.08 -0.02 -0.08 -0.14 -0.16 -0.18 c0 -0.24 0.04 -0.32 0.04 -0.48 c0 -0.22 -0.28 -0.66 -0.24 -0.72 l-0.04 0 l0 -0.4 c-0.06 -0.04 -0.26 -0.86 -0.26 -0.96 c-0.04 0 -0.04 -0.04 -0.04 -0.06 l0 -0.1 c-0.12 0 -0.12 -0.12 -0.16 -0.28 l0.04 -0.04 c0 -0.14 -0.12 -0.26 -0.2 -0.38 c0 -0.16 0.02 -0.32 -0.06 -0.42 c0.02 -0.04 0.02 -0.1 0.02 -0.12 c0 -0.12 -0.38 -0.74 -0.42 -0.98 c-0.04 -0.26 -0.12 -0.7 -0.38 -0.86 l0.08 -0.06 l0 -0.02 c0 -0.16 -0.44 -0.88 -0.44 -0.88 c0 -0.08 0.08 -0.12 0.08 -0.2 c0 -0.2 -0.24 -0.38 -0.24 -0.54 l0.04 -0.08 c0 -0.2 -0.14 -0.2 -0.14 -0.38 l0.1 0 c-0.18 -0.2 -0.46 -1.36 -0.66 -1.36 c-0.04 0 -0.1 0 -0.1 0.12 c0.06 0 0.06 0.04 0.06 0.06 c0 0.04 -0.02 0.08 -0.02 0.16 l0.02 0.04 c0 0.36 -0.14 0.76 -0.1 1.1 l0.08 0.06 c0 0.04 -0.12 0.24 -0.12 0.28 c-0.02 -0.02 0 0.06 0.08 0.08 c0 0.06 -0.02 0.04 -0.04 0.08 c0 0.16 0.04 0.26 0.04 0.38 c0 0.16 0 0.32 -0.08 0.46 l0.18 0.2 c-0.04 0.08 -0.06 0.2 -0.06 0.28 c0 0.02 0.02 0.08 0.02 0.12 l-0.02 0.06 c0 0.02 0.06 0.2 0.06 0.28 c0.02 -0.02 -0.1 0.32 -0.1 0.58 l0.14 0.12 c0 0.08 -0.08 0.04 -0.08 0.12 s0.02 0.16 0.04 0.24 l-0.04 0.06 c0 0.24 0.06 0.42 0.06 0.68 c0 0.08 -0.02 0.16 -0.08 0.18 c0.02 0 0.04 0.02 0.04 0.06 c0 0.22 -0.02 0.24 -0.04 0.34 c0.02 0.18 0.14 0.2 0.14 0.28 c0 0.14 -0.12 0.3 -0.12 0.4 c0.02 0.02 0.02 0.18 0.08 0.2 c0 0.16 -0.1 0.36 -0.1 0.46 c0 0.06 0.02 0.04 0.02 0.08 c0 0.02 -0.02 0.12 -0.02 0.24 c0 0.24 0.12 0.52 0.14 0.7 c0.16 0.04 0.9 0.58 0.9 0.74 c0 0.3 -0.46 0.58 -0.7 0.58 c-0.08 0 -0.16 0 -0.2 -0.08 c0 0.04 -0.04 0.04 -0.06 0.04 c-0.08 0 -0.12 -0.02 -0.2 0 l0.04 -0.08 c-0.04 0 -0.28 0.12 -0.28 0.12 c-0.24 0 -0.54 -0.28 -0.54 -0.5 z M90.45200000000001 18.92 c-0.02 0 -0.02 0 -0.02 0.02 c0 0 0 0.02 0.02 0.02 s0.04 -0.02 0.04 -0.02 c0 -0.02 -0.02 -0.02 -0.04 -0.02 z M87.03200000000001 18.14 c-0.02 0 -0.02 0 -0.02 0.02 c0 0 0 0.02 0.02 0.02 s0.04 -0.02 0.04 -0.02 c0 -0.02 -0.02 -0.02 -0.04 -0.02 z M86.992 18.02 c-0.02 0 -0.02 0 -0.02 0.02 c0 0 0 0.02 0.02 0.02 s0.04 -0.02 0.04 -0.02 c0 -0.02 -0.02 -0.02 -0.04 -0.02 z M87.03200000000001 17.32 c-0.02 0 -0.02 0 -0.02 0.02 c0 0 0 0.02 0.02 0.02 s0.04 -0.02 0.04 -0.02 c0 -0.02 -0.02 -0.02 -0.04 -0.02 z M91.03200000000001 16.08 c-0.02 0 -0.02 0 -0.02 0.02 c0 0 0 0.02 0.02 0.02 s0.04 -0.02 0.04 -0.02 c0 -0.02 -0.02 -0.02 -0.04 -0.02 z M87.03200000000001 15.26 c-0.02 0 -0.02 0.02 -0.02 0.04 s0 0.04 0.02 0.04 s0.04 -0.02 0.04 -0.04 s-0.02 -0.04 -0.04 -0.04 z M90.73200000000001 15.18 c-0.02 0 -0.02 0.02 -0.02 0.04 s0 0.04 0.02 0.04 s0.04 -0.02 0.04 -0.04 s-0.02 -0.04 -0.04 -0.04 z M90.73200000000001 15 c-0.04 0 -0.04 0.08 -0.04 0.12 l0.08 0 z M90.53200000000001 14.6 c-0.02 0 -0.02 0 -0.02 0.02 c0 0 0 0.02 0.02 0.02 s0.04 -0.02 0.04 -0.02 c0 -0.02 -0.02 -0.02 -0.04 -0.02 z M90.65200000000002 14.42 c-0.02 0 -0.02 0.02 -0.02 0.02 c0 0.02 0 0.04 0.02 0.04 s0.04 -0.02 0.04 -0.04 c0 0 -0.02 -0.02 -0.04 -0.02 z M90.61200000000001 14.379999999999999 c-0.02 0 -0.02 0 -0.02 0.02 c0 0 0 0.02 0.02 0.02 s0.04 -0.02 0.04 -0.02 c0 -0.02 -0.02 -0.02 -0.04 -0.02 z M90.492 14.219999999999999 c-0.02 0 -0.02 0.02 -0.02 0.04 s0 0.04 0.02 0.04 s0.04 -0.02 0.04 -0.04 s-0.02 -0.04 -0.04 -0.04 z M90.65200000000002 14.14 c-0.02 0 -0.02 0 -0.02 0.02 c0 0 0 0.02 0.02 0.02 s0.04 -0.02 0.04 -0.02 c0 -0.02 -0.02 -0.02 -0.04 -0.02 z M90.45200000000001 14.1 c-0.02 0 -0.02 0.02 -0.02 0.04 s0 0.04 0.02 0.04 s0.04 -0.02 0.04 -0.04 s-0.02 -0.04 -0.04 -0.04 z M90.65200000000002 13.940000000000001 c-0.02 0 -0.02 0.02 -0.02 0.04 s0 0.04 0.02 0.04 s0.04 -0.02 0.04 -0.04 s-0.02 -0.04 -0.04 -0.04 z M90.73200000000001 13.780000000000001 c-0.04 0 -0.04 0.08 -0.04 0.12 l0.04 0 l0 -0.12 z M86.95200000000001 13.36 c-0.02 0 -0.02 0.02 -0.02 0.04 s0 0.04 0.02 0.04 s0.04 -0.02 0.04 -0.04 s-0.02 -0.04 -0.04 -0.04 z M90.772 13.059999999999999 c-0.06 0 -0.04 0.02 -0.08 0.04 l0.08 -0.04 l0 0 z M90.61200000000001 12.940000000000001 c-0.02 0 -0.02 0.02 -0.02 0.04 s0 0.04 0.02 0.04 s0.04 -0.02 0.04 -0.04 s-0.02 -0.04 -0.04 -0.04 z M86.912 12.620000000000001 c-0.02 0 -0.02 0 -0.02 0.02 c0 0 0 0.02 0.02 0.02 s0.04 -0.02 0.04 -0.02 c0 -0.02 -0.02 -0.02 -0.04 -0.02 z M88.39200000000001 12.280000000000001 c0 -0.02 0 -0.04 -0.02 -0.04 c0 0 -0.02 0.02 -0.02 0.04 s0.02 0.02 0.02 0.02 c0.02 0 0.02 0 0.02 -0.02 z M90.73200000000001 11.78 c-0.02 0 -0.02 0.02 -0.02 0.02 c0 0.02 0 0.04 0.02 0.04 s0.04 -0.02 0.04 -0.04 c0 0 -0.02 -0.02 -0.04 -0.02 z M90.69200000000001 11.62 c-0.02 0 -0.02 0 -0.02 0.02 c0 0 0 0.02 0.02 0.02 s0.04 -0.02 0.04 -0.02 c0 -0.02 -0.02 -0.02 -0.04 -0.02 z M90.69200000000001 10.56 c-0.02 0 -0.02 0 -0.02 0.02 c0 0 0 0.02 0.02 0.02 s0.04 -0.02 0.04 -0.02 c0 -0.02 -0.02 -0.02 -0.04 -0.02 z M87.47200000000001 10.18 l-0.04 0.04 l0.04 0 l0 -0.04 z M89.01200000000001 9.94 c-0.02 0 -0.02 0.02 -0.02 0.04 s0 0.04 0.02 0.04 s0.04 -0.02 0.04 -0.04 s-0.02 -0.04 -0.04 -0.04 z M87.432 9.64 c-0.02 0 -0.02 0 -0.02 0.02 c0 0 0 0.02 0.02 0.02 s0.04 -0.02 0.04 -0.02 c0 -0.02 -0.02 -0.02 -0.04 -0.02 z M87.432 9.48 c-0.04 0 -0.08 0 -0.08 0.04 l0.08 0 l0 -0.04 z M86.87200000000001 9.36 c-0.02 0 -0.02 0.02 -0.02 0.04 s0 0.04 0.02 0.04 s0.04 -0.02 0.04 -0.04 s-0.02 -0.04 -0.04 -0.04 z M90.65200000000002 9.16 c-0.02 0 -0.02 0.02 -0.02 0.04 s0 0.04 0.02 0.04 s0.04 -0.02 0.04 -0.04 s-0.02 -0.04 -0.04 -0.04 z M86.87200000000001 8.12 c-0.02 0 -0.02 0.02 -0.02 0.04 s0 0.04 0.02 0.04 s0.04 -0.02 0.04 -0.04 s-0.02 -0.04 -0.04 -0.04 z M90.61200000000001 7.619999999999999 l-0.04 0.04 l0.04 0 l0 -0.04 z M88.09200000000001 7.380000000000001 c-0.02 0 -0.02 0.02 -0.02 0.04 s0 0.04 0.02 0.04 s0.04 -0.02 0.04 -0.04 s-0.02 -0.04 -0.04 -0.04 z M91.15200000000002 6.880000000000001 c-0.02 0 -0.02 0 -0.02 0.02 c0 0 0 0.02 0.02 0.02 s0.04 -0.02 0.04 -0.02 c0 -0.02 -0.02 -0.02 -0.04 -0.02 z M91.19200000000001 6.68 c-0.02 0 -0.02 0.02 -0.02 0.04 s0 0.04 0.02 0.04 s0.04 -0.02 0.04 -0.04 s-0.02 -0.04 -0.04 -0.04 z M91.43200000000002 6.52 c-0.02 0 -0.02 0.02 -0.02 0.04 s0 0.04 0.02 0.04 s0.04 -0.02 0.04 -0.04 s-0.02 -0.04 -0.04 -0.04 z M98.346 19.66 c0 -0.24 0.16 -0.24 0.32 -0.24 c0.1 0 0.26 0.08 0.34 0.08 l0.08 -0.04 c-0.04 -0.04 -0.08 -0.08 -0.08 -0.12 s0.14 0.04 0.2 0.08 l0.04 0 c0 -0.12 -0.04 -0.16 -0.04 -0.26 c0 -0.08 0.04 -0.08 0.04 -0.2 c0 -0.08 -0.08 -0.16 -0.08 -0.24 s0.04 -0.12 0.04 -0.2 c0 -0.12 -0.12 -0.32 -0.12 -0.52 c0 -0.18 0.22 -0.52 0.22 -0.76 c0 -0.02 -0.02 -0.26 -0.14 -0.26 l0.08 -0.08 c0 -0.12 -0.08 -0.16 -0.08 -0.24 s0.04 -0.16 0.04 -0.22 c0 -0.16 -0.08 -0.36 -0.08 -0.52 c-0.02 -0.02 0.04 -0.1 0.08 -0.14 c-0.04 -0.06 -0.06 -0.18 -0.08 -0.2 c0 -0.12 0.12 -0.3 0.12 -0.32 c0 -0.08 -0.04 -0.1 -0.04 -0.18 c-0.02 -0.02 0.02 -0.08 0.04 -0.12 c-0.04 -0.06 -0.06 -0.18 -0.08 -0.2 c-0.04 0 0.04 -0.08 0.04 -0.2 c0 -0.18 -0.04 -0.34 -0.04 -0.54 c0 -0.12 0.04 -0.22 0.04 -0.38 c0 -0.08 -0.04 -0.12 -0.04 -0.24 c0 -0.2 0.12 -0.38 0.12 -0.58 c0 -0.1 -0.08 -0.26 -0.08 -0.34 c0 -0.04 0.04 -0.06 0.08 -0.08 c0 -0.32 -0.12 -0.66 -0.12 -0.98 l0.04 -0.12 c0.02 -0.12 -0.04 -0.14 -0.04 -0.22 c0 -0.04 0.04 -0.08 0.04 -0.12 c0 -0.08 -0.08 -0.16 -0.08 -0.32 c0 -0.14 0.12 -0.34 0.12 -0.58 c0.02 -0.02 -0.02 -0.1 -0.04 -0.16 c0 -0.1 0.08 -0.18 0.08 -0.3 c0 -0.16 -0.08 -0.24 -0.08 -0.44 c-0.02 -0.08 0.08 -0.2 0.08 -0.26 c0 -0.12 -0.04 -0.2 -0.12 -0.28 c0 -0.04 0.04 -0.14 0.04 -0.18 c0.1 -0.02 -0.08 -0.06 -0.08 -0.28 c0 -0.16 0.16 -0.32 0.16 -0.46 l-0.08 -0.08 c0.02 -0.14 0.04 -0.28 0.04 -0.42 c0 -0.32 -0.1 -0.6 -0.48 -0.6 c-0.14 0 -0.5 0.62 -0.5 0.78 l0.04 0.08 c0.04 0.24 -0.28 0.6 -0.28 0.9 l0.04 0.08 c0 0.22 -0.22 0.42 -0.22 0.66 c0 0.04 0.04 0.06 0.04 0.1 s-0.02 0.08 -0.04 0.12 l0.04 0.08 c0 0.2 -0.16 0.42 -0.16 0.54 c0 0.04 0 0.08 0.04 0.08 c-0.04 0.2 -0.08 0.4 -0.24 0.54 c-0.04 0 -0.18 -0.04 -0.26 -0.04 c0.02 -0.02 0.02 -0.02 0.02 -0.04 c0 -0.12 -0.26 -0.36 -0.26 -0.5 c0 -0.04 0 -0.08 0.08 -0.08 l0 -0.3 l0.08 0.04 c0 -0.02 0.02 0.02 0.08 -0.04 c-0.08 -0.04 -0.12 -0.16 -0.12 -0.24 l0.08 -0.08 c0.02 -0.12 -0.04 -0.24 -0.04 -0.38 c0 -0.08 0.04 -0.12 0.04 -0.2 s-0.04 -0.12 -0.04 -0.22 c0 -0.12 0.04 -0.2 0.04 -0.36 c0 -0.2 -0.04 -0.28 -0.12 -0.34 c-0.02 0.04 0.02 -0.16 0.12 -0.16 c-0.08 -0.04 -0.08 -0.04 -0.08 -0.12 s0.04 -0.16 0.04 -0.24 l-0.08 0 c0 -0.18 -0.08 -0.38 -0.08 -0.58 c0 -0.1 0.02 -0.12 0.08 -0.18 l-0.04 -0.12 c0 -0.24 0.38 -0.44 0.54 -0.52 c0.08 0.04 0.16 0.04 0.24 0.04 c0.38 0 0.82 -0.08 1.2 -0.08 c0.14 0 0.16 0 0.24 0.04 l0.14 -0.04 c0.08 0 0.22 -0.02 0.32 0.04 l0.62 0 c0.04 0 0.12 -0.06 0.16 -0.06 s0.08 0 0.12 0.02 l0.66 0 c0.04 0 0.1 0.08 0.14 0.08 c0.12 0 0.24 -0.14 0.44 -0.14 c0.12 0 0.18 0.14 0.3 0.14 l0.04 0 c0.16 0.12 0.24 0.36 0.4 0.48 l0 0.46 l-0.08 0.04 c0 0.04 0.04 0.08 0.08 0.12 c0 0.04 -0.04 0.12 -0.08 0.12 c0.04 0 0.04 0.04 0.04 0.06 c0.04 0 -0.04 0.12 -0.08 0.2 c0 0.12 0.12 0.16 0.12 0.24 c0.02 -0.04 -0.04 0.3 -0.12 0.38 l0.04 0.08 l0 0.54 l0.08 0.08 c0 0.04 -0.02 0.08 -0.04 0.12 l0.04 0.16 c0.02 0.06 0 0.08 -0.04 0.16 c0.04 0.04 0.06 0.1 0.08 0.18 c0 0.02 -0.02 0.12 -0.04 0.2 c0 0.12 0 0.3 0.1 0.34 c-0.04 0 -0.1 0.08 -0.1 0.12 c0.02 0.08 0.06 0.14 0.04 0.2 c0 0.12 -0.16 0.42 -0.32 0.42 c-0.2 0 -0.42 -0.38 -0.42 -0.58 c0 -0.12 0.1 -0.26 0.1 -0.42 s-0.22 -0.2 -0.22 -0.36 c0 -0.08 0.04 -0.14 0.04 -0.22 c0 -0.12 -0.04 -0.24 -0.04 -0.36 c0 -0.08 0.04 -0.12 0.04 -0.18 c0 -0.08 -0.16 -0.28 -0.2 -0.36 c-0.16 -0.28 -0.24 -1.48 -0.66 -1.48 l-0.04 0 l0 -0.08 c-0.12 0 -0.38 0.12 -0.38 0.28 l0 0.38 c0 0.04 0.12 0.04 0.12 0.04 c0 0.24 -0.08 0.48 -0.12 0.7 l0.04 0.08 c0 0.04 -0.08 0.2 -0.08 0.24 c-0.02 0.18 0.12 0.3 0.22 0.34 c-0.1 0 -0.22 0.24 -0.22 0.32 c0 0.12 0.04 0.12 0.04 0.2 c0 0.06 -0.08 0.06 -0.08 0.1 c0 0.16 0.08 0.28 0.08 0.4 s-0.08 0.18 -0.08 0.3 l0.08 0 s0.04 0 0.08 -0.04 c0 0.08 -0.04 0.16 -0.04 0.24 s0.04 0.2 0.04 0.28 c0.02 0.02 -0.02 0.06 -0.04 0.1 l0.08 0.08 c0 0.08 -0.04 0.12 -0.04 0.2 c0 0.04 0.04 0.08 0.04 0.12 c0 0.3 -0.16 0.62 -0.16 0.92 l0.08 0.08 l-0.04 0.08 c0 0.12 -0.02 0.12 0.12 0.12 c-0.04 0.04 -0.08 0.08 -0.08 0.12 l0.04 0.04 c0 0.04 -0.08 0.18 -0.08 0.26 c-0.02 0.14 0.12 0.24 0.12 0.28 c0 0.16 -0.16 0.34 -0.16 0.54 c0 0.04 0 0.12 0.06 0.12 l0.02 0 l-0.04 0.04 c0 0.16 0.02 0.4 -0.04 0.46 c0 0.08 0.12 0.16 0.12 0.28 c0 0.16 -0.08 0.3 -0.08 0.46 s0.08 0.24 0.08 0.4 c-0.04 -0.02 -0.12 0.04 -0.12 0.06 c0.02 0.06 0.12 0.12 0.12 0.32 s-0.12 0.38 -0.12 0.62 l0.12 0 c0.06 0.02 -0.08 0.12 -0.08 0.2 l0 0.5 c0.08 0 0.22 0.04 0.22 0.08 c-0.04 0.08 -0.14 0.08 -0.18 0.08 c0 0 0.08 0 0.08 0.04 s-0.08 0.3 -0.12 0.34 c0.12 0.1 0.14 0.3 0.14 0.48 l0 0.22 c0.04 0 0.04 0.08 0.04 0.08 c0 0.16 -0.1 0.42 -0.1 0.5 l0.04 0.08 c0 0.04 -0.02 0.08 -0.04 0.12 c-0.02 -0.04 0.02 0.1 0.06 0.2 c-0.02 0.08 -0.02 0.14 -0.02 0.12 l0.06 -0.04 c0 0.04 0.08 0.14 0.12 0.14 c0.02 0 0.12 -0.04 0.24 -0.04 c0.2 0 0.38 0.28 0.38 0.48 c0 0.04 -0.08 0.18 -0.12 0.22 l-0.06 0 c-0.14 0 -0.26 0.12 -0.44 0.12 c-0.04 0 -0.08 0 -0.08 -0.04 c-0.1 0.08 -0.04 0.16 -0.18 0.16 c0 -0.08 0.04 -0.08 0.04 -0.16 c-0.12 0 -0.16 0.08 -0.28 0.08 c-0.16 0 -0.24 -0.1 -0.46 -0.1 c-0.04 0 -0.1 0.02 -0.12 0.06 l0 -0.08 c-0.12 0 -0.2 0.04 -0.28 0.08 l-0.54 0 c-0.04 0.08 -0.12 0.12 -0.2 0.12 c-0.14 0 -0.42 -0.34 -0.42 -0.5 z M97.186 10.06 c-0.02 0 -0.02 0 -0.02 0.02 c0 0 0 0.02 0.02 0.02 s0.04 -0.02 0.04 -0.02 c0 -0.02 -0.02 -0.02 -0.04 -0.02 z M100.60600000000001 6.52 l0 0.16 c0.04 -0.04 0.04 -0.12 0.04 -0.16 l-0.04 0 z M98.96600000000001 6.5 c0.06 0.08 0.1 0.06 0.16 0.06 c0 -0.1 -0.16 -0.04 -0.16 -0.06 z M98.846 6.5 c-0.02 0 -0.02 0.02 -0.02 0.02 c0 0.02 0 0.04 0.02 0.04 s0.04 -0.02 0.04 -0.04 c0 0 -0.02 -0.02 -0.04 -0.02 z"></path></g></svg>