<svg id="1l4Zc70cK" viewBox="0 0 369.5454545454545 109.29220419744036" height="109.29220419744036" width="369.5454545454545" style="width: 369.545px; height: 109.292px; position: absolute; top: 50%; left: 50%; transform: translate(-50%, -50%) scale(0.472472); z-index: 0; cursor: pointer; overflow: visible;"><defs id="SvgjsDefs1471"></defs><g id="SvgjsG1472" featurekey="symbolFeature-0" transform="matrix(1.1668208121027273,0,0,1.1668208121027273,-10.613776779999961,-3.6949312734304227)" fill="#155263"><title xmlns="http://www.w3.org/2000/svg">пицца</title><g xmlns="http://www.w3.org/2000/svg"><path d="M51.36588,51.89173C60.382,47.819,69.20929,43.83145,78.03632,39.84324c-0.303-2.48347.22421-3.7359,1.89479-4.50286,2.21124-1.01517,4.2301-.34891,5.39016,2.0593a76.91139,76.91139,0,0,1,4.66722,13.27845c2.1489,7.86755.06846,15.14549-1.6862,22.52077-1.13408,4.76681-3.99043,8.59681-7.33931,12.23767-3.24889,3.53217-7.32662,5.66-11.19369,8.19124a7.13683,7.13683,0,0,1-2.47261.90465c-2.511.50522-5.15392,0.59769-7.53577,1.44234-3.25653,1.15482-6.52588.78713-9.80042,0.85017-5.79728.11152-11.33464-1.39539-16.73659-3.23738a77.02685,77.02685,0,0,1-11.78076-5.02951c-4.756-2.57282-7.34024-7.01068-9.32909-11.98575-2.22957-5.5772-2.37491-11.438-2.97025-17.223-0.26818-2.606.67979-5.31642,0.84242-7.99363a11.94356,11.94356,0,0,1,1.80417-6.453,47.71967,47.71967,0,0,0,3.83147-7.19577c1.34606-2.94825,3.82806-4.86347,6.069-6.96542a60.108,60.108,0,0,1,6.569-5.18716,40.34173,40.34173,0,0,1,4.20484-2.16143c1.90939-1.02952,3.76058-2.16913,5.6868-3.16464,1.90369-.98387,2.93188-0.64574,4.79767,1.13213,1.36246,1.29821,2.134,2.6016.88681,4.41738a1.671,1.671,0,0,0-.12481,1.31961C44.57184,29.479,45.62161,31.797,46.392,34.20534c1.16818,3.65195,2.17735,7.3555,3.21918,11.047C50.21165,47.37992,50.7435,49.52691,51.36588,51.89173ZM14.67159,43.01088h2.7661c0.92043-1.17517,2.16224-2.80852,3.45686-4.39895a21.68681,21.68681,0,0,1,3.46711-3.97447,90.4974,90.4974,0,0,1,15.19244-9.31972c2.15581-1.01508,2.34335-2.34034.449-4.30008-6.58824,3.96721-14.4378,6.10907-19.07349,13.1641L21.548,35.2986a3.1457,3.1457,0,0,1-.805.24778c-1.426-.0453-3.36115,1.22961-3.18379,2.4953,0.2473,1.76478-.58517,2.372-1.89831,3.06912-0.51446.27313-.64586,1.26787-0.95173,1.934a1.06915,1.06915,0,0,0-.43361.25665c-1.21363,2.41526-2.74383,4.692-2.88481,7.54259-0.10239,2.07034-.42156,4.12921-0.61091,6.19625-0.11126,1.21461-.28956,2.4876,1.28905,3.00495a1.3412,1.3412,0,0,1,.12918.55309c-0.50856.165-.97691,0.317-1.40985,0.45752a66.3778,66.3778,0,0,0,.49272,7.662,59.84316,59.84316,0,0,0,2.13419,7.41572,21.4645,21.4645,0,0,0,8.41867,11.16919,15.65737,15.65737,0,0,0,2.5408,1.1703q4.6397,2.16228,9.2658,4.33321c0.853-1.81834.71249-2.0163-.98486-2.70373-3.20006-1.296-6.59283-2.26973-8.97718-5.02025-1.20646-1.39174-2.37651-2.81508-3.56122-4.22195-0.4763,1.19648-1.04708,1.25917-1.77033.11578,1.10193-.62565,1.07431-1.47365.66065-2.53291-1.14571-2.93369-2.17771-5.91186-3.32562-8.84468-0.34546-.88261-0.29753-2.19626-1.889-2.14039a6.699,6.699,0,0,1-.54693-1.92082,1.063,1.063,0,0,1,.1694-0.452l0.87956,0.79248c-0.21946-3.86325-.8601-7.50081-0.50524-11.0385,0.35616-3.55064,1.70462-7.00177,2.56735-10.302C14.85591,45.15384,15.21709,43.49384,14.67159,43.01088ZM83.58293,67.96326c3.0659-5.07316.23495-22.635-4.185-26.73085-1.60693.24948-1.26894,1.6896-1.66216,2.69939-0.49094,1.26074-.75749,2.81508-1.66262,3.66734-2.19489,2.0666-5.18422,1.871-8.02077.05739a3.70258,3.70258,0,0,0-2.50462-.649,20.85024,20.85024,0,0,0-3.59826,1.64474c-1.90864.874-3.84326,1.69191-5.7427,2.585-1.748.82187-3.46418,1.71152-5.53363,2.74-0.46811-1.86534-1.04224-4.14495-1.612-6.42564-0.58141-2.32752-1.15849-4.65612-1.75173-7.04159a8.39683,8.39683,0,0,1-9.19243-1.27278,4.89526,4.89526,0,0,1-1.25243-6.21059,7.97978,7.97978,0,0,1,2.53056-2.94386,16.77412,16.77412,0,0,1,3.508-1.54134c-0.83414-2.03273-1.024-2.17-3.28477-1.41926a12.53429,12.53429,0,0,0-2.45655,1.32148c-3.67543,2.23939-7.37262,4.44577-10.99616,6.76677-2.6541,1.7-3.9372,4.63568-5.93762,6.92146-2.86307,3.27147-4.09959,7.31433-4.88092,11.27045-0.96066,4.86421-.17254,9.93593,1.18171,14.72866a73.04,73.04,0,0,0,3.95087,10.1115c1.68409,3.72286,4.21188,6.89351,8.00458,8.59007,3.6283,1.623,7.20647,3.524,11.28452,3.91186,1.11073,0.10565,2.22246.22756,3.32323,0.40661,6.635,1.07913,13.20315,1.24034,19.62417-1.21491,4.58608-1.7536,9.64909-2.48478,13.33081-6.1599,1.03688-1.035,1.76708-2.41843,2.90037-3.30751,2.7548-2.16117,2.4827-5.6089,3.86523-8.41524a2.90049,2.90049,0,0,0-1.34308.75091c-4.046,3.34412-8.43265,3.7656-10.7795-1.95826-0.94587-2.30691-1.25567-4.93064.48994-6.95685,2.0319-2.35847,5.00327-2.483,8.16688-1.18582C81.76252,63.69392,82.853,65.60257,83.58293,67.96326ZM72.42559,88.8603L72.1915,88.322c-3.34843,1.16369-6.65171,2.48912-10.05952,3.43991-2.73013.76165-5.59894,1.01265-8.38334,1.59882-1.54586.32543-3.506-1.11878-4.66143,1.04017a2.74743,2.74743,0,0,1-.87828-0.29278,11.925,11.925,0,0,0-2.087-1.06552,9.61933,9.61933,0,0,0-2.63941-.21043,16.926,16.926,0,0,0-2.20923.33274c-1.424-.40022-3.01239-0.89-4.62709-1.26674a2.82792,2.82792,0,0,0-1.217.36343,3.56753,3.56753,0,0,0,.96473,1.02878c0.693,0.28843,1.49627.29943,2.21485,0.54109,5.06625,1.70365,10.37854,1.88926,15.56948,1.68147,4.55082-.18217,9.06754-1.50587,13.56615-2.47878,0.9975-.2157,2.41749-0.56852,2.05115-2.29873a1.31533,1.31533,0,0,1,.644-0.70626C71.08163,89.609,71.76118,89.24626,72.42559,88.8603ZM44.85769,37.09994l-0.75387-.35456,0.7888-2.59391,0.963-.57674C45.08278,32.99639,44.31,32.418,43.42936,31.759l0.07614-1.36234a5.5559,5.5559,0,0,0-1.9994-.00748A7.83071,7.83071,0,0,0,39.51747,31.799a5.01633,5.01633,0,0,0-1.59783,5.14725,5.81012,5.81012,0,0,0,4.59064,2.811,8.02938,8.02938,0,0,0,2.03709-.67917l-0.08247-.21117h1.96153L45.98786,35.474C45.37951,36.34925,45.1186,36.72459,44.85769,37.09994ZM87.69585,50.01578c1.01083-3.51908-1.493-5.99742-2.38814-8.94341l-1.0763,2.17952C83.17233,41.558,84.2503,40.975,84.904,40.1205c0.45492-.59465-1.15555-3.07117-2.03865-3.37382a2.73973,2.73973,0,0,0-3.19053,1.66713,1.56255,1.56255,0,0,0,.18149.59882c0.36518-.26917.68144-0.50226,1.0706-0.789a13.20866,13.20866,0,0,0,.38377,3.0716c1.03181,2.65821,2.204,5.26325,3.37064,7.867,0.39926,0.89113.44154,2.78621,2.16176,0.99448A1.51248,1.51248,0,0,1,87.69585,50.01578ZM86.93605,62.12941c0.8677-.84848,2.181-1.52147,2.35554-2.41656a16.30979,16.30979,0,0,0-.59032-8.467,1.1765,1.1765,0,0,0-.66336-0.697,1.4584,1.4584,0,0,0-.69581.56839c-0.51369.54239-1.00736,1.10369-1.76551,1.9403-0.484,1.299,1.09073,2.48265,1.34218,4.11782C87.17073,58.81367,85.58652,60.18976,86.93605,62.12941ZM68.49546,45.50488l-0.1603.57769a5.40159,5.40159,0,0,0,5.31407,1.43174c1.80458-.68609,2.61745-2.22,2.61744-5.16555-1.04855.4313-2.01857,0.8303-2.76129,1.13578l1.09418,1.77573c-0.67859-.1447-1.36042-0.276-2.0347-0.43852-0.50141-.12091-0.99308-0.28222-1.60775-0.45978v1.87165ZM86.76589,72.12764c-1.621.239-2.82224,0.95417-2.81613,2.5396A8.47077,8.47077,0,0,1,82.641,78.46211c-0.16653.34787-.27722,0.72252-0.43235,1.135C84.37548,79.50393,86.60479,75.7892,86.76589,72.12764ZM86.3166,67.44383l0.70889,0.18452a25.91628,25.91628,0,0,0,1.50488-3.85482c0.06017-.25061-1.19864-0.81791-2.21377-1.47552v5.14581Zm-9.99732,17.798c-0.98355,1.42187-1.79583,2.59608-2.6081,3.77034l0.37129,0.32017q1.61065-1.1773,3.22349-2.35617ZM81.257,69.18287c1.40529-1.37534.5859-3.76747-1.55769-4.52951C80.16923,66.01979,80.70684,67.58309,81.257,69.18287Zm-8.94719,1.638c0.42929,2.79578,3.83094,4.23682,5.35912,2.17869C75.4367,73.368,73.5059,73.03768,72.30982,70.82082ZM87.52432,69.195c-0.62573-.32683-1.20283-0.62822-1.797-0.93856-0.65839,2.6113-.65839,2.6113,1.4459,2.43243ZM76.02689,70.8116l0.33814-.69569q-0.8377-.66645-1.67538-1.333l-0.60939,1.44382Zm2.7918-2.37908,0.72505-.38817-0.96851-2.16752a2.37411,2.37411,0,0,0-.72043.80122A10.98413,10.98413,0,0,0,78.81869,68.43252Z"></path><path d="M47.04057,3.47293C51.72194,3.35606,55.91,3.11746,60.09391,3.17567c7.98971,0.11117,14.54093,3.92873,20.90068,8.28859,3.43886,2.35743,5.26744,6.0572,8.03433,8.96311,0.64555,0.678.82718,1.48965-.53655,2.09569-9.13415,4.0589-18.22229,8.22146-27.319,12.36432a8.4559,8.4559,0,0,0-1.981,1.12669c-1.17981.99848-1.81258,0.41274-2.295-.67317a25.2445,25.2445,0,0,1-1.00962-2.63765c-1.03684-3.28238-2.17992-6.54-3.02231-9.87276-1.04588-4.13782-1.80459-8.34742-2.74948-12.512a3.96753,3.96753,0,0,0-1.88607-3.0816C47.50448,6.82706,47.51334,5.11789,47.04057,3.47293ZM70.24764,27.61788l-0.02228.575c1.07368-.05539,2.29156.19874,3.195-0.22209,3.176-1.47939,6.20222-3.27908,9.37167-4.77412,1.41722-.66852,1.46792-1.36208.58541-2.36886a38.26535,38.26535,0,0,0-4.54157-4.8976,55.47978,55.47978,0,0,0-8.90682-6.1779c-5.28555-2.73073-11.19943-2.8463-17.0175-2.93656a2.454,2.454,0,0,0-1.71625,1.64269c0.42111,3.22469,1.04708,6.42846,1.76137,9.60424a3.53531,3.53531,0,0,0,1.45309,1.83c3.08111,2.12165,3.85068,3.67964,2.73626,7.37946-0.83755,2.7806-.28808,5.13416,1.23427,7.69194,1.82765-.96774,3.5947-1.90343,5.36251-2.83947-1.47172-2.738-.70517-5.746,1.52839-6.83607,2.04276-.99691,5.97805.366,6.70936,2.47756Zm16.91253-6.04016c0.26752-1.61717-5.50031-8.3732-8.15517-9.10254,0.48817,0.80222.73055,1.25382,1.02233,1.67087,1.34616,1.92391,3.77227,2.98343,4.40575,5.476C84.77562,20.96994,85.71292,21.49493,87.16016,21.57772ZM68.794,27.10723l-0.21335-.73056c-1.216.38152-2.85731,0.425-3.514,1.251-0.52976.66643,0.12893,2.27756,0.30064,3.83464,1.43392-.72313,2.57358-1.29787,3.70046-1.86613-0.52913-.663-1.00782-1.26282-1.54-1.92965C68.10884,27.40988,68.45142,27.25857,68.794,27.10723ZM65.50355,5.44645L65.155,5.6401a2.965,2.965,0,0,0,.96569,1.11461A16.8288,16.8288,0,0,1,73.13828,9.864a2.44762,2.44762,0,0,0,1.23957.00513,2.71717,2.71717,0,0,0-.56193-1.23021c-1.23587-.69335-2.70943-0.55687-3.93663-1.74974C68.88892,5.92654,66.99606,5.89245,65.50355,5.44645Zm14.057,6.66085c-1.58862-.88117-2.81262-1.56013-4.40991-2.44608C76.11608,12.17661,77.42771,12.95569,79.56058,12.1073Z"></path><path d="M38.51039,46.53444c-0.22552,4.01382-2.23488,6.74855-5.17679,6.44138a10.25637,10.25637,0,0,1-7.361-3.601c-1.38256-1.73282-2.38094-3.4946-1.67231-5.745a5.43287,5.43287,0,0,1,1.25584-2.22182,30.87822,30.87822,0,0,1,3.061-2.30886,4.22725,4.22725,0,0,1,4.47816-.3593C36.343,40.06167,38.68731,43.38549,38.51039,46.53444Zm-9.87766-1.4933c-1.53124,1.19508-1.58759,2.373-.49985,3.64443a1.46735,1.46735,0,0,0,2.52333.01857C32.00332,46.528,29.4095,46.33109,28.63273,45.04114Zm4.87253,4.74051c1.58068-1.16717,1.56546-3.13734-.30787-4.59616C33.67573,46.8107,31.18844,48.25709,33.50526,49.78165Zm3.43332-5.066c-0.43978-3.41391-4.48623-5.76051-7.48466-4.20747C33.122,39.88767,35.30642,41.82545,36.93858,44.71562Zm-3.65915-2.61291-0.54452.50809q1.49077,1.7921,2.98154,3.58412l0.6029-.52826Q34.79938,43.88473,33.27942,42.10271Z"></path><path d="M66.06289,67.606c-1.87062-.625-3.70662-1.31482-4.13768-3.56243a4.16609,4.16609,0,0,1,1.59649-4.65164c-1.10375.33339-1.88328,0.55048-2.65047,0.80482-1.22648.40665-1.91456,0.08891-2.29907-1.25248-0.48854-1.70417-.92843-3.30025.573-4.72447,1.6539-1.56874,6.54042-2.336,8.60322-1.29121,1.65547,0.83848,3.35686,1.56808,3.916,3.69525,0.5031,1.91378-.3613,3.50164-2.34,3.50317-1.38462.001-1.80694,0.494-1.52161,1.80582A5.43715,5.43715,0,0,1,66.06289,67.606Zm0.80673-4.21942c-0.48294-1.55856-.873-2.76243-1.22079-3.97843a1.2785,1.2785,0,0,1-.02088-0.9263,1.67724,1.67724,0,0,1,1.05408-.16191,4.88492,4.88492,0,0,1,1.00347.33356c1.03149,0.34491,2.24516.39348,2.59078-.694a2.5402,2.5402,0,0,0-1.118-2.97021c-3.05087-2.26373-5.75221-1.26948-8.50512.378-1.07041.64061-1.7063,1.67243-1.02939,2.79725,0.713,1.18474,1.63925.30922,2.42942-.17822a0.709,0.709,0,0,1,.29767-0.18226,3.90267,3.90267,0,0,1,1.77255.37065,1.78231,1.78231,0,0,1,.26476,1.554,23.36941,23.36941,0,0,0-1.09094,2.39934,5.03836,5.03836,0,0,0,.30674,2.74743,1.97286,1.97286,0,0,0,1.736.69578A8.66745,8.66745,0,0,0,66.86961,63.38653Z"></path><path d="M42.64346,62.48458c0.78591,1.73917,2.35423,3.365.74808,5.32534a3.13045,3.13045,0,0,1-3.60268.79082c-2.09832-.72013-1.49368-2.8563-1.79157-4.5396-1.6401,1.31582-3.05944,1.424-4.24032.40665-1.12319-.96765-1.26563-3.16608-0.76624-4.66482,0.71511-2.14613,2.49328-3.0783,4.10263-4.25338,2.61667-1.91065,8.77254.256,9.25111,3.20417,0.33122,2.04047.1753,2.63082-1.8154,3.18091C43.96578,62.09032,43.40675,62.2614,42.64346,62.48458ZM39.8517,60.26111l0.30546-.63326a11.70815,11.70815,0,0,0,2.45044.84478,3.47948,3.47948,0,0,0,2.341-.35609c0.95217-.75017.20469-1.724-0.41884-2.25969-1.47468-1.26678-3.30065-2.21682-5.19349-1.45578a14.613,14.613,0,0,0-4.75283,3.11534c-0.66095.65765-.65868,2.2063-0.57479,3.3233a1.26137,1.26137,0,0,0,2.2523.49091c0.52438-.59109.97866-1.24434,1.59845-2.04282a8.10241,8.10241,0,0,1,.79443,1.373c0.36548,1.1703.62324,2.37421,0.98858,3.54456,0.39729,1.27265,1.05817,1.69234,2.37472.87982,1.6685-1.02978.60195-2.25265,0.20493-3.189A22.99986,22.99986,0,0,0,39.8517,60.26111Z"></path><path d="M22.23395,52.21078c2.71917,0.39526,5.73566,3.11869,5.50485,5.43434a4.29655,4.29655,0,0,1-1.62153,2.59912c-1.61566,1.24421-3.55009,1.82565-5.27629.229-1.743-1.61221-2.68606-3.80521-1.77669-6.04946C19.47,53.42243,21.13854,52.93269,22.23395,52.21078Zm0.36082,2.818c-0.487,1.43991-.65787,2.73034.87974,3.231,1.04762,0.34109,1.61674-.39474,1.63512-1.49282C25.13976,54.96681,23.78541,55.2399,22.59477,55.02881Z"></path><path d="M60.20586,82.76918c0.03088-1.752,2.23711-4.19756,3.77346-4.18282a5.0427,5.0427,0,0,1,4.91674,4.81516,3.4698,3.4698,0,0,1-3.854,3.45182C62.22245,86.80939,60.16526,85.07209,60.20586,82.76918ZM62.36545,83.348c0.70559,0.48574,1.281,1.1223,1.53984,1.01248a3.45147,3.45147,0,0,0,1.60243-1.39934c0.12608-.22835-0.584-0.91839-0.913-1.398C63.94266,82.08514,63.29063,82.60723,62.36545,83.348Z"></path><path d="M44.14907,85.98683c-4.06658-.67617-6.06834-3.50534-5.05215-7.09364,0.59546-2.1026,2.62541-3.247,4.49173-2.209,3.64494,2.02708,4.91173,3.52382,2.73567,7.52611C45.91037,84.97161,44.88977,85.40313,44.14907,85.98683Zm1.20039-6.26816a9.02463,9.02463,0,0,0-1.99962-1.36743c-0.74791-.29283-2.218,1.38556-2.02052,2.45891a2.412,2.412,0,0,0,1.39924,1.63865C44.15268,82.78684,45.28438,81.73353,45.34946,79.71867Z"></path><path d="M23.69139,73.87625a13.03392,13.03392,0,0,1,.62891-3.7566c0.86016-1.77943,2.86091-1.894,4.57473-2.17882,2.07567-.345,3.61037.81435,4.99649,2.17226,2.35643,2.30847,3.35751,5.36342,2.0117,7.4739-2.49475,3.91225-5.37671,4.45538-9.27924,1.108a14.69115,14.69115,0,0,1-2.4649-2.66269A6.15932,6.15932,0,0,1,23.69139,73.87625Zm11.36769,1.51156a6.68412,6.68412,0,0,0-2.90092-5.34747,5.186,5.186,0,0,0-4.98715-.29226c-1.72507,1.27643-2.56478,3.18969-1.70408,4.93164,0.84882,1.71791,1.777,3.45943,3.82087,4.30586A4.12011,4.12011,0,0,0,35.05908,75.38781Z"></path><path d="M49.10275,72.182c0.05221-3.04586,3.2147-5.83594,5.54069-5.78238,3.19108,0.07348,7.02564,4.18212,6.73271,7.08642-0.30875,3.06095-3.6799,5.25429-6.46405,5.088C52.19854,78.41193,48.72633,75.5425,49.10275,72.182Zm1.74856,2.30243c2.48725,3.42451,5.0349,3.51469,7.79345,1.15182,1.58356-1.35639,2.27311-3.25369.84681-4.717-1.32978-1.36426-3.13686-2.79369-4.90351-3.0573-1.8849-.2813-2.696,1.88952-3.19975,3.60756A28.65153,28.65153,0,0,0,50.85131,74.48442Z"></path><path d="M61.8258,18.89107c-2.23768,2.14452-3.75019,1.6766-4.51761-1.12421-0.94789-3.45947.09691-5.56642,3.1378-7.53,2.49529-1.6113,4.84837-1.885,7.35192-.33126,1.55574,0.96552,1.76637,2.41439,1.12439,4.02251-0.467,1.16982-.9776,2.347-2.74219,2.02373,0.719,1.48491,2.40921,2.99365.69062,4.55516C64.63213,22.541,63.2504,20.41607,61.8258,18.89107Zm4.28841,0.25265c-0.52836-.95639-0.92633-1.78639-1.42251-2.55291-1.1618-1.79487-.97652-2.14182,1.028-2.50352a2.85547,2.85547,0,0,0,1.85692-1.28908c0.17179-.34639-0.55117-1.247-1.01256-1.77465-1.06831-1.22165-2.40421-.60243-3.63861-0.34648-3.03951.63022-5.28411,4.04869-4.3973,6.71342a5.53976,5.53976,0,0,0,.94979,1.32774c0.39861-.36165.82107-0.70074,1.18981-1.09065,0.46312-.48969.88227-1.021,1.3204-1.53434a8.06019,8.06019,0,0,1,1.18068,1.7646C63.62279,19.18846,64.27768,19.89529,66.11421,19.14372Z"></path><path d="M77.7711,19.50911a3.31752,3.31752,0,0,1-3.30589,2.88956c-1.95083-.106-3.38131-2.11791-3.19512-4.494,0.08922-1.13874,1.84385-2.452,3.10571-2.32434A4.24,4.24,0,0,1,77.7711,19.50911Z"></path><path d="M27.855,70.91886c0.32,0.52691.95294,1.10039,0.88319,1.5693a5.17069,5.17069,0,0,1-1.13365,1.76247A5.08715,5.08715,0,0,1,26.441,72.56547a3.5765,3.5765,0,0,1,.74471-1.62587Z"></path></g></g><g id="SvgjsG1473" featurekey="nameFeature-0" transform="matrix(0.8278300245269402,0,0,0.8278300245269402,112.63455814244017,16.539309420798144)" fill="#155263"><path d="M10.286 40 l-3.1429 0 l-4.2857 -4.2857 l0 -20 l4.2857 -4.2857 l3.1429 0 l0 28.571 z M22.857 11.428999999999998 l4.2857 4.2857 l0 4.2857 l-5.4286 0 l-2.2857 -2.2857 l-8 0 l0 -6.2857 l11.429 0 z M19.429 33.7143 l2.2857 -2.2857 l5.4286 0 l0 4.2857 l-4.2857 4.2857 l-11.429 0 l0 -6.2857 l8 0 z M43.771571428571434 40 l-7.4857 0 l0.057143 -28.571 l7.4286 0 l0 28.571 z M54.057571428571435 11.428999999999998 l7.4286 0 l0 28.571 l-7.4286 0 l0 -11.143 l-9.1429 0 l0 -6.2857 l9.1429 0 l0 -11.143 z M78.05742857142857 40 l-7.4286 0 l0 -24.286 l4.2857 -4.2857 l3.1429 0 l0 28.571 z M91.48542857142857 11.428999999999998 l4.2857 4.2857 l0 24.286 l-7.4286 0 l0 -8 l-9.1429 0 l0 -6.2857 l9.1429 0 l0 -8 l-9.1429 0 l0 -6.2857 l12.286 0 z M123.02814285714285 11.428999999999998 l-5.6571 6.2857 l-13.314 0 l0 -6.2857 l18.971 0 z M128.34314285714285 11.428999999999998 l0 6.2857 l-14.571 16 l14.571 0 l0 6.2857 l-24.286 0 l0 -6.2857 l20.343 -22.286 l3.9429 0 z M144.05742857142857 40 l-7.4286 0 l0 -24.286 l4.2857 -4.2857 l3.1429 0 l0 28.571 z M157.48542857142857 11.428999999999998 l4.2857 4.2857 l0 24.286 l-7.4286 0 l0 -8 l-9.1429 0 l0 -6.2857 l9.1429 0 l0 -8 l-9.1429 0 l0 -6.2857 l12.286 0 z M178.34314285714285 40 l-7.4286 0 l0 -28.571 l7.4286 0 l0 28.571 z M196.62814285714285 15.713999999999999 l0 6.9714 l-3.0286 3.0286 l3.0286 3.0286 l0 6.9714 l-4.2857 4.2857 l-12.857 0 l0 -6.2857 l9.7143 0 l0 -4.8571 l-9.7143 0 l0 -6.2857 l9.7143 0 l0 -4.8571 l-9.7143 0 l0 -6.2857 l12.857 0 z M213.2002857142857 40 l-3.1429 0 l-4.2857 -4.2857 l0 -24.286 l7.4286 0 l0 28.571 z M214.3432857142857 33.7143 l14.286 0 l0 6.2857 l-14.286 0 l0 -6.2857 z M235.48571428571427 40 l0 -5.7143 l2.2857 0 l0 -17.143 l-2.2857 0 l0 -5.7143 l12 0 l0 5.7143 l-2.2857 0 l0 17.143 l2.2857 0 l0 5.7143 l-12 0 z M261.02858571428567 11.428999999999998 l0 6.2857 l-7.2571 0 l0 -6.2857 l7.2571 0 z M262.1713857142857 11.428999999999998 l15.886 0 l0 6.2857 l-8.4571 0 l0 22.286 l-7.4286 0 l0 -28.571 z M292.6288571428571 40 l-7.4286 0 l0 -24.286 l4.2857 -4.2857 l3.1429 0 l0 28.571 z M306.0568571428571 11.428999999999998 l4.2857 4.2857 l0 24.286 l-7.4286 0 l0 -8 l-9.1429 0 l0 -6.2857 l9.1429 0 l0 -8 l-9.1429 0 l0 -6.2857 l12.286 0 z"></path></g><g id="SvgjsG1474" featurekey="sloganFeature-0" transform="matrix(1.0959100363566676,0,0,1.0959100363566676,115.19447036963541,54.021776273104265)" fill="#155263"><path d="M3.88 15.9 l0 2.86 c0 0.44 -0.34 0.64 -0.66 0.64 c-0.34 0 -0.66 -0.2 -0.66 -0.64 l0 -10.74 c0 -0.4 0.22 -0.66 0.66 -0.66 l2.7 0 c0.76 0 3.16 0.22 3.16 2.92 l0 2.5 c0 1.52 -0.56 2.48 -1.84 2.9 l1.36 2.74 c0.28 0.54 -0.14 0.98 -0.58 0.98 c-0.24 0 -0.54 -0.16 -0.7 -0.5 l-1.46 -3 l-1.98 0 z M7.76 12.780000000000001 l0 -2.5 c0 -0.48 -0.18 -1.58 -1.84 -1.58 l-2.04 0 l0 5.86 l1.86 0 c0.98 0 2.02 -0.22 2.02 -1.78 z M19.892000000000003 18.7 l0 -10.64 c0 -0.46 0.36 -0.7 0.7 -0.7 l4.6 0 c0.44 0 0.66 0.32 0.66 0.66 s-0.22 0.68 -0.66 0.68 l-3.96 0 l0 3.88 l3.14 0 c0.46 0 0.68 0.32 0.68 0.66 s-0.24 0.7 -0.68 0.7 l-3.14 0 l0 4.14 l3.96 0 c0.42 0 0.64 0.34 0.64 0.66 c0 0.34 -0.22 0.66 -0.64 0.66 l-4.6 0 c-0.34 0 -0.7 -0.12 -0.7 -0.7 z M36.164 17.68 c-0.44 -0.82 0.68 -1.42 1.2 -0.6 c0.26 0.42 1.04 1.14 2.28 1.14 c0.52 0 1.82 -0.38 2 -1.86 c0.12 -0.9 -0.74 -1.78 -2.22 -2.52 c-2.08 -0.98 -3.66 -1.84 -3.66 -3.56 c0 -2.04 1.72 -3 3.56 -3 c1.66 0 2.58 1.02 2.9 1.54 c0.46 0.74 -0.54 1.46 -1.1 0.74 c-0.28 -0.36 -0.82 -0.96 -1.8 -0.96 c-1.1 0 -2.24 0.52 -2.24 1.68 c0 0.92 1.02 1.44 2.54 2.16 c1.78 0.88 3.64 1.74 3.36 4.08 c-0.22 1.84 -1.62 3.02 -3.34 3.02 c-1.3 0 -2.9 -0.7 -3.48 -1.86 z M53.076 7.359999999999999 l6.04 0 c0.42 0 0.62 0.34 0.62 0.68 s-0.2 0.66 -0.62 0.66 l-2.28 0 l0 10.06 c0 0.42 -0.34 0.64 -0.68 0.64 s-0.66 -0.22 -0.66 -0.64 l0 -10.06 l-2.42 0 c-0.42 0 -0.62 -0.32 -0.62 -0.66 s0.2 -0.68 0.62 -0.68 z M75.828 18.86 l-0.78 -2.54 l-3.72 0 l-0.74 2.5 c-0.26 0.86 -1.58 0.6 -1.3 -0.28 c1.04 -3.5 2.06 -7.06 3.08 -10.6 c0.12 -0.38 0.44 -0.58 0.76 -0.58 c0.3 0 0.62 0.2 0.74 0.58 l3.18 10.6 c0.22 0.76 -0.96 1.18 -1.22 0.32 z M73.16799999999999 10.06 l-1.44 4.92 l2.94 0 c-0.5 -1.68 -0.96 -3.12 -1.5 -4.92 z M87.38 15.86 l0 -7.86 c0 -0.42 0.34 -0.64 0.66 -0.64 c0.34 0 0.66 0.22 0.66 0.64 l0 7.86 c0 1.44 0.98 2.3 2.34 2.3 l0.5 0 c1.4 0 2.36 -0.98 2.36 -2.3 l0 -7.86 c0 -0.42 0.32 -0.64 0.66 -0.64 c0.32 0 0.66 0.22 0.66 0.64 l0 7.86 c0 2.06 -1.46 3.64 -3.68 3.64 l-0.5 0 c-2.22 0 -3.66 -1.54 -3.66 -3.64 z M107.41199999999999 15.9 l0 2.86 c0 0.44 -0.34 0.64 -0.66 0.64 c-0.34 0 -0.66 -0.2 -0.66 -0.64 l0 -10.74 c0 -0.4 0.22 -0.66 0.66 -0.66 l2.7 0 c0.76 0 3.16 0.22 3.16 2.92 l0 2.5 c0 1.52 -0.56 2.48 -1.84 2.9 l1.36 2.74 c0.28 0.54 -0.14 0.98 -0.58 0.98 c-0.24 0 -0.54 -0.16 -0.7 -0.5 l-1.46 -3 l-1.98 0 z M111.292 12.780000000000001 l0 -2.5 c0 -0.48 -0.18 -1.58 -1.84 -1.58 l-2.04 0 l0 5.86 l1.86 0 c0.98 0 2.02 -0.22 2.02 -1.78 z M129.324 18.86 l-0.78 -2.54 l-3.72 0 l-0.74 2.5 c-0.26 0.86 -1.58 0.6 -1.3 -0.28 c1.04 -3.5 2.06 -7.06 3.08 -10.6 c0.12 -0.38 0.44 -0.58 0.76 -0.58 c0.3 0 0.62 0.2 0.74 0.58 l3.18 10.6 c0.22 0.76 -0.96 1.18 -1.22 0.32 z M126.664 10.06 l-1.44 4.92 l2.94 0 c-0.5 -1.68 -0.96 -3.12 -1.5 -4.92 z M147.756 8 l0 10.76 c0 0.42 -0.32 0.64 -0.64 0.64 c-0.24 0 -0.56 -0.18 -0.7 -0.44 c-1.5 -2.94 -2.62 -5.2 -4.12 -8.16 l0 7.96 c0 0.42 -0.32 0.64 -0.66 0.64 c-0.32 0 -0.66 -0.22 -0.66 -0.64 l0 -10.76 c0 -0.7 1 -0.74 1.22 -0.32 l4.22 8.34 l0 -8.02 c0 -0.42 0.32 -0.64 0.66 -0.64 s0.68 0.22 0.68 0.64 z M158.488 7.359999999999999 l6.04 0 c0.42 0 0.62 0.34 0.62 0.68 s-0.2 0.66 -0.62 0.66 l-2.28 0 l0 10.06 c0 0.42 -0.34 0.64 -0.68 0.64 s-0.66 -0.22 -0.66 -0.64 l0 -10.06 l-2.42 0 c-0.42 0 -0.62 -0.32 -0.62 -0.66 s0.2 -0.68 0.62 -0.68 z"></path></g></svg>